<?xml version="1.0" encoding="utf-8"?>
<!-- Generator: Adobe Illustrator 23.0.6, SVG Export Plug-In . SVG Version: 6.00 Build 0)  -->
<svg version="1.1" id="Layer_1" xmlns="http://www.w3.org/2000/svg" xmlns:xlink="http://www.w3.org/1999/xlink" x="0px" y="0px"
	 viewBox="0 0 283.5 283.5" style="enable-background:new 0 0 283.5 283.5;" xml:space="preserve">
<style type="text/css">
	.st0{fill:#2C2B2A;}
</style>
<g>
	<g>
		<path class="st0" d="M93.2,98.2c0.3,0.4,0.5,0.7,0.5,1.1c0,1-0.8,1.5-1.7,1.5h-3c-0.5,0-1-0.1-1.4-0.4c-0.4-0.3-0.6-0.8-0.6-1.3
			c0-0.4,0.2-0.8,0.7-0.8c0.4,0,0.6,0.3,0.6,0.7c0,0.4,0.2,0.5,0.6,0.5h3c0.1,0,0.4,0,0.4-0.2c0-0.1-0.2-0.3-0.2-0.4l-4.7-6
			c-0.3-0.4-0.4-0.6-0.4-1.1c0-0.5,0.3-1,0.7-1.3c0.4-0.2,0.7-0.2,1.1-0.2h2.9c0.5,0,1,0.1,1.3,0.4c0.4,0.3,0.6,0.8,0.6,1.3
			c0,0.4-0.2,0.8-0.7,0.8c-0.4,0-0.7-0.3-0.7-0.6c0-0.5-0.2-0.5-0.7-0.5h-2.9c-0.2,0-0.5,0-0.5,0.2c0,0.1,0.1,0.3,0.2,0.4L93.2,98.2
			z"/>
		<path class="st0" d="M100.5,94.9c-0.1,0-0.3,0-0.4,0.1l-1.9,1.2v3.8c0,0.4-0.1,0.9-0.7,0.9c-0.6,0-0.7-0.4-0.7-0.9v-8.2
			c0-0.4,0.1-0.9,0.7-0.9c0.6,0,0.7,0.4,0.7,0.9v2.9l1.1-0.7c0.3-0.2,0.7-0.4,1.2-0.4h0.9c0.3,0,0.7,0,1.3,0.5
			c0.6,0.5,0.6,1.1,0.6,1.8l0.1,4.1c0,0.5-0.1,1-0.6,1c-0.5,0-0.6-0.4-0.7-0.9l-0.1-4c0-0.6,0-1.1-0.7-1.1H100.5z"/>
		<path class="st0" d="M106.7,96c0-0.9,0.2-1.2,0.8-1.7c0.6-0.5,0.9-0.7,1.9-0.7h1c0.9,0,1.2,0.2,1.9,0.7c0.7,0.5,0.8,0.8,0.8,1.7
			v2.5c0,0.9-0.2,1.2-0.9,1.8s-1,0.7-1.8,0.7h-1c-0.8,0-1.1-0.1-1.8-0.7s-0.9-0.9-0.9-1.8V96z M108,98.5c0,0.3,0.1,0.4,0.5,0.8
			c0.3,0.2,0.5,0.4,0.9,0.4h1c0.4,0,0.6-0.1,0.9-0.4c0.4-0.3,0.5-0.5,0.5-0.8V96c0-0.3-0.1-0.4-0.5-0.8c-0.3-0.2-0.5-0.4-0.9-0.4h-1
			c-0.4,0-0.6,0.1-0.9,0.4c-0.4,0.3-0.5,0.5-0.5,0.8V98.5z"/>
		<path class="st0" d="M120.3,97.9l0.7,1.2l0.4-1.2l0.1-3.4c0-0.4,0.1-0.9,0.7-0.9c0.6,0,0.7,0.5,0.6,0.9l-0.1,3.6l-0.6,1.9
			c-0.1,0.4-0.2,0.8-0.7,0.8h-0.5c-0.2,0-0.4-0.2-0.5-0.4l-0.7-1.1l-0.7,1.1c-0.1,0.2-0.3,0.4-0.5,0.4h-0.5c-0.5,0-0.5-0.4-0.7-0.8
			l-0.6-1.9l-0.1-3.6c0-0.4,0.1-0.9,0.6-0.9c0.6,0,0.6,0.5,0.7,0.9l0.1,3.4l0.4,1.2l0.7-1.2v-1.2c0-0.4,0.1-0.9,0.7-0.9
			c0.6,0,0.7,0.5,0.7,0.9V97.9z"/>
		<path class="st0" d="M126.3,96.6c0-0.8,0.2-1.2,0.8-1.7l1-0.8c0.6-0.5,0.9-0.5,1.7-0.5h2.1c0.4,0,0.9,0.1,0.9,0.7
			c0,0.6-0.5,0.7-0.9,0.7h-2.3c-0.3,0-0.5,0.1-0.7,0.3l-0.8,0.7c-0.2,0.2-0.4,0.3-0.4,0.6V98c0,0.3,0.2,0.4,0.4,0.6l0.8,0.7
			c0.2,0.2,0.5,0.3,0.7,0.3h2.3c0.4,0,0.9,0.1,0.9,0.7c0,0.6-0.5,0.7-0.9,0.7h-2.1c-0.8,0-1.1,0-1.7-0.5l-1-0.8
			c-0.6-0.5-0.8-0.9-0.8-1.7V96.6z"/>
		<path class="st0" d="M138.3,94.9c-0.4,0-0.9-0.1-0.9-0.7c0-0.6,0.5-0.7,0.9-0.7h1.8c0.7,0,1.2,0.1,1.7,0.6
			c0.5,0.5,0.6,0.9,0.6,1.6l0.1,4.4c0,0.4-0.2,0.8-0.6,0.8c-0.3,0-0.7-0.3-0.7-0.7l-0.9,0.5c-0.4,0.2-0.4,0.2-0.8,0.2h-1.3
			c-0.6,0-1-0.1-1.5-0.5c-0.5-0.4-0.7-0.9-0.7-1.6v-0.6c0-0.6,0.1-1,0.6-1.5c0.4-0.4,1-0.5,1.5-0.5h2.8V96c0-1-0.2-1.1-1.2-1.1
			H138.3z M138.3,97.6c-0.4,0-0.9,0.1-0.9,0.6v0.9c0,0.4,0.5,0.5,0.8,0.5h1.4l1.4-0.7v-0.3c0-0.7-0.2-0.9-0.9-0.9H138.3z"/>
		<path class="st0" d="M148.1,94.9c-0.3,0-0.7-0.1-0.7,0.4c0,0.2,0.2,0.3,0.4,0.4l3.3,1.5c0.8,0.4,1.3,0.9,1.3,1.9
			c0,1.3-0.9,1.9-2.2,1.9h-2c-0.7,0-1.1,0-1.6-0.4c-0.2-0.2-0.6-0.4-0.6-0.8c0-0.4,0.3-0.7,0.7-0.7c0.2,0,0.4,0.1,0.5,0.2
			c0.2,0.3,0.6,0.3,1,0.3h1.8c0.5,0,1.1,0,1.1-0.7c0-0.3-0.4-0.5-0.7-0.7l-3.1-1.4c-0.7-0.3-1.1-0.7-1.1-1.6c0-1,0.8-1.7,1.8-1.7
			h2.2c0.7,0,1,0,1.5,0.4c0.2,0.2,0.5,0.4,0.5,0.7c0,0.4-0.3,0.7-0.7,0.7c-0.2,0-0.4-0.1-0.6-0.3c-0.2-0.2-0.4-0.3-0.8-0.3H148.1z"
			/>
		<path class="st0" d="M158.1,100.9c-0.5,0-0.8,0-1.2-0.4l-0.6-0.5c-0.5-0.5-0.7-0.8-0.7-1.5v-2.5c0-0.7,0.1-1.1,0.6-1.6l0.5-0.4
			c0.6-0.5,0.9-0.5,1.4-0.5h1.2c0.6,0,0.9,0.1,1.4,0.5l0.5,0.4c0.6,0.5,0.7,1,0.7,1.7v1c0,0.7-0.1,1-0.9,1H157v0.4
			c0,0.1,0.1,0.3,0.2,0.4l0.3,0.4c0.2,0.2,0.4,0.2,0.9,0.2h2.8c0.4,0,0.9,0.1,0.9,0.7c0,0.6-0.5,0.7-0.9,0.7H158.1z M157,96.9h3.8
			v-0.8c0-0.2,0-0.4-0.2-0.6l-0.5-0.4c-0.2-0.1-0.4-0.2-0.6-0.2h-1.1c-0.2,0-0.4,0-0.7,0.1l-0.4,0.3c-0.2,0.1-0.3,0.2-0.3,0.6V96.9z
			"/>
		<path class="st0" d="M169,93.6c0.4,0,0.8,0.2,1.3,0.7l0.2,0.2v-2.7c0-0.4,0.1-0.9,0.7-0.9c0.6,0,0.7,0.4,0.7,0.9v8.2
			c0,0.4-0.1,0.9-0.7,0.9c-0.5,0-0.7-0.4-0.7-0.9v-0.1l-0.3,0.3c-0.4,0.4-0.9,0.7-1.3,0.7h-1.3c-0.4,0-0.9-0.3-1.1-0.5l-0.4-0.4
			c-0.5-0.5-0.7-0.8-0.7-1.5v-2.6c0-0.7,0.2-1,0.7-1.5l0.4-0.4c0.4-0.4,0.7-0.5,1.3-0.5H169z M166.8,98c0,0.4,0,0.8,0.2,1l0.4,0.3
			c0.2,0.1,0.3,0.3,0.5,0.3h0.9c0.2,0,0.4-0.1,0.6-0.3l0.7-0.6c0.2-0.2,0.4-0.3,0.4-0.6v-1.6c0-0.2-0.2-0.4-0.4-0.6l-0.7-0.6
			c-0.2-0.2-0.5-0.3-0.6-0.3h-0.9c-0.2,0-0.3,0.1-0.5,0.3l-0.4,0.3c-0.2,0.2-0.2,0.6-0.2,1V98z"/>
		<path class="st0" d="M187.2,94.9c-0.4,0-0.9-0.1-0.9-0.7c0-0.6,0.5-0.7,0.9-0.7h1.8c0.7,0,1.2,0.1,1.7,0.6
			c0.5,0.5,0.6,0.9,0.6,1.6l0.1,4.4c0,0.4-0.2,0.8-0.6,0.8c-0.3,0-0.7-0.3-0.7-0.7l-0.9,0.5c-0.4,0.2-0.4,0.2-0.8,0.2h-1.3
			c-0.6,0-1-0.1-1.5-0.5c-0.5-0.4-0.7-0.9-0.7-1.6v-0.6c0-0.6,0.2-1,0.6-1.5c0.4-0.4,1-0.5,1.5-0.5h2.8V96c0-1-0.2-1.1-1.2-1.1
			H187.2z M187.2,97.6c-0.4,0-0.9,0.1-0.9,0.6v0.9c0,0.4,0.5,0.5,0.8,0.5h1.4l1.4-0.7v-0.3c0-0.7-0.2-0.9-0.9-0.9H187.2z"/>
		<path class="st0" d="M197.5,98.4c0,0.7,0,1.2,0.9,1.2h0.7c0.5,0,0.8,0,0.9-0.6c0.1-0.3,0.3-0.5,0.7-0.5c0.4,0,0.7,0.3,0.7,0.7
			s-0.2,0.8-0.4,1.1c-0.5,0.6-1.1,0.7-1.8,0.7h-0.7c-0.7,0-1.2-0.1-1.7-0.7c-0.5-0.6-0.5-1.1-0.5-1.8v-3.6h-0.4
			c-0.4,0-0.9-0.1-0.9-0.7c0-0.6,0.5-0.7,0.9-0.7h0.4v-1.3c0-0.4,0.1-0.9,0.7-0.9c0.6,0,0.7,0.4,0.7,0.9v1.3h2.2
			c0.4,0,0.9,0.1,0.9,0.7c0,0.6-0.5,0.7-0.9,0.7h-2.2V98.4z"/>
		<path class="st0" d="M68.7,116.5c0,0.4-0.2,0.7-0.7,0.7s-0.7-0.2-0.7-0.7v-9.9h4.5c0.6,0,1.1,0.1,1.6,0.6c0.6,0.5,0.6,1,0.6,1.8
			v1.9c0,0.7-0.1,1.2-0.6,1.7c-0.5,0.6-1.1,0.7-1.8,0.7h-3V116.5z M68.7,111.9h3c0.8,0,1-0.2,1-1V109c0-0.8-0.2-1-1-1h-3V111.9z"/>
		<path class="st0" d="M81.2,115.9h1c0.4,0,0.9,0.1,0.9,0.7c0,0.6-0.5,0.7-0.9,0.7h-3.3c-0.4,0-0.9-0.1-0.9-0.7
			c0-0.6,0.5-0.7,0.9-0.7h1v-7.4h-1c-0.4,0-0.9-0.1-0.9-0.7c0-0.6,0.5-0.7,0.9-0.7h1.4c0.7,0,1,0.1,1,0.9V115.9z"/>
		<path class="st0" d="M89.3,111.2c-0.4,0-0.9-0.1-0.9-0.7c0-0.6,0.5-0.7,0.9-0.7h1.8c0.7,0,1.2,0.1,1.7,0.6
			c0.5,0.5,0.6,0.9,0.6,1.6l0.1,4.4c0,0.4-0.2,0.8-0.6,0.8c-0.3,0-0.7-0.3-0.7-0.7l-0.9,0.5c-0.4,0.2-0.4,0.2-0.8,0.2h-1.3
			c-0.6,0-1-0.1-1.5-0.5c-0.5-0.4-0.7-0.9-0.7-1.6v-0.6c0-0.6,0.2-1,0.6-1.5c0.4-0.4,1-0.5,1.5-0.5h2.8v-0.3c0-1-0.2-1.1-1.2-1.1
			H89.3z M89.3,113.9c-0.4,0-0.9,0.1-0.9,0.6v0.9c0,0.4,0.5,0.5,0.8,0.5h1.4l1.4-0.7v-0.3c0-0.7-0.2-0.9-0.9-0.9H89.3z"/>
		<path class="st0" d="M102,111.5v-0.7c0-0.4,0.1-0.9,0.7-0.9c0.6,0,0.7,0.4,0.7,0.9v0.5c0,0.3,0,0.5-0.2,0.8l-3.3,7.2
			c-0.3,0.6-0.4,0.7-1,0.7h-1c-0.4,0-0.9-0.1-0.9-0.7c0-0.6,0.5-0.7,0.9-0.7h0.9l1-2h-0.1c-0.5,0-0.6-0.2-0.8-0.7l-1.6-3.6
			c-0.2-0.4-0.3-0.7-0.3-1.1v-0.6c0-0.4,0.1-0.9,0.7-0.9c0.6,0,0.7,0.4,0.7,0.9v0.7l1.8,3.9h0.3L102,111.5z"/>
		<path class="st0" d="M117.8,110.8l0.2-0.2c0.4-0.4,0.7-0.7,1.3-0.7h1.4c0.3,0,0.6,0.2,1,0.5l0.4,0.4c0.5,0.4,0.7,0.8,0.7,1.5v2.6
			c0,0.7-0.2,1.1-0.7,1.5l-0.4,0.4c-0.3,0.3-0.7,0.5-1,0.5h-1.3c-0.5,0-0.9-0.3-1.3-0.7l-0.3-0.3v0.1c0,0.4-0.1,0.9-0.7,0.9
			c-0.6,0-0.7-0.5-0.7-0.9v-8.2c0-0.4,0.1-0.9,0.7-0.9c0.6,0,0.7,0.4,0.7,0.9V110.8z M117.8,114.1c0,0.4,0.1,0.6,0.4,0.9l0.7,0.6
			c0.2,0.1,0.4,0.3,0.5,0.3h1c0.2,0,0.3,0,0.4-0.1l0.6-0.5c0.1-0.1,0.2-0.4,0.2-0.7v-2.3c0-0.3-0.1-0.5-0.2-0.5l-0.6-0.5
			c-0.1-0.1-0.2-0.1-0.3-0.1h-0.9c-0.2,0-0.4,0.1-0.5,0.2l-0.8,0.7c-0.2,0.2-0.4,0.4-0.4,0.8V114.1z"/>
		<path class="st0" d="M128.7,117.2c-0.5,0-0.8,0-1.2-0.4l-0.6-0.5c-0.5-0.5-0.7-0.8-0.7-1.5v-2.5c0-0.7,0.1-1.1,0.6-1.6l0.5-0.4
			c0.6-0.5,0.9-0.5,1.4-0.5h1.2c0.6,0,0.9,0.1,1.4,0.5l0.5,0.4c0.6,0.5,0.7,1,0.7,1.7v1c0,0.7-0.1,1-0.9,1h-4.2v0.4
			c0,0.1,0.1,0.3,0.2,0.4l0.3,0.4c0.2,0.2,0.4,0.2,0.9,0.2h2.8c0.4,0,0.9,0.1,0.9,0.7c0,0.6-0.5,0.7-0.9,0.7H128.7z M127.6,113.2
			h3.8v-0.8c0-0.2,0-0.4-0.2-0.6l-0.5-0.4c-0.2-0.1-0.4-0.2-0.6-0.2H129c-0.2,0-0.4,0-0.7,0.1l-0.4,0.3c-0.2,0.1-0.3,0.2-0.3,0.6
			V113.2z"/>
		<path class="st0" d="M141.2,111.5v-0.7c0-0.4,0.1-0.9,0.7-0.9c0.6,0,0.7,0.4,0.7,0.9v0.5c0,0.3,0,0.5-0.2,0.8l-3.3,7.2
			c-0.3,0.6-0.4,0.7-1,0.7h-1c-0.4,0-0.9-0.1-0.9-0.7c0-0.6,0.5-0.7,0.9-0.7h0.9l1-2h-0.1c-0.5,0-0.6-0.2-0.8-0.7l-1.6-3.6
			c-0.2-0.4-0.3-0.7-0.3-1.1v-0.6c0-0.4,0.1-0.9,0.7-0.9c0.6,0,0.7,0.4,0.7,0.9v0.7l1.8,3.9h0.3L141.2,111.5z"/>
		<path class="st0" d="M145.9,112.3c0-0.9,0.2-1.2,0.8-1.7c0.6-0.5,0.9-0.7,1.9-0.7h1c0.9,0,1.2,0.2,1.9,0.7
			c0.7,0.5,0.8,0.8,0.8,1.7v2.5c0,0.9-0.2,1.2-0.9,1.8c-0.7,0.6-1,0.7-1.8,0.7h-1c-0.8,0-1.1-0.1-1.8-0.7c-0.7-0.6-0.9-0.9-0.9-1.8
			V112.3z M147.2,114.8c0,0.3,0.1,0.4,0.5,0.8c0.3,0.2,0.5,0.4,0.9,0.4h1c0.4,0,0.6-0.1,0.9-0.4c0.4-0.3,0.5-0.5,0.5-0.8v-2.5
			c0-0.3-0.1-0.4-0.5-0.8c-0.3-0.2-0.5-0.4-0.9-0.4h-1c-0.4,0-0.6,0.1-0.9,0.4c-0.4,0.3-0.5,0.5-0.5,0.8V114.8z"/>
		<path class="st0" d="M157,112.5v3.8c0,0.4-0.1,0.9-0.7,0.9c-0.6,0-0.7-0.4-0.7-0.9v-5.5c0-0.5,0.1-1,0.7-1c0.6,0,0.7,0.5,0.7,1
			v0.2v0l1.1-0.7c0.3-0.2,0.7-0.4,1.1-0.4h1c0.5,0,0.8,0.1,1.2,0.5c0.6,0.5,0.6,1.1,0.6,1.8l0.1,4.1c0,0.5-0.1,1-0.6,1
			c-0.5,0-0.6-0.4-0.7-0.9l-0.1-4c0-0.8-0.1-1.1-0.9-1.1h-0.4c-0.1,0-0.3,0-0.4,0.1L157,112.5z"/>
		<path class="st0" d="M169,109.9c0.4,0,0.8,0.2,1.3,0.7l0.2,0.2v-2.7c0-0.4,0.1-0.9,0.7-0.9c0.6,0,0.7,0.4,0.7,0.9v8.2
			c0,0.4-0.1,0.9-0.7,0.9c-0.5,0-0.7-0.4-0.7-0.9v-0.1l-0.3,0.3c-0.4,0.4-0.9,0.7-1.3,0.7h-1.3c-0.4,0-0.9-0.3-1.1-0.5l-0.4-0.4
			c-0.5-0.5-0.7-0.8-0.7-1.5v-2.6c0-0.7,0.2-1,0.7-1.5l0.4-0.4c0.4-0.4,0.7-0.5,1.3-0.5H169z M166.8,114.4c0,0.4,0,0.8,0.2,1
			l0.4,0.3c0.2,0.1,0.3,0.3,0.5,0.3h0.9c0.2,0,0.4-0.1,0.6-0.3l0.7-0.6c0.2-0.2,0.4-0.3,0.4-0.6v-1.6c0-0.2-0.2-0.4-0.4-0.6
			l-0.7-0.6c-0.2-0.2-0.5-0.3-0.6-0.3h-0.9c-0.2,0-0.3,0.1-0.5,0.3l-0.4,0.3c-0.2,0.2-0.2,0.6-0.2,1V114.4z"/>
		<path class="st0" d="M186.3,116.5c0,0.4-0.2,0.7-0.7,0.7s-0.7-0.2-0.7-0.7v-9.9h4.5c0.6,0,1.1,0.1,1.6,0.6c0.6,0.5,0.6,1,0.6,1.8
			v1.9c0,0.7-0.1,1.2-0.6,1.7c-0.5,0.6-1.1,0.7-1.8,0.7h-3V116.5z M186.3,111.9h3c0.8,0,1-0.2,1-1V109c0-0.8-0.2-1-1-1h-3V111.9z"/>
		<path class="st0" d="M198.7,115.9h1c0.4,0,0.9,0.1,0.9,0.7c0,0.6-0.5,0.7-0.9,0.7h-3.3c-0.4,0-0.9-0.1-0.9-0.7
			c0-0.6,0.5-0.7,0.9-0.7h1v-7.4h-1c-0.4,0-0.9-0.1-0.9-0.7c0-0.6,0.5-0.7,0.9-0.7h1.4c0.7,0,1,0.1,1,0.9V115.9z"/>
		<path class="st0" d="M206.8,111.2c-0.4,0-0.9-0.1-0.9-0.7c0-0.6,0.5-0.7,0.9-0.7h1.8c0.7,0,1.2,0.1,1.7,0.6
			c0.5,0.5,0.6,0.9,0.6,1.6l0.1,4.4c0,0.4-0.2,0.8-0.6,0.8c-0.3,0-0.7-0.3-0.7-0.7l-0.9,0.5c-0.4,0.2-0.4,0.2-0.8,0.2h-1.3
			c-0.6,0-1-0.1-1.5-0.5c-0.5-0.4-0.7-0.9-0.7-1.6v-0.6c0-0.6,0.2-1,0.6-1.5c0.4-0.4,1-0.5,1.5-0.5h2.8v-0.3c0-1-0.2-1.1-1.2-1.1
			H206.8z M206.8,113.9c-0.4,0-0.9,0.1-0.9,0.6v0.9c0,0.4,0.5,0.5,0.8,0.5h1.4l1.4-0.7v-0.3c0-0.7-0.2-0.9-0.9-0.9H206.8z"/>
		<path class="st0" d="M219.5,111.5v-0.7c0-0.4,0.1-0.9,0.7-0.9c0.6,0,0.7,0.4,0.7,0.9v0.5c0,0.3,0,0.5-0.2,0.8l-3.3,7.2
			c-0.3,0.6-0.4,0.7-1,0.7h-1c-0.4,0-0.9-0.1-0.9-0.7c0-0.6,0.5-0.7,0.9-0.7h0.9l1-2h-0.1c-0.5,0-0.6-0.2-0.8-0.7l-1.6-3.6
			c-0.2-0.4-0.3-0.7-0.3-1.1v-0.6c0-0.4,0.1-0.9,0.7-0.9c0.6,0,0.7,0.4,0.7,0.9v0.7l1.8,3.9h0.3L219.5,111.5z"/>
		<path class="st0" d="M127.5,132.2h4.7c0.4,0,0.7,0.2,0.7,0.7s-0.3,0.7-0.7,0.7h-6v-4.4c0-1,0.5-1.5,1.5-1.5h3.8v-3.3h-4.7
			c-0.4,0-0.7-0.2-0.7-0.7c0-0.5,0.3-0.7,0.7-0.7h4.5c0.4,0,0.8,0.1,1.1,0.4c0.4,0.4,0.4,0.7,0.4,1.2v2.8c0,0.5,0,0.9-0.4,1.2
			c-0.3,0.3-0.7,0.4-1.1,0.4h-3.8V132.2z"/>
		<path class="st0" d="M141.3,123c0.7,0,1.4,0.6,1.4,1.4v7.9c0,0.8-0.6,1.4-1.4,1.4h-4c-0.8,0-1.4-0.6-1.4-1.4v-7.9
			c0-0.7,0.6-1.4,1.4-1.4H141.3z M141.3,132.2v-7.9h-4v7.9H141.3z"/>
		<path class="st0" d="M151.1,132.2v-2.7c0-0.4,0.2-0.7,0.7-0.7c0.5,0,0.7,0.3,0.7,0.7v3.4c0,0.5-0.3,0.7-0.7,0.7h-5.4
			c-0.4,0-0.7-0.2-0.7-0.7s0.3-0.7,0.7-0.7h2v-7.9h-2c-0.4,0-0.7-0.2-0.7-0.7c0-0.5,0.3-0.7,0.7-0.7h3.4v9.2H151.1z"/>
		<path class="st0" d="M160.9,127.8h-4.7c-0.4,0-0.7-0.3-0.7-0.7v-3.5c0-0.4,0.3-0.7,0.7-0.7h5.4c0.4,0,0.7,0.3,0.7,0.7v9.2
			c0,0.4-0.3,0.7-0.7,0.7h-0.7c-0.4,0-0.7-0.3-0.7-0.7c0-0.4,0.3-0.7,0.7-0.7V127.8z M160.9,126.4v-2.1h-4v2.1H160.9z"/>
	</g>
	<g>
		<g>
			<path class="st0" d="M219.7,192.1c-4.5,3.2-9,6.4-13.5,9.6l0.1,0c-4.3,2.2-8.6,4.4-12.9,6.6c-0.3-0.2-0.6-0.3-0.8-0.5
				c6.3-7.5,7.3-15.5,2.9-24.4c-7,7.7-7.9,15.9-3.5,25.2c-4.9,1.4-9.5,2.6-14.2,3.9c-0.2-0.1-0.4-0.3-0.6-0.4
				c7.4-7.1,9.8-15.3,6.2-25.3c-8.4,7.1-10.4,15.6-6.9,26c-6.1,0.6-12,1.2-18,1.8c0,0.8-0.1,1.7-0.1,3.3c5.3-0.4,10.4-0.6,15.4-1.2
				c2.3-0.3,3.3,0.1,4.4,2.2c4.4,8.4,11.5,12.1,20.9,11.7c-1.4-7.5-8.9-12.9-19.9-14.4c4.6-1.3,9-2.6,13.3-3.6
				c0.6-0.1,1.7,0.9,2.3,1.6c6.2,7.3,13.9,9.6,23.6,7.3c-5.4-7.6-12.2-11.2-19.4-10.2c2.1-1.3,5.5-3.5,9.1-5.5
				c0.5-0.3,1.9,0.4,2.6,1c7.2,5.4,14.9,6.5,23.1,2.8c0.4-0.2,0.8-0.5,1.5-0.9c-6.8-5.9-14.1-8-22.8-5.5c3.6-2.7,7.1-5.3,10.8-8.1
				c8.5,6.1,17.2,7.1,26.6,1.2c-7.7-5.9-15.7-6.8-24.5-3.1c2.8-3.2,5.6-6.3,8.6-9.8c9,4.9,17.9,4.9,26.5-2.2
				c-8.9-5.2-17.2-4.7-25.8,1.4c2.1-3.7,3.7-7,5.7-10.1c0.5-0.7,2.3-0.7,3.5-0.6c9.3,0.9,16.4-2.6,21.5-10.2
				c0.2-0.3,0.3-0.6,0.6-1.1c-9.9-2-17.8,0.8-24.3,8.5c1.2-3.8,2.4-7.6,3.8-11.2c0.3-0.8,1.6-1.4,2.5-1.6
				c9.7-2.4,15.3-8.2,17.5-17.9c-6.1-1.2-14.1,4.7-18.8,13.6c0.4-4.1,0.6-8.1,1.2-12.2c0.1-0.6,1.5-1,2.3-1.4
				c8.8-4.1,13.8-12.4,13-21.4c-7.7,2.8-12.8,8-15.3,15.8c-0.3-3.3-0.7-6.5-0.8-9.8c0-0.7,0.9-1.7,1.6-2.2
				c8.5-5.6,12.3-14.2,10.1-23.4c-7.6,4.1-11.8,10.4-12.8,19c-1.1-4.1-2.2-8.3-3.4-12.7c8.8-6,12.4-14.4,10.1-25.1
				c-6.5,2.2-10.2,9.7-11,21.9c-1.9-4.1-3.9-8.1-5.7-12.2c-0.3-0.7,0.3-2.1,0.9-2.9c5.7-7.8,6-16,1.4-24.8
				c-4.1,4.6-6.4,9.6-6.2,15.6c0.1,2.6,0.5,5.3,0.5,8.1c-5.2-6-11.6-8.2-19.3-6.8c4.1,8.3,11.4,11.6,21.5,10.3
				c1.7,4.1,3.4,8.3,5.3,12.7c-3.1-2.4-5.6-5.1-8.6-6.6c-3-1.5-6.7-1.8-10.4-2.8c2,7.5,8.6,12.8,16.6,13.2c3,0.1,4.1,1.2,4.6,4
				c0.6,3.7,1.5,7.4,2,11.1c-5.2-10.3-12.9-12.9-19.3-12.9c1.7,8.7,7.6,13.6,19.9,16.2c0.2,4.6,0.4,9.2,0.6,13.9
				c-6.2-11.2-10.6-15.1-18.1-15.6c0.4,7.3,5.9,14.2,13.4,16.9c4.5,1.6,4.5,1.6,4,6.4c-0.3,3.1-0.8,6.2-1.6,9.5
				c-1.3-9.3-6.3-15.5-15.3-18.8c0.2,10.7,5.4,17.4,14.9,21.1c-1.5,4.6-2.9,9-4.4,13.3c-0.9-9.3-5.2-15.9-14.2-19.5
				c-0.3,10.1,4.3,16.7,13.5,20.8c-2.2,3.6-4.3,6.9-6.2,10c-1.2-4.1-1.8-8.4-3.5-12.2c-1.8-4-5.3-6.6-9.4-8.4
				c-1.4,9.2,2.1,15.6,11.9,21.7C227.1,185.3,224.1,189.4,219.7,192.1L219.7,192.1z"/>
			<path class="st0" d="M208.4,52.9c0.3,10.3,7.8,18.8,18.1,21C226.5,63.1,218.3,55,208.4,52.9z"/>
			<path class="st0" d="M206.2,201.6c5.3-8.5,4.8-18.6-1.2-24.1C199.7,185.1,200.2,194.6,206.2,201.6
				C206.3,201.6,206.2,201.6,206.2,201.6z"/>
			<path class="st0" d="M219.7,192.1c3.4-8.5,0.8-18-5.9-21.9C210.2,178,212.9,187.8,219.7,192.1
				C219.7,192.1,219.7,192.1,219.7,192.1z"/>
		</g>
		<g>
			<path class="st0" d="M63.7,192.1c4.5,3.2,9,6.4,13.5,9.6l-0.1,0c4.3,2.2,8.6,4.4,12.9,6.6c0.3-0.2,0.6-0.3,0.8-0.5
				c-6.3-7.5-7.3-15.5-2.9-24.4c7,7.7,7.9,15.9,3.5,25.2c4.9,1.4,9.5,2.6,14.2,3.9c0.2-0.1,0.4-0.3,0.6-0.4
				c-7.4-7.1-9.8-15.3-6.2-25.3c8.4,7.1,10.4,15.6,6.9,26c6.1,0.6,12,1.2,18,1.8c0,0.8,0.1,1.7,0.1,3.3c-5.3-0.4-10.4-0.6-15.4-1.2
				c-2.3-0.3-3.3,0.1-4.4,2.2c-4.4,8.4-11.5,12.1-20.9,11.7c1.4-7.5,8.9-12.9,19.9-14.4c-4.6-1.3-9-2.6-13.3-3.6
				c-0.6-0.1-1.7,0.9-2.3,1.6c-6.2,7.3-13.9,9.6-23.6,7.3c5.4-7.6,12.2-11.2,19.4-10.2c-2.1-1.3-5.5-3.5-9.1-5.5
				c-0.5-0.3-1.9,0.4-2.6,1c-7.2,5.4-14.9,6.5-23.1,2.8c-0.4-0.2-0.8-0.5-1.5-0.9c6.8-5.9,14.1-8,22.8-5.5
				c-3.6-2.7-7.1-5.3-10.8-8.1c-8.5,6.1-17.2,7.1-26.6,1.2c7.7-5.9,15.7-6.8,24.5-3.1c-2.8-3.2-5.6-6.3-8.6-9.8
				c-9,4.9-17.9,4.9-26.5-2.2c8.9-5.2,17.2-4.7,25.8,1.4c-2.1-3.7-3.7-7-5.7-10.1c-0.5-0.7-2.3-0.7-3.5-0.6
				c-9.3,0.9-16.4-2.6-21.5-10.2c-0.2-0.3-0.3-0.6-0.6-1.1c9.9-2,17.8,0.8,24.3,8.5c-1.2-3.8-2.4-7.6-3.8-11.2
				c-0.3-0.8-1.6-1.4-2.5-1.6c-9.7-2.4-15.3-8.2-17.5-17.9c6.1-1.2,14.1,4.7,18.8,13.6c-0.4-4.1-0.6-8.1-1.2-12.2
				c-0.1-0.6-1.5-1-2.3-1.4c-8.8-4.1-13.8-12.4-13-21.4c7.7,2.8,12.8,8,15.3,15.8c0.3-3.3,0.7-6.5,0.8-9.8c0-0.7-0.9-1.7-1.6-2.2
				c-8.5-5.6-12.3-14.2-10.1-23.4c7.6,4.1,11.8,10.4,12.8,19c1.1-4.1,2.2-8.3,3.4-12.7c-8.8-6-12.4-14.4-10.1-25.1
				c6.5,2.2,10.2,9.7,11,21.9c1.9-4.1,3.9-8.1,5.7-12.2c0.3-0.7-0.3-2.1-0.9-2.9c-5.7-7.8-6-16-1.4-24.8c4.1,4.6,6.4,9.6,6.2,15.6
				c-0.1,2.6-0.5,5.3-0.5,8.1c5.2-6,11.6-8.2,19.3-6.8c-4.1,8.3-11.4,11.6-21.5,10.3c-1.7,4.1-3.4,8.3-5.3,12.7
				c3.1-2.4,5.6-5.1,8.6-6.6c3-1.5,6.7-1.8,10.4-2.8c-2,7.5-8.6,12.8-16.6,13.2c-3,0.1-4.1,1.2-4.6,4c-0.6,3.7-1.5,7.4-2,11.1
				c5.2-10.3,12.9-12.9,19.3-12.9c-1.7,8.7-7.6,13.6-19.9,16.2c-0.2,4.6-0.4,9.2-0.6,13.9c6.2-11.2,10.6-15.1,18.1-15.6
				c-0.4,7.3-5.9,14.2-13.4,16.9c-4.5,1.6-4.5,1.6-4,6.4c0.3,3.1,0.8,6.2,1.6,9.5c1.3-9.3,6.3-15.5,15.3-18.8
				c-0.2,10.7-5.4,17.4-14.9,21.1c1.5,4.6,2.9,9,4.4,13.3c0.9-9.3,5.2-15.9,14.2-19.5c0.3,10.1-4.3,16.7-13.5,20.8
				c2.2,3.6,4.3,6.9,6.2,10c1.2-4.1,1.8-8.4,3.5-12.2c1.8-4,5.3-6.6,9.4-8.4c1.4,9.2-2.1,15.6-11.9,21.7
				C56.3,185.3,59.3,189.4,63.7,192.1L63.7,192.1z"/>
			<path class="st0" d="M75,52.9c-0.3,10.3-7.8,18.8-18.1,21C56.9,63.1,65.1,55,75,52.9z"/>
			<path class="st0" d="M77.2,201.6c-5.3-8.5-4.8-18.6,1.2-24.1C83.7,185.1,83.2,194.6,77.2,201.6C77.2,201.6,77.2,201.6,77.2,201.6
				z"/>
			<path class="st0" d="M63.8,192.1c-3.4-8.5-0.8-18,5.9-21.9C73.2,178,70.5,187.8,63.8,192.1C63.7,192.1,63.8,192.1,63.8,192.1z"/>
		</g>
	</g>
	<path class="st0" d="M78.8,147.3C78.8,147.3,78.8,147.2,78.8,147.3c0-0.1,0-0.2,0-0.2l0,0h-0.1h0c-0.3,0-0.7,0-1.1,0l0,0
		c-0.4,0-0.7,0-1,0h-0.2h-0.1l0,0c0,0,0,0.1,0,0.1v0.2c0,0.3,0,0.6,0,1s0,0.8,0,1c0,0,0,0.1,0,0.1c0,0,0,0.1,0,0.1l0,0h0.1h0.1
		c0.3,0,0.6,0,1.1,0l0,0c0.4,0,0.8,0,1.1,0h0h0.1l0,0c0,0,0-0.1,0-0.1c0,0,0-0.2,0-0.3c0-0.2,0-0.5,0-0.8
		C78.8,147.9,78.8,147.6,78.8,147.3z"/>
	<path class="st0" d="M82.5,147.3C82.5,147.3,82.5,147.2,82.5,147.3c0-0.1,0-0.2,0-0.2l0,0h-0.1h0c-0.3,0-0.7,0-1.1,0l0,0
		c-0.4,0-0.7,0-1,0h-0.2H80l0,0c0,0,0,0.1,0,0.1c0,0.1,0,0.1,0,0.2c0,0.3,0,0.6,0,1s0,0.8,0,1c0,0,0,0.1,0,0.1c0,0,0,0.1,0,0.1l0,0
		h0.1h0.1c0.3,0,0.6,0,1.1,0l0,0c0.4,0,0.8,0,1.1,0h0h0.1l0,0c0,0,0-0.1,0-0.1c0,0,0-0.2,0-0.3c0-0.2,0-0.5,0-0.8
		C82.5,147.9,82.5,147.6,82.5,147.3z"/>
	<path class="st0" d="M86.2,147.3C86.2,147.3,86.2,147.2,86.2,147.3c0-0.1,0-0.2,0-0.2l0,0h-0.1h0c-0.3,0-0.7,0-1.1,0l0,0
		c-0.4,0-0.7,0-1,0h-0.2h-0.1l0,0c0,0,0,0.1,0,0.1c0,0.1,0,0.1,0,0.2c0,0.3,0,0.6,0,1s0,0.8,0,1c0,0,0,0.1,0,0.1c0,0,0,0.1,0,0.1
		l0,0h0.1h0.1c0.3,0,0.7,0,1.1,0l0,0c0.4,0,0.8,0,1.1,0h0h0.1l0,0c0,0,0-0.1,0-0.1c0,0,0-0.2,0-0.3c0-0.2,0-0.5,0-0.8
		C86.2,147.9,86.2,147.6,86.2,147.3z"/>
	<path class="st0" d="M89.9,147.3C89.9,147.3,89.9,147.2,89.9,147.3c0-0.1,0-0.2,0-0.2l0,0h-0.1l0,0c-0.3,0-0.7,0-1.1,0l0,0
		c-0.4,0-0.7,0-1,0h-0.2h-0.1l0,0c0,0,0,0.1,0,0.1v0.2c0,0.3,0,0.6,0,1s0,0.8,0,1c0,0,0,0.1,0,0.1c0,0,0,0.1,0,0.1l0,0h0.1h0.1
		c0.3,0,0.6,0,1.1,0l0,0c0.4,0,0.8,0,1.1,0h0h0.1l0,0c0,0,0-0.1,0-0.1c0,0,0-0.2,0-0.3c0-0.2,0-0.5,0-0.8
		C89.9,147.9,89.9,147.6,89.9,147.3z"/>
	<path class="st0" d="M93.6,147.3C93.6,147.3,93.6,147.2,93.6,147.3c0-0.1,0-0.2,0-0.2l0,0h-0.1h0c-0.3,0-0.7,0-1.1,0l0,0
		c-0.4,0-0.7,0-1,0h-0.2h-0.1l0,0c0,0,0,0.1,0,0.1c0,0,0,0.1,0,0.2c0,0.3,0,0.6,0,1s0,0.8,0,1c0,0,0,0.1,0,0.1c0,0,0,0.1,0,0.1l0,0
		h0.1h0.1c0.3,0,0.6,0,1.1,0l0,0c0.4,0,0.8,0,1.1,0h0h0.1l0,0c0,0,0-0.1,0-0.1c0,0,0-0.2,0-0.3c0-0.2,0-0.5,0-0.8
		C93.6,147.9,93.6,147.6,93.6,147.3z"/>
	<path class="st0" d="M101,147.3C101,147.3,101,147.2,101,147.3c0-0.1,0-0.2,0-0.2l0,0h-0.1l0,0c-0.3,0-0.7,0-1.1,0l0,0
		c-0.4,0-0.7,0-1,0h-0.2h-0.1l0,0c0,0,0,0.1,0,0.1v0.2c0,0.3,0,0.6,0,1s0,0.8,0,1c0,0,0,0.1,0,0.1c0,0,0,0.1,0,0.1l0,0h0.1h0.1
		c0.3,0,0.6,0,1.1,0l0,0c0.4,0,0.8,0,1.1,0h0h0.1l0,0c0,0,0-0.1,0-0.1c0-0.1,0-0.2,0-0.3c0-0.2,0-0.5,0-0.8
		C101,147.9,101,147.6,101,147.3z"/>
	<path class="st0" d="M104.7,147.3C104.7,147.3,104.7,147.2,104.7,147.3c0-0.1,0-0.2,0-0.2l0,0h-0.1h0c-0.3,0-0.7,0-1.1,0l0,0
		c-0.4,0-0.7,0-1,0h-0.2h-0.1l0,0c0,0,0,0.1,0,0.1c0,0,0,0.1,0,0.2c0,0.3,0,0.6,0,1s0,0.8,0,1c0,0,0,0.1,0,0.1c0,0,0,0.1,0,0.1l0,0
		h0.1h0.1c0.3,0,0.6,0,1.1,0l0,0c0.4,0,0.8,0,1.1,0h0h0.1l0,0c0,0,0-0.1,0-0.1c0,0,0-0.2,0-0.3c0-0.2,0-0.5,0-0.8
		C104.7,147.9,104.7,147.6,104.7,147.3z"/>
	<path class="st0" d="M108.4,147.3C108.4,147.3,108.4,147.2,108.4,147.3c0-0.1,0-0.2,0-0.2l0,0h-0.1h0c-0.3,0-0.7,0-1.1,0l0,0
		c-0.4,0-0.7,0-1,0H106h-0.1l0,0c0,0,0,0.1,0,0.1c0,0.1,0,0.1,0,0.2c0,0.3,0,0.6,0,1s0,0.8,0,1c0,0,0,0.1,0,0.1c0,0,0,0.1,0,0.1l0,0
		h0.1h0.1c0.3,0,0.6,0,1.1,0l0,0c0.4,0,0.8,0,1.1,0h0h0.1l0,0c0,0,0-0.1,0-0.1c0,0,0-0.2,0-0.3c0-0.2,0-0.5,0-0.8
		C108.4,147.9,108.4,147.6,108.4,147.3z"/>
	<path class="st0" d="M112.1,147.3C112.1,147.3,112.1,147.2,112.1,147.3c0-0.1,0-0.2,0-0.2l0,0H112l0,0c-0.3,0-0.7,0-1.1,0l0,0
		c-0.4,0-0.7,0-1,0h-0.2h-0.1l0,0c0,0,0,0.1,0,0.1c0,0.1,0,0.1,0,0.2c0,0.3,0,0.6,0,1s0,0.8,0,1c0,0,0,0.1,0,0.1c0,0,0,0.1,0,0.1
		l0,0h0.1h0.1c0.3,0,0.6,0,1.1,0l0,0c0.4,0,0.8,0,1.1,0h0h0.1l0,0c0,0,0-0.1,0-0.1c0,0,0-0.2,0-0.3c0-0.2,0-0.5,0-0.8
		C112.1,147.9,112.1,147.6,112.1,147.3z"/>
	<path class="st0" d="M119.5,147.3C119.5,147.3,119.5,147.2,119.5,147.3c0-0.1,0-0.2,0-0.2l0,0h-0.1h0c-0.3,0-0.7,0-1.1,0l0,0
		c-0.4,0-0.7,0-1,0h-0.2H117l0,0c0,0,0,0.1,0,0.1c0,0.1,0,0.1,0,0.2c0,0.3,0,0.6,0,1s0,0.8,0,1c0,0,0,0.1,0,0.1c0,0,0,0.1,0,0.1l0,0
		h0.1h0.1c0.3,0,0.6,0,1.1,0l0,0c0.4,0,0.8,0,1.1,0h0h0.1l0,0c0,0,0-0.1,0-0.1c0-0.1,0-0.2,0-0.3c0-0.2,0-0.5,0-0.8
		C119.5,147.9,119.5,147.6,119.5,147.3z"/>
	<path class="st0" d="M130.6,147.3C130.6,147.3,130.6,147.2,130.6,147.3c0-0.1,0-0.2,0-0.2l0,0h-0.1l0,0c-0.3,0-0.7,0-1.1,0l0,0
		c-0.4,0-0.7,0-1,0h-0.2h-0.1l0,0c0,0,0,0.1,0,0.1c0,0.1,0,0.1,0,0.2c0,0.3,0,0.6,0,1s0,0.8,0,1c0,0,0,0.1,0,0.1c0,0,0,0.1,0,0.1
		l0,0h0.1h0.1c0.3,0,0.6,0,1.1,0l0,0c0.4,0,0.8,0,1.1,0h0h0.1l0,0c0,0,0-0.1,0-0.1c0-0.1,0-0.2,0-0.3c0-0.2,0-0.5,0-0.8
		C130.6,147.9,130.6,147.6,130.6,147.3z"/>
	<path class="st0" d="M138,147.3C138,147.3,138,147.2,138,147.3c0-0.1,0-0.2,0-0.2l0,0h-0.1h0c-0.3,0-0.7,0-1.1,0l0,0
		c-0.4,0-0.7,0-1,0h-0.2h-0.1l0,0c0,0,0,0.1,0,0.1c0,0,0,0.1,0,0.2c0,0.3,0,0.6,0,1s0,0.8,0,1c0,0,0,0.1,0,0.1c0,0,0,0.1,0,0.1l0,0
		h0.1h0.1c0.3,0,0.6,0,1.1,0l0,0c0.4,0,0.8,0,1.1,0h0h0.1l0,0c0,0,0-0.1,0-0.1c0-0.1,0-0.2,0-0.3c0-0.2,0-0.5,0-0.8
		C138,147.9,138,147.6,138,147.3z"/>
	<path class="st0" d="M141.7,147.3C141.7,147.3,141.7,147.2,141.7,147.3c0-0.1,0-0.2,0-0.2l0,0h-0.1l0,0c-0.3,0-0.7,0-1.1,0l0,0
		c-0.4,0-0.7,0-1,0h-0.2h-0.1l0,0c0,0,0,0.1,0,0.1c0,0.1,0,0.1,0,0.2c0,0.3,0,0.6,0,1s0,0.8,0,1c0,0,0,0.1,0,0.1c0,0,0,0.1,0,0.1
		l0,0h0.1h0.1c0.3,0,0.6,0,1.1,0l0,0c0.4,0,0.8,0,1.1,0h0h0.1l0,0c0,0,0-0.1,0-0.1c0-0.1,0-0.2,0-0.3c0-0.2,0-0.5,0-0.8
		C141.7,147.9,141.7,147.6,141.7,147.3z"/>
	<path class="st0" d="M145.4,147.3C145.4,147.3,145.4,147.2,145.4,147.3c0-0.1,0-0.2,0-0.2l0,0h-0.1h0c-0.3,0-0.7,0-1.1,0l0,0
		c-0.4,0-0.7,0-1,0H143h-0.1l0,0c0,0,0,0.1,0,0.1c0,0.1,0,0.1,0,0.2c0,0.3,0,0.6,0,1s0,0.8,0,1c0,0,0,0.1,0,0.1c0,0,0,0.1,0,0.1l0,0
		h0.1h0c0.3,0,0.6,0,1.1,0l0,0c0.4,0,0.8,0,1.1,0h0h0.1l0,0c0,0,0-0.1,0-0.1c0,0,0-0.2,0-0.3c0-0.2,0-0.5,0-0.8
		C145.4,147.9,145.4,147.6,145.4,147.3z"/>
	<path class="st0" d="M149.1,147.3C149.1,147.3,149.1,147.2,149.1,147.3c0-0.1,0-0.2,0-0.2l0,0H149h0c-0.3,0-0.7,0-1.1,0l0,0
		c-0.4,0-0.7,0-1,0h-0.2h-0.1l0,0c0,0,0,0.1,0,0.1c0,0,0,0.1,0,0.2c0,0.3,0,0.6,0,1s0,0.8,0,1c0,0,0,0.1,0,0.1c0,0,0,0.1,0,0.1l0,0
		h0.1h0.1c0.3,0,0.6,0,1.1,0l0,0c0.4,0,0.8,0,1.1,0h0h0.1l0,0c0,0,0-0.1,0-0.1c0-0.1,0-0.2,0-0.3c0-0.2,0-0.5,0-0.8
		C149.1,147.9,149.1,147.6,149.1,147.3z"/>
	<path class="st0" d="M156.5,147.3C156.5,147.3,156.5,147.2,156.5,147.3c0-0.1,0-0.2,0-0.2l0,0h-0.1l0,0c-0.3,0-0.7,0-1.1,0l0,0
		c-0.4,0-0.7,0-1,0h-0.2h-0.1l0,0c0,0,0,0.1,0,0.1c0,0,0,0.1,0,0.2c0,0.3,0,0.6,0,1s0,0.8,0,1c0,0,0,0.1,0,0.1c0,0,0,0.1,0,0.1l0,0
		h0.1h0.1c0.3,0,0.6,0,1.1,0l0,0c0.4,0,0.8,0,1.1,0h0h0.1l0,0c0,0,0-0.1,0-0.1c0,0,0-0.2,0-0.3c0-0.2,0-0.5,0-0.8
		C156.5,147.9,156.5,147.6,156.5,147.3z"/>
	<path class="st0" d="M86.2,151C86.2,151,86.2,150.9,86.2,151c0-0.1,0-0.2,0-0.2l0,0h-0.1h0c-0.3,0-0.7,0-1.1,0l0,0
		c-0.4,0-0.7,0-1,0h-0.2h-0.1l0,0c0,0,0,0.1,0,0.1c0,0.1,0,0.1,0,0.2c0,0.3,0,0.6,0,1s0,0.8,0,1c0,0,0,0.1,0,0.1s0,0.1,0,0.1l0,0
		h0.1h0.1c0.3,0,0.7,0,1.1,0l0,0c0.4,0,0.8,0,1.1,0h0h0.1l0,0c0,0,0-0.1,0-0.1s0-0.2,0-0.3c0-0.2,0-0.5,0-0.8
		C86.2,151.6,86.2,151.3,86.2,151z"/>
	<path class="st0" d="M101,151C101,151,101,150.9,101,151c0-0.1,0-0.2,0-0.2l0,0h-0.1l0,0c-0.3,0-0.7,0-1.1,0l0,0c-0.4,0-0.7,0-1,0
		h-0.2h-0.1l0,0c0,0,0,0.1,0,0.1s0,0.1,0,0.2c0,0.3,0,0.6,0,1s0,0.8,0,1c0,0,0,0.1,0,0.1s0,0.1,0,0.1l0,0h0.1h0.1c0.3,0,0.6,0,1.1,0
		l0,0c0.4,0,0.8,0,1.1,0h0h0.1l0,0c0,0,0-0.1,0-0.1c0-0.1,0-0.2,0-0.3c0-0.2,0-0.5,0-0.8C101,151.6,101,151.3,101,151z"/>
	<path class="st0" d="M119.5,151C119.5,151,119.5,150.9,119.5,151c0-0.1,0-0.2,0-0.2l0,0h-0.1h0c-0.3,0-0.7,0-1.1,0l0,0
		c-0.4,0-0.7,0-1,0h-0.2H117l0,0c0,0,0,0.1,0,0.1c0,0.1,0,0.1,0,0.2c0,0.3,0,0.6,0,1s0,0.8,0,1c0,0,0,0.1,0,0.1c0,0,0,0.1,0,0.1l0,0
		h0.1h0.1c0.3,0,0.6,0,1.1,0l0,0c0.4,0,0.8,0,1.1,0h0h0.1l0,0c0,0,0-0.1,0-0.1c0-0.1,0-0.2,0-0.3c0-0.2,0-0.5,0-0.8
		C119.5,151.6,119.5,151.3,119.5,151z"/>
	<path class="st0" d="M126.9,151C126.9,151,126.9,150.9,126.9,151c0-0.1,0-0.2,0-0.2l0,0h-0.1h0c-0.3,0-0.7,0-1.1,0l0,0
		c-0.4,0-0.7,0-1,0h-0.2h-0.1l0,0c0,0,0,0.1,0,0.1s0,0.1,0,0.2c0,0.3,0,0.6,0,1s0,0.8,0,1c0,0,0,0.1,0,0.1s0,0.1,0,0.1l0,0h0.1h0.1
		c0.3,0,0.6,0,1.1,0l0,0c0.4,0,0.8,0,1.1,0h0h0.1l0,0c0,0,0-0.1,0-0.1s0-0.2,0-0.3c0-0.2,0-0.5,0-0.8
		C126.9,151.6,126.9,151.3,126.9,151z"/>
	<path class="st0" d="M138,151C138,151,138,150.9,138,151c0-0.1,0-0.2,0-0.2l0,0h-0.1h0c-0.3,0-0.7,0-1.1,0l0,0c-0.4,0-0.7,0-1,0
		h-0.2h-0.1l0,0c0,0,0,0.1,0,0.1s0,0.1,0,0.2c0,0.3,0,0.6,0,1s0,0.8,0,1c0,0,0,0.1,0,0.1s0,0.1,0,0.1l0,0h0.1h0.1c0.3,0,0.6,0,1.1,0
		l0,0c0.4,0,0.8,0,1.1,0h0h0.1l0,0c0,0,0-0.1,0-0.1c0-0.1,0-0.2,0-0.3c0-0.2,0-0.5,0-0.8C138,151.6,138,151.3,138,151z"/>
	<path class="st0" d="M149.1,151C149.1,151,149.1,150.9,149.1,151c0-0.1,0-0.2,0-0.2l0,0H149h0c-0.3,0-0.7,0-1.1,0l0,0
		c-0.4,0-0.7,0-1,0h-0.2h-0.1l0,0c0,0,0,0.1,0,0.1s0,0.1,0,0.2c0,0.3,0,0.6,0,1s0,0.8,0,1c0,0,0,0.1,0,0.1s0,0.1,0,0.1l0,0h0.1h0.1
		c0.3,0,0.6,0,1.1,0l0,0c0.4,0,0.8,0,1.1,0h0h0.1l0,0c0,0,0-0.1,0-0.1c0-0.1,0-0.2,0-0.3c0-0.2,0-0.5,0-0.8
		C149.1,151.6,149.1,151.3,149.1,151z"/>
	<path class="st0" d="M156.5,151C156.5,151,156.5,150.9,156.5,151c0-0.1,0-0.2,0-0.2l0,0h-0.1l0,0c-0.3,0-0.7,0-1.1,0l0,0
		c-0.4,0-0.7,0-1,0h-0.2h-0.1l0,0c0,0,0,0.1,0,0.1s0,0.1,0,0.2c0,0.3,0,0.6,0,1s0,0.8,0,1c0,0,0,0.1,0,0.1s0,0.1,0,0.1l0,0h0.1h0.1
		c0.3,0,0.6,0,1.1,0l0,0c0.4,0,0.8,0,1.1,0h0h0.1l0,0c0,0,0-0.1,0-0.1s0-0.2,0-0.3c0-0.2,0-0.5,0-0.8
		C156.5,151.6,156.5,151.3,156.5,151z"/>
	<path class="st0" d="M86.2,154.7C86.2,154.7,86.2,154.6,86.2,154.7c0-0.1,0-0.2,0-0.2l0,0h-0.1h0c-0.3,0-0.7,0-1.1,0l0,0
		c-0.4,0-0.7,0-1,0h-0.2h-0.1l0,0c0,0,0,0.1,0,0.1c0,0.1,0,0.1,0,0.2c0,0.3,0,0.6,0,1s0,0.8,0,1c0,0,0,0.1,0,0.1s0,0.1,0,0.1l0,0
		h0.1h0.1c0.3,0,0.7,0,1.1,0l0,0c0.4,0,0.8,0,1.1,0h0h0.1l0,0c0,0,0-0.1,0-0.1s0-0.2,0-0.3c0-0.2,0-0.5,0-0.8
		C86.2,155.3,86.2,155,86.2,154.7z"/>
	<path class="st0" d="M101,154.7C101,154.7,101,154.7,101,154.7c0-0.1,0-0.2,0-0.2l0,0h-0.1l0,0c-0.3,0-0.7,0-1.1,0l0,0
		c-0.4,0-0.7,0-1,0h-0.2h-0.1l0,0c0,0,0,0.1,0,0.1c0,0,0,0.1,0,0.2c0,0.3,0,0.6,0,1s0,0.8,0,1c0,0,0,0.1,0,0.1s0,0.1,0,0.1l0,0h0.1
		h0.1c0.3,0,0.6,0,1.1,0l0,0c0.4,0,0.8,0,1.1,0h0h0.1l0,0c0,0,0-0.1,0-0.1c0-0.1,0-0.2,0-0.3c0-0.2,0-0.5,0-0.8
		C101,155.3,101,155,101,154.7z"/>
	<path class="st0" d="M104.7,154.7C104.7,154.7,104.7,154.7,104.7,154.7c0-0.1,0-0.2,0-0.2l0,0h-0.1h0c-0.3,0-0.7,0-1.1,0l0,0
		c-0.4,0-0.7,0-1,0h-0.2h-0.1l0,0c0,0,0,0.1,0,0.1c0,0,0,0.1,0,0.2c0,0.3,0,0.6,0,1s0,0.8,0,1c0,0,0,0.1,0,0.1s0,0.1,0,0.1l0,0h0.1
		h0.1c0.3,0,0.6,0,1.1,0l0,0c0.4,0,0.8,0,1.1,0h0h0.1l0,0c0,0,0-0.1,0-0.1s0-0.2,0-0.3c0-0.2,0-0.5,0-0.8
		C104.7,155.3,104.7,155,104.7,154.7z"/>
	<path class="st0" d="M108.4,154.7C108.4,154.7,108.4,154.6,108.4,154.7c0-0.1,0-0.2,0-0.2l0,0h-0.1h0c-0.3,0-0.7,0-1.1,0l0,0
		c-0.4,0-0.7,0-1,0H106h-0.1l0,0c0,0,0,0.1,0,0.1c0,0.1,0,0.1,0,0.2c0,0.3,0,0.6,0,1s0,0.8,0,1c0,0,0,0.1,0,0.1c0,0,0,0.1,0,0.1l0,0
		h0.1h0.1c0.3,0,0.6,0,1.1,0l0,0c0.4,0,0.8,0,1.1,0h0h0.1l0,0c0,0,0-0.1,0-0.1s0-0.2,0-0.3c0-0.2,0-0.5,0-0.8
		C108.4,155.3,108.4,155,108.4,154.7z"/>
	<path class="st0" d="M112.1,154.7C112.1,154.7,112.1,154.7,112.1,154.7c0-0.1,0-0.2,0-0.2l0,0H112l0,0c-0.3,0-0.7,0-1.1,0l0,0
		c-0.4,0-0.7,0-1,0h-0.2h-0.1l0,0c0,0,0,0.1,0,0.1c0,0,0,0.1,0,0.2c0,0.3,0,0.6,0,1s0,0.8,0,1c0,0,0,0.1,0,0.1c0,0,0,0.1,0,0.1l0,0
		h0.1h0.1c0.3,0,0.6,0,1.1,0l0,0c0.4,0,0.8,0,1.1,0h0h0.1l0,0c0,0,0-0.1,0-0.1s0-0.2,0-0.3c0-0.2,0-0.5,0-0.8
		C112.1,155.3,112.1,155,112.1,154.7z"/>
	<path class="st0" d="M119.5,154.7C119.5,154.7,119.5,154.6,119.5,154.7c0-0.1,0-0.2,0-0.2l0,0h-0.1h0c-0.3,0-0.7,0-1.1,0l0,0
		c-0.4,0-0.7,0-1,0h-0.2H117l0,0c0,0,0,0.1,0,0.1c0,0.1,0,0.1,0,0.2c0,0.3,0,0.6,0,1s0,0.8,0,1c0,0,0,0.1,0,0.1c0,0,0,0.1,0,0.1l0,0
		h0.1h0.1c0.3,0,0.6,0,1.1,0l0,0c0.4,0,0.8,0,1.1,0h0h0.1l0,0c0,0,0-0.1,0-0.1c0-0.1,0-0.2,0-0.3c0-0.2,0-0.5,0-0.8
		C119.5,155.3,119.5,155,119.5,154.7z"/>
	<path class="st0" d="M123.2,154.7C123.2,154.7,123.2,154.6,123.2,154.7c0-0.1,0-0.2,0-0.2l0,0h-0.1l0,0c-0.3,0-0.7,0-1.1,0l0,0
		c-0.4,0-0.7,0-1,0h-0.2h-0.1l0,0c0,0,0,0.1,0,0.1c0,0,0,0.1,0,0.2c0,0.3,0,0.6,0,1s0,0.8,0,1c0,0,0,0.1,0,0.1s0,0.1,0,0.1l0,0h0.1
		h0.1c0.3,0,0.6,0,1.1,0l0,0c0.4,0,0.8,0,1.1,0h0h0.1l0,0c0,0,0-0.1,0-0.1s0-0.2,0-0.3c0-0.2,0-0.5,0-0.8
		C123.2,155.3,123.2,155,123.2,154.7z"/>
	<path class="st0" d="M138,154.7C138,154.7,138,154.7,138,154.7c0-0.1,0-0.2,0-0.2l0,0h-0.1h0c-0.3,0-0.7,0-1.1,0l0,0
		c-0.4,0-0.7,0-1,0h-0.2h-0.1l0,0c0,0,0,0.1,0,0.1c0,0,0,0.1,0,0.2c0,0.3,0,0.6,0,1s0,0.8,0,1c0,0,0,0.1,0,0.1s0,0.1,0,0.1l0,0h0.1
		h0.1c0.3,0,0.6,0,1.1,0l0,0c0.4,0,0.8,0,1.1,0h0h0.1l0,0c0,0,0-0.1,0-0.1c0-0.1,0-0.2,0-0.3c0-0.2,0-0.5,0-0.8
		C138,155.3,138,155,138,154.7z"/>
	<path class="st0" d="M149.1,154.7C149.1,154.7,149.1,154.6,149.1,154.7c0-0.1,0-0.2,0-0.2l0,0H149h0c-0.3,0-0.7,0-1.1,0l0,0
		c-0.4,0-0.7,0-1,0h-0.2h-0.1l0,0c0,0,0,0.1,0,0.1c0,0,0,0.1,0,0.2c0,0.3,0,0.6,0,1s0,0.8,0,1c0,0,0,0.1,0,0.1s0,0.1,0,0.1l0,0h0.1
		h0.1c0.3,0,0.6,0,1.1,0l0,0c0.4,0,0.8,0,1.1,0h0h0.1l0,0c0,0,0-0.1,0-0.1c0-0.1,0-0.2,0-0.3c0-0.2,0-0.5,0-0.8
		C149.1,155.3,149.1,155,149.1,154.7z"/>
	<path class="st0" d="M156.5,154.7C156.5,154.7,156.5,154.7,156.5,154.7c0-0.1,0-0.2,0-0.2l0,0h-0.1l0,0c-0.3,0-0.7,0-1.1,0l0,0
		c-0.4,0-0.7,0-1,0h-0.2h-0.1l0,0c0,0,0,0.1,0,0.1c0,0,0,0.1,0,0.2c0,0.3,0,0.6,0,1s0,0.8,0,1c0,0,0,0.1,0,0.1s0,0.1,0,0.1l0,0h0.1
		h0.1c0.3,0,0.6,0,1.1,0l0,0c0.4,0,0.8,0,1.1,0h0h0.1l0,0c0,0,0-0.1,0-0.1s0-0.2,0-0.3c0-0.2,0-0.5,0-0.8
		C156.5,155.3,156.5,155,156.5,154.7z"/>
	<path class="st0" d="M130.6,162.1C130.6,162.1,130.6,162.1,130.6,162.1c0-0.1,0-0.2,0-0.2l0,0h-0.1l0,0c-0.3,0-0.7,0-1.1,0l0,0
		c-0.4,0-0.7,0-1,0h-0.2h-0.1l0,0c0,0,0,0.1,0,0.1c0,0.1,0,0.1,0,0.2c0,0.3,0,0.6,0,1s0,0.8,0,1c0,0,0,0.1,0,0.1c0,0,0,0.1,0,0.1
		l0,0h0.1h0.1c0.3,0,0.6,0,1.1,0l0,0c0.4,0,0.8,0,1.1,0h0h0.1l0,0c0,0,0-0.1,0-0.1c0-0.1,0-0.2,0-0.3c0-0.2,0-0.5,0-0.8
		C130.6,162.7,130.6,162.4,130.6,162.1z"/>
	<path class="st0" d="M163.9,147.3C163.9,147.3,163.9,147.2,163.9,147.3c0-0.1,0-0.2,0-0.2l0,0h-0.1h0c-0.3,0-0.7,0-1.1,0l0,0
		c-0.4,0-0.7,0-1,0h-0.2h-0.1l0,0c0,0,0,0.1,0,0.1c0,0.1,0,0.1,0,0.2c0,0.3,0,0.6,0,1s0,0.8,0,1c0,0,0,0.1,0,0.1c0,0,0,0.1,0,0.1
		l0,0h0.1h0.1c0.3,0,0.6,0,1.1,0l0,0c0.4,0,0.8,0,1.1,0h0h0.1l0,0c0,0,0-0.1,0-0.1c0,0,0-0.2,0-0.3c0-0.2,0-0.5,0-0.8
		C163.9,147.9,163.9,147.6,163.9,147.3z"/>
	<path class="st0" d="M167.6,147.3C167.6,147.3,167.6,147.2,167.6,147.3c0-0.1,0-0.2,0-0.2l0,0h-0.1h0c-0.3,0-0.7,0-1.1,0l0,0
		c-0.4,0-0.7,0-1,0h-0.2h-0.1l0,0c0,0,0,0.1,0,0.1v0.2c0,0.3,0,0.6,0,1s0,0.8,0,1c0,0,0,0.1,0,0.1c0,0,0,0.1,0,0.1l0,0h0.1h0
		c0.3,0,0.6,0,1.1,0l0,0c0.4,0,0.8,0,1.1,0h0h0.1l0,0c0,0,0-0.1,0-0.1c0-0.1,0-0.2,0-0.3c0-0.2,0-0.5,0-0.8
		C167.6,147.9,167.6,147.6,167.6,147.3z"/>
	<path class="st0" d="M171.3,147.3C171.3,147.3,171.3,147.2,171.3,147.3c0-0.1,0-0.2,0-0.2l0,0h-0.1h0c-0.3,0-0.7,0-1.1,0l0,0
		c-0.4,0-0.7,0-1,0h-0.2h-0.1l0,0c0,0,0,0.1,0,0.1c0,0,0,0.1,0,0.2c0,0.3,0,0.6,0,1s0,0.8,0,1c0,0,0,0.1,0,0.1c0,0,0,0.1,0,0.1l0,0
		h0.1h0.1c0.3,0,0.6,0,1.1,0l0,0c0.4,0,0.8,0,1.1,0h0h0.1l0,0c0,0,0-0.1,0-0.1c0,0,0-0.2,0-0.3c0-0.2,0-0.5,0-0.8
		C171.3,147.9,171.3,147.6,171.3,147.3z"/>
	<path class="st0" d="M175,147.3C175,147.3,175,147.2,175,147.3c0-0.1,0-0.2,0-0.2l0,0h-0.1l0,0c-0.3,0-0.7,0-1.1,0l0,0
		c-0.4,0-0.7,0-1,0h-0.2h-0.1l0,0c0,0,0,0.1,0,0.1c0,0.1,0,0.1,0,0.2c0,0.3,0,0.6,0,1s0,0.8,0,1c0,0,0,0.1,0,0.1c0,0,0,0.1,0,0.1
		l0,0h0.1h0.1c0.3,0,0.6,0,1.1,0l0,0c0.4,0,0.8,0,1.1,0h0h0.1l0,0c0,0,0-0.1,0-0.1c0,0,0-0.2,0-0.3c0-0.2,0-0.5,0-0.8
		C175,147.9,175,147.6,175,147.3z"/>
	<path class="st0" d="M182.4,147.3C182.4,147.3,182.4,147.2,182.4,147.3c0-0.1,0-0.2,0-0.2l0,0h-0.1h0c-0.3,0-0.7,0-1.1,0l0,0
		c-0.4,0-0.7,0-1,0h-0.2h-0.1l0,0c0,0,0,0.1,0,0.1c0,0,0,0.1,0,0.2c0,0.3,0,0.6,0,1s0,0.8,0,1c0,0,0,0.1,0,0.1c0,0,0,0.1,0,0.1l0,0
		h0.1h0.1c0.3,0,0.6,0,1.1,0l0,0c0.4,0,0.8,0,1.1,0h0h0.1l0,0c0,0,0-0.1,0-0.1c0,0,0-0.2,0-0.3c0-0.2,0-0.5,0-0.8
		C182.4,147.9,182.4,147.6,182.4,147.3z"/>
	<path class="st0" d="M193.5,147.3C193.5,147.3,193.5,147.2,193.5,147.3c0-0.1,0-0.2,0-0.2l0,0h-0.1h0c-0.3,0-0.7,0-1.1,0l0,0
		c-0.4,0-0.7,0-1,0h-0.2h-0.1l0,0c0,0,0,0.1,0,0.1c0,0,0,0.1,0,0.2c0,0.3,0,0.6,0,1s0,0.8,0,1c0,0,0,0.1,0,0.1c0,0,0,0.1,0,0.1l0,0
		h0.1h0.1c0.3,0,0.6,0,1.1,0l0,0c0.4,0,0.8,0,1.1,0h0h0.1l0,0c0,0,0-0.1,0-0.1c0,0,0-0.2,0-0.3c0-0.2,0-0.5,0-0.8
		C193.6,147.9,193.5,147.6,193.5,147.3z"/>
	<path class="st0" d="M200.9,147.3C200.9,147.3,200.9,147.2,200.9,147.3c0-0.1,0-0.2,0-0.2l0,0h-0.1h0c-0.3,0-0.7,0-1.1,0l0,0
		c-0.4,0-0.7,0-1,0h-0.2h-0.1l0,0c0,0,0,0.1,0,0.1v0.2c0,0.3,0,0.6,0,1s0,0.8,0,1c0,0,0,0.1,0,0.1c0,0,0,0.1,0,0.1l0,0h0.1h0.1
		c0.3,0,0.6,0,1.1,0l0,0c0.4,0,0.8,0,1.1,0h0h0.1l0,0c0,0,0-0.1,0-0.1c0,0,0-0.2,0-0.3c0-0.2,0-0.5,0-0.8
		C201,147.9,201,147.6,200.9,147.3z"/>
	<path class="st0" d="M204.6,147.3C204.6,147.3,204.6,147.2,204.6,147.3c0-0.1,0-0.2,0-0.2l0,0h-0.1h0c-0.3,0-0.7,0-1.1,0l0,0
		c-0.4,0-0.7,0-1,0h-0.2h-0.1l0,0c0,0,0,0.1,0,0.1c0,0.1,0,0.1,0,0.2c0,0.3,0,0.6,0,1s0,0.8,0,1c0,0,0,0.1,0,0.1c0,0,0,0.1,0,0.1
		l0,0h0.1h0.1c0.3,0,0.6,0,1.1,0l0,0c0.4,0,0.8,0,1.1,0h0h0.1l0,0c0,0,0-0.1,0-0.1c0-0.1,0-0.2,0-0.3c0-0.2,0-0.5,0-0.8
		C204.7,147.9,204.7,147.6,204.6,147.3z"/>
	<path class="st0" d="M208.3,147.3C208.3,147.3,208.3,147.2,208.3,147.3c0-0.1,0-0.2,0-0.2l0,0h-0.1l0,0c-0.3,0-0.7,0-1.1,0l0,0
		c-0.4,0-0.7,0-1,0H206h-0.1l0,0c0,0,0,0.1,0,0.1c0,0.1,0,0.1,0,0.2c0,0.3,0,0.6,0,1s0,0.8,0,1c0,0,0,0.1,0,0.1c0,0,0,0.1,0,0.1l0,0
		h0.1h0.1c0.3,0,0.6,0,1.1,0l0,0c0.4,0,0.8,0,1.1,0h0h0.1l0,0c0,0,0-0.1,0-0.1c0,0,0-0.2,0-0.3c0-0.2,0-0.5,0-0.8
		C208.4,147.9,208.4,147.6,208.3,147.3z"/>
	<path class="st0" d="M212,147.3C212,147.3,212,147.2,212,147.3c0-0.1,0-0.2,0-0.2l0,0h-0.1h0c-0.3,0-0.7,0-1.1,0l0,0
		c-0.4,0-0.7,0-1,0h-0.2h-0.1l0,0c0,0,0,0.1,0,0.1c0,0.1,0,0.1,0,0.2c0,0.3,0,0.6,0,1s0,0.8,0,1c0,0,0,0.1,0,0.1c0,0,0,0.1,0,0.1
		l0,0h0.1h0.1c0.3,0,0.6,0,1.1,0l0,0c0.4,0,0.8,0,1.1,0h0h0.1l0,0c0,0,0-0.1,0-0.1c0,0,0-0.2,0-0.3c0-0.2,0-0.5,0-0.8
		C212.1,147.9,212.1,147.6,212,147.3z"/>
	<path class="st0" d="M163.9,151C163.9,151,163.9,150.9,163.9,151c0-0.1,0-0.2,0-0.2l0,0h-0.1h0c-0.3,0-0.7,0-1.1,0l0,0
		c-0.4,0-0.7,0-1,0h-0.2h-0.1l0,0c0,0,0,0.1,0,0.1c0,0.1,0,0.1,0,0.2c0,0.3,0,0.6,0,1s0,0.8,0,1c0,0,0,0.1,0,0.1s0,0.1,0,0.1l0,0
		h0.1h0.1c0.3,0,0.6,0,1.1,0l0,0c0.4,0,0.8,0,1.1,0h0h0.1l0,0c0,0,0-0.1,0-0.1s0-0.2,0-0.3c0-0.2,0-0.5,0-0.8
		C163.9,151.6,163.9,151.3,163.9,151z"/>
	<path class="st0" d="M182.4,151C182.4,151,182.4,150.9,182.4,151c0-0.1,0-0.2,0-0.2l0,0h-0.1h0c-0.3,0-0.7,0-1.1,0l0,0
		c-0.4,0-0.7,0-1,0h-0.2h-0.1l0,0c0,0,0,0.1,0,0.1s0,0.1,0,0.2c0,0.3,0,0.6,0,1s0,0.8,0,1c0,0,0,0.1,0,0.1s0,0.1,0,0.1l0,0h0.1h0.1
		c0.3,0,0.6,0,1.1,0l0,0c0.4,0,0.8,0,1.1,0h0h0.1l0,0c0,0,0-0.1,0-0.1s0-0.2,0-0.3c0-0.2,0-0.5,0-0.8
		C182.4,151.6,182.4,151.3,182.4,151z"/>
	<path class="st0" d="M200.9,151C200.9,151,200.9,150.9,200.9,151c0-0.1,0-0.2,0-0.2l0,0h-0.1h0c-0.3,0-0.7,0-1.1,0l0,0
		c-0.4,0-0.7,0-1,0h-0.2h-0.1l0,0c0,0,0,0.1,0,0.1v0.2c0,0.3,0,0.6,0,1s0,0.8,0,1c0,0,0,0.1,0,0.1c0,0,0,0.1,0,0.1l0,0h0.1h0.1
		c0.3,0,0.6,0,1.1,0l0,0c0.4,0,0.8,0,1.1,0h0h0.1l0,0c0,0,0-0.1,0-0.1s0-0.2,0-0.3c0-0.2,0-0.5,0-0.8C201,151.6,201,151.3,200.9,151
		z"/>
	<path class="st0" d="M212,151C212,151,212,150.9,212,151c0-0.1,0-0.2,0-0.2l0,0h-0.1h0c-0.3,0-0.7,0-1.1,0l0,0c-0.4,0-0.7,0-1,0
		h-0.2h-0.1l0,0c0,0,0,0.1,0,0.1c0,0.1,0,0.1,0,0.2c0,0.3,0,0.6,0,1s0,0.8,0,1c0,0,0,0.1,0,0.1c0,0,0,0.1,0,0.1l0,0h0.1h0.1
		c0.3,0,0.6,0,1.1,0l0,0c0.4,0,0.8,0,1.1,0h0h0.1l0,0c0,0,0-0.1,0-0.1s0-0.2,0-0.3c0-0.2,0-0.5,0-0.8
		C212.1,151.6,212.1,151.3,212,151z"/>
	<path class="st0" d="M171.3,154.7C171.3,154.7,171.3,154.6,171.3,154.7c0-0.1,0-0.2,0-0.2l0,0h-0.1h0c-0.3,0-0.7,0-1.1,0l0,0
		c-0.4,0-0.7,0-1,0h-0.2h-0.1l0,0c0,0,0,0.1,0,0.1c0,0,0,0.1,0,0.2c0,0.3,0,0.6,0,1s0,0.8,0,1c0,0,0,0.1,0,0.1s0,0.1,0,0.1l0,0h0.1
		h0.1c0.3,0,0.6,0,1.1,0l0,0c0.4,0,0.8,0,1.1,0h0h0.1l0,0c0,0,0-0.1,0-0.1s0-0.2,0-0.3c0-0.2,0-0.5,0-0.8
		C171.3,155.3,171.3,155,171.3,154.7z"/>
	<path class="st0" d="M200.9,154.7C200.9,154.7,200.9,154.6,200.9,154.7c0-0.1,0-0.2,0-0.2l0,0h-0.1h0c-0.3,0-0.7,0-1.1,0l0,0
		c-0.4,0-0.7,0-1,0h-0.2h-0.1l0,0c0,0,0,0.1,0,0.1c0,0,0,0.1,0,0.2c0,0.3,0,0.6,0,1s0,0.8,0,1c0,0,0,0.1,0,0.1c0,0,0,0.1,0,0.1l0,0
		h0.1h0.1c0.3,0,0.6,0,1.1,0l0,0c0.4,0,0.8,0,1.1,0h0h0.1l0,0c0,0,0-0.1,0-0.1s0-0.2,0-0.3c0-0.2,0-0.5,0-0.8
		C201,155.3,201,155,200.9,154.7z"/>
	<path class="st0" d="M204.6,154.7C204.6,154.7,204.6,154.7,204.6,154.7c0-0.1,0-0.2,0-0.2l0,0h-0.1h0c-0.3,0-0.7,0-1.1,0l0,0
		c-0.4,0-0.7,0-1,0h-0.2h-0.1l0,0c0,0,0,0.1,0,0.1c0,0,0,0.1,0,0.2c0,0.3,0,0.6,0,1s0,0.8,0,1c0,0,0,0.1,0,0.1c0,0,0,0.1,0,0.1l0,0
		h0.1h0.1c0.3,0,0.6,0,1.1,0l0,0c0.4,0,0.8,0,1.1,0h0h0.1l0,0c0,0,0-0.1,0-0.1c0-0.1,0-0.2,0-0.3c0-0.2,0-0.5,0-0.8
		C204.7,155.3,204.7,155,204.6,154.7z"/>
	<path class="st0" d="M208.3,154.7C208.3,154.7,208.3,154.7,208.3,154.7c0-0.1,0-0.2,0-0.2l0,0h-0.1l0,0c-0.3,0-0.7,0-1.1,0l0,0
		c-0.4,0-0.7,0-1,0H206h-0.1l0,0c0,0,0,0.1,0,0.1c0,0.1,0,0.1,0,0.2c0,0.3,0,0.6,0,1s0,0.8,0,1c0,0,0,0.1,0,0.1c0,0,0,0.1,0,0.1l0,0
		h0.1h0.1c0.3,0,0.6,0,1.1,0l0,0c0.4,0,0.8,0,1.1,0h0h0.1l0,0c0,0,0-0.1,0-0.1s0-0.2,0-0.3c0-0.2,0-0.5,0-0.8
		C208.4,155.3,208.4,155,208.3,154.7z"/>
	<path class="st0" d="M212,154.7C212,154.7,212,154.6,212,154.7c0-0.1,0-0.2,0-0.2l0,0h-0.1h0c-0.3,0-0.7,0-1.1,0l0,0
		c-0.4,0-0.7,0-1,0h-0.2h-0.1l0,0c0,0,0,0.1,0,0.1c0,0,0,0.1,0,0.2c0,0.3,0,0.6,0,1s0,0.8,0,1c0,0,0,0.1,0,0.1c0,0,0,0.1,0,0.1l0,0
		h0.1h0.1c0.3,0,0.6,0,1.1,0l0,0c0.4,0,0.8,0,1.1,0h0h0.1l0,0c0,0,0-0.1,0-0.1s0-0.2,0-0.3c0-0.2,0-0.5,0-0.8
		C212.1,155.3,212.1,155,212,154.7z"/>
	<path class="st0" d="M167.6,162.1C167.6,162.1,167.6,162.1,167.6,162.1c0-0.1,0-0.2,0-0.2l0,0h-0.1h0c-0.3,0-0.7,0-1.1,0l0,0
		c-0.4,0-0.7,0-1,0h-0.2h-0.1l0,0c0,0,0,0.1,0,0.1v0.2c0,0.3,0,0.6,0,1s0,0.8,0,1c0,0,0,0.1,0,0.1s0,0.1,0,0.1l0,0h0.1h0
		c0.3,0,0.6,0,1.1,0l0,0c0.4,0,0.8,0,1.1,0h0h0.1l0,0c0,0,0-0.1,0-0.1c0-0.1,0-0.2,0-0.3c0-0.2,0-0.5,0-0.8
		C167.6,162.7,167.6,162.4,167.6,162.1z"/>
	<path class="st0" d="M182.4,162.1C182.4,162.1,182.4,162.1,182.4,162.1c0-0.1,0-0.2,0-0.2l0,0h-0.1h0c-0.3,0-0.7,0-1.1,0l0,0
		c-0.4,0-0.7,0-1,0h-0.2h-0.1l0,0c0,0,0,0.1,0,0.1s0,0.1,0,0.2c0,0.3,0,0.6,0,1s0,0.8,0,1c0,0,0,0.1,0,0.1s0,0.1,0,0.1l0,0h0.1h0.1
		c0.3,0,0.6,0,1.1,0l0,0c0.4,0,0.8,0,1.1,0h0h0.1l0,0c0,0,0-0.1,0-0.1s0-0.2,0-0.3c0-0.2,0-0.5,0-0.8
		C182.4,162.7,182.4,162.4,182.4,162.1z"/>
	<path class="st0" d="M108.4,162.1C108.4,162.1,108.4,162.1,108.4,162.1c0-0.1,0-0.2,0-0.2l0,0h-0.1h0c-0.3,0-0.7,0-1.1,0l0,0
		c-0.4,0-0.7,0-1,0H106h-0.1l0,0c0,0,0,0.1,0,0.1c0,0.1,0,0.1,0,0.2c0,0.3,0,0.6,0,1s0,0.8,0,1c0,0,0,0.1,0,0.1c0,0,0,0.1,0,0.1l0,0
		h0.1h0.1c0.3,0,0.6,0,1.1,0l0,0c0.4,0,0.8,0,1.1,0h0h0.1l0,0c0,0,0-0.1,0-0.1s0-0.2,0-0.3c0-0.2,0-0.5,0-0.8
		C108.4,162.7,108.4,162.4,108.4,162.1z"/>
	<path class="st0" d="M189.8,151C189.8,151,189.8,150.9,189.8,151c0-0.1,0-0.2,0-0.2l0,0h-0.1l0,0c-0.3,0-0.7,0-1.1,0l0,0
		c-0.4,0-0.7,0-1,0h-0.2h-0.1l0,0c0,0,0,0.1,0,0.1c0,0.1,0,0.1,0,0.2c0,0.3,0,0.6,0,1s0,0.8,0,1c0,0,0,0.1,0,0.1c0,0,0,0.1,0,0.1
		l0,0h0.1h0c0.3,0,0.6,0,1.1,0l0,0c0.4,0,0.8,0,1.1,0h0h0.1l0,0c0,0,0-0.1,0-0.1c0-0.1,0-0.2,0-0.3c0-0.2,0-0.5,0-0.8
		C189.9,151.6,189.8,151.3,189.8,151z"/>
	<path class="st0" d="M101,162.1C101,162.1,101,162.1,101,162.1c0-0.1,0-0.2,0-0.2l0,0h-0.1l0,0c-0.3,0-0.7,0-1.1,0l0,0
		c-0.4,0-0.7,0-1,0h-0.2h-0.1l0,0c0,0,0,0.1,0,0.1s0,0.1,0,0.2c0,0.3,0,0.6,0,1s0,0.8,0,1c0,0,0,0.1,0,0.1s0,0.1,0,0.1l0,0h0.1h0.1
		c0.3,0,0.6,0,1.1,0l0,0c0.4,0,0.8,0,1.1,0h0h0.1l0,0c0,0,0-0.1,0-0.1c0-0.1,0-0.2,0-0.3c0-0.2,0-0.5,0-0.8
		C101,162.7,101,162.4,101,162.1z"/>
	<path class="st0" d="M112.1,162.1C112.1,162.1,112.1,162.1,112.1,162.1c0-0.1,0-0.2,0-0.2l0,0H112l0,0c-0.3,0-0.7,0-1.1,0l0,0
		c-0.4,0-0.7,0-1,0h-0.2h-0.1l0,0c0,0,0,0.1,0,0.1c0,0.1,0,0.1,0,0.2c0,0.3,0,0.6,0,1s0,0.8,0,1c0,0,0,0.1,0,0.1c0,0,0,0.1,0,0.1
		l0,0h0.1h0.1c0.3,0,0.6,0,1.1,0l0,0c0.4,0,0.8,0,1.1,0h0h0.1l0,0c0,0,0-0.1,0-0.1s0-0.2,0-0.3c0-0.2,0-0.5,0-0.8
		C112.1,162.7,112.1,162.4,112.1,162.1z"/>
	<path class="st0" d="M119.5,162.1C119.5,162.1,119.5,162.1,119.5,162.1c0-0.1,0-0.2,0-0.2l0,0h-0.1h0c-0.3,0-0.7,0-1.1,0l0,0
		c-0.4,0-0.7,0-1,0h-0.2H117l0,0c0,0,0,0.1,0,0.1c0,0.1,0,0.1,0,0.2c0,0.3,0,0.6,0,1s0,0.8,0,1c0,0,0,0.1,0,0.1c0,0,0,0.1,0,0.1l0,0
		h0.1h0.1c0.3,0,0.6,0,1.1,0l0,0c0.4,0,0.8,0,1.1,0h0h0.1l0,0c0,0,0-0.1,0-0.1c0-0.1,0-0.2,0-0.3c0-0.2,0-0.5,0-0.8
		C119.5,162.7,119.5,162.4,119.5,162.1z"/>
	<path class="st0" d="M138,162.1C138,162.1,138,162.1,138,162.1c0-0.1,0-0.2,0-0.2l0,0h-0.1h0c-0.3,0-0.7,0-1.1,0l0,0
		c-0.4,0-0.7,0-1,0h-0.2h-0.1l0,0c0,0,0,0.1,0,0.1s0,0.1,0,0.2c0,0.3,0,0.6,0,1s0,0.8,0,1c0,0,0,0.1,0,0.1s0,0.1,0,0.1l0,0h0.1h0.1
		c0.3,0,0.6,0,1.1,0l0,0c0.4,0,0.8,0,1.1,0h0h0.1l0,0c0,0,0-0.1,0-0.1c0-0.1,0-0.2,0-0.3c0-0.2,0-0.5,0-0.8
		C138,162.7,138,162.4,138,162.1z"/>
	<path class="st0" d="M149.1,162.1C149.1,162.1,149.1,162.1,149.1,162.1c0-0.1,0-0.2,0-0.2l0,0H149h0c-0.3,0-0.7,0-1.1,0l0,0
		c-0.4,0-0.7,0-1,0h-0.2h-0.1l0,0c0,0,0,0.1,0,0.1s0,0.1,0,0.2c0,0.3,0,0.6,0,1s0,0.8,0,1c0,0,0,0.1,0,0.1s0,0.1,0,0.1l0,0h0.1h0.1
		c0.3,0,0.6,0,1.1,0l0,0c0.4,0,0.8,0,1.1,0h0h0.1l0,0c0,0,0-0.1,0-0.1c0-0.1,0-0.2,0-0.3c0-0.2,0-0.5,0-0.8
		C149.1,162.7,149.1,162.4,149.1,162.1z"/>
	<path class="st0" d="M156.5,162.1C156.5,162.1,156.5,162.1,156.5,162.1c0-0.1,0-0.2,0-0.2l0,0h-0.1l0,0c-0.3,0-0.7,0-1.1,0l0,0
		c-0.4,0-0.7,0-1,0h-0.2h-0.1l0,0c0,0,0,0.1,0,0.1s0,0.1,0,0.2c0,0.3,0,0.6,0,1s0,0.8,0,1c0,0,0,0.1,0,0.1s0,0.1,0,0.1l0,0h0.1h0.1
		c0.3,0,0.6,0,1.1,0l0,0c0.4,0,0.8,0,1.1,0h0h0.1l0,0c0,0,0-0.1,0-0.1s0-0.2,0-0.3c0-0.2,0-0.5,0-0.8
		C156.5,162.7,156.5,162.4,156.5,162.1z"/>
	<path class="st0" d="M175,158.4C175,158.4,175,158.4,175,158.4c0-0.1,0-0.2,0-0.2l0,0h-0.1l0,0c-0.3,0-0.7,0-1.1,0l0,0
		c-0.4,0-0.7,0-1,0h-0.2h-0.1l0,0c0,0,0,0.1,0,0.1c0,0.1,0,0.1,0,0.2c0,0.3,0,0.6,0,1s0,0.8,0,1c0,0,0,0.1,0,0.1c0,0,0,0.1,0,0.1
		l0,0h0.1h0.1c0.3,0,0.6,0,1.1,0l0,0c0.4,0,0.8,0,1.1,0h0h0.1l0,0c0,0,0-0.1,0-0.1s0-0.2,0-0.3c0-0.2,0-0.5,0-0.8
		C175,159,175,158.7,175,158.4z"/>
	<path class="st0" d="M200.9,158.4C200.9,158.4,200.9,158.4,200.9,158.4c0-0.1,0-0.2,0-0.2l0,0h-0.1h0c-0.3,0-0.7,0-1.1,0l0,0
		c-0.4,0-0.7,0-1,0h-0.2h-0.1l0,0c0,0,0,0.1,0,0.1v0.2c0,0.3,0,0.6,0,1s0,0.8,0,1c0,0,0,0.1,0,0.1c0,0,0,0.1,0,0.1l0,0h0.1h0.1
		c0.3,0,0.6,0,1.1,0l0,0c0.4,0,0.8,0,1.1,0h0h0.1l0,0c0,0,0-0.1,0-0.1s0-0.2,0-0.3c0-0.2,0-0.5,0-0.8C201,159,201,158.7,200.9,158.4
		z"/>
	<path class="st0" d="M212,158.4C212,158.4,212,158.4,212,158.4c0-0.1,0-0.2,0-0.2l0,0h-0.1h0c-0.3,0-0.7,0-1.1,0l0,0
		c-0.4,0-0.7,0-1,0h-0.2h-0.1l0,0c0,0,0,0.1,0,0.1c0,0.1,0,0.1,0,0.2c0,0.3,0,0.6,0,1s0,0.8,0,1c0,0,0,0.1,0,0.1c0,0,0,0.1,0,0.1
		l0,0h0.1h0.1c0.3,0,0.6,0,1.1,0l0,0c0.4,0,0.8,0,1.1,0h0h0.1l0,0c0,0,0-0.1,0-0.1s0-0.2,0-0.3c0-0.2,0-0.5,0-0.8
		C212.1,159,212.1,158.7,212,158.4z"/>
	<path class="st0" d="M175,162.1C175,162.1,175,162.1,175,162.1c0-0.1,0-0.2,0-0.2l0,0h-0.1l0,0c-0.3,0-0.7,0-1.1,0l0,0
		c-0.4,0-0.7,0-1,0h-0.2h-0.1l0,0c0,0,0,0.1,0,0.1c0,0.1,0,0.1,0,0.2c0,0.3,0,0.6,0,1s0,0.8,0,1c0,0,0,0.1,0,0.1c0,0,0,0.1,0,0.1
		l0,0h0.1h0.1c0.3,0,0.6,0,1.1,0l0,0c0.4,0,0.8,0,1.1,0h0h0.1l0,0c0,0,0-0.1,0-0.1s0-0.2,0-0.3c0-0.2,0-0.5,0-0.8
		C175,162.7,175,162.4,175,162.1z"/>
	<path class="st0" d="M193.5,162.1C193.5,162.1,193.5,162.1,193.5,162.1c0-0.1,0-0.2,0-0.2l0,0h-0.1h0c-0.3,0-0.7,0-1.1,0l0,0
		c-0.4,0-0.7,0-1,0h-0.2h-0.1l0,0c0,0,0,0.1,0,0.1s0,0.1,0,0.2c0,0.3,0,0.6,0,1s0,0.8,0,1c0,0,0,0.1,0,0.1s0,0.1,0,0.1l0,0h0.1h0.1
		c0.3,0,0.6,0,1.1,0l0,0c0.4,0,0.8,0,1.1,0h0h0.1l0,0c0,0,0-0.1,0-0.1s0-0.2,0-0.3c0-0.2,0-0.5,0-0.8
		C193.6,162.7,193.5,162.4,193.5,162.1z"/>
	<path class="st0" d="M200.9,162.1C200.9,162.1,200.9,162.1,200.9,162.1c0-0.1,0-0.2,0-0.2l0,0h-0.1h0c-0.3,0-0.7,0-1.1,0l0,0
		c-0.4,0-0.7,0-1,0h-0.2h-0.1l0,0c0,0,0,0.1,0,0.1v0.2c0,0.3,0,0.6,0,1s0,0.8,0,1c0,0,0,0.1,0,0.1c0,0,0,0.1,0,0.1l0,0h0.1h0.1
		c0.3,0,0.6,0,1.1,0l0,0c0.4,0,0.8,0,1.1,0h0h0.1l0,0c0,0,0-0.1,0-0.1s0-0.2,0-0.3c0-0.2,0-0.5,0-0.8
		C201,162.7,201,162.4,200.9,162.1z"/>
	<path class="st0" d="M212,162.1C212,162.1,212,162.1,212,162.1c0-0.1,0-0.2,0-0.2l0,0h-0.1h0c-0.3,0-0.7,0-1.1,0l0,0
		c-0.4,0-0.7,0-1,0h-0.2h-0.1l0,0c0,0,0,0.1,0,0.1c0,0.1,0,0.1,0,0.2c0,0.3,0,0.6,0,1s0,0.8,0,1c0,0,0,0.1,0,0.1c0,0,0,0.1,0,0.1
		l0,0h0.1h0.1c0.3,0,0.6,0,1.1,0l0,0c0.4,0,0.8,0,1.1,0h0h0.1l0,0c0,0,0-0.1,0-0.1s0-0.2,0-0.3c0-0.2,0-0.5,0-0.8
		C212.1,162.7,212.1,162.4,212,162.1z"/>
	<path class="st0" d="M101,158.4C101,158.4,101,158.4,101,158.4c0-0.1,0-0.2,0-0.2l0,0h-0.1l0,0c-0.3,0-0.7,0-1.1,0l0,0
		c-0.4,0-0.7,0-1,0h-0.2h-0.1l0,0c0,0,0,0.1,0,0.1v0.2c0,0.3,0,0.6,0,1s0,0.8,0,1c0,0,0,0.1,0,0.1s0,0.1,0,0.1l0,0h0.1h0.1
		c0.3,0,0.6,0,1.1,0l0,0c0.4,0,0.8,0,1.1,0h0h0.1l0,0c0,0,0-0.1,0-0.1c0-0.1,0-0.2,0-0.3c0-0.2,0-0.5,0-0.8
		C101,159,101,158.7,101,158.4z"/>
	<path class="st0" d="M119.5,158.4C119.5,158.4,119.5,158.4,119.5,158.4c0-0.1,0-0.2,0-0.2l0,0h-0.1h0c-0.3,0-0.7,0-1.1,0l0,0
		c-0.4,0-0.7,0-1,0h-0.2H117l0,0c0,0,0,0.1,0,0.1c0,0.1,0,0.1,0,0.2c0,0.3,0,0.6,0,1s0,0.8,0,1c0,0,0,0.1,0,0.1c0,0,0,0.1,0,0.1l0,0
		h0.1h0.1c0.3,0,0.6,0,1.1,0l0,0c0.4,0,0.8,0,1.1,0h0h0.1l0,0c0,0,0-0.1,0-0.1c0-0.1,0-0.2,0-0.3c0-0.2,0-0.5,0-0.8
		C119.5,159,119.5,158.7,119.5,158.4z"/>
	<path class="st0" d="M138,158.4C138,158.4,138,158.4,138,158.4c0-0.1,0-0.2,0-0.2l0,0h-0.1h0c-0.3,0-0.7,0-1.1,0l0,0
		c-0.4,0-0.7,0-1,0h-0.2h-0.1l0,0c0,0,0,0.1,0,0.1s0,0.1,0,0.2c0,0.3,0,0.6,0,1s0,0.8,0,1c0,0,0,0.1,0,0.1s0,0.1,0,0.1l0,0h0.1h0.1
		c0.3,0,0.6,0,1.1,0l0,0c0.4,0,0.8,0,1.1,0h0h0.1l0,0c0,0,0-0.1,0-0.1c0-0.1,0-0.2,0-0.3c0-0.2,0-0.5,0-0.8
		C138,159,138,158.7,138,158.4z"/>
	<path class="st0" d="M156.5,158.4C156.5,158.4,156.5,158.4,156.5,158.4c0-0.1,0-0.2,0-0.2l0,0h-0.1l0,0c-0.3,0-0.7,0-1.1,0l0,0
		c-0.4,0-0.7,0-1,0h-0.2h-0.1l0,0c0,0,0,0.1,0,0.1s0,0.1,0,0.2c0,0.3,0,0.6,0,1s0,0.8,0,1c0,0,0,0.1,0,0.1s0,0.1,0,0.1l0,0h0.1h0.1
		c0.3,0,0.6,0,1.1,0l0,0c0.4,0,0.8,0,1.1,0h0h0.1l0,0c0,0,0-0.1,0-0.1s0-0.2,0-0.3c0-0.2,0-0.5,0-0.8
		C156.5,159,156.5,158.7,156.5,158.4z"/>
	<path class="st0" d="M163.9,162.1C163.9,162.1,163.9,162.1,163.9,162.1c0-0.1,0-0.2,0-0.2l0,0h-0.1h0c-0.3,0-0.7,0-1.1,0l0,0
		c-0.4,0-0.7,0-1,0h-0.2h-0.1l0,0c0,0,0,0.1,0,0.1c0,0.1,0,0.1,0,0.2c0,0.3,0,0.6,0,1s0,0.8,0,1c0,0,0,0.1,0,0.1s0,0.1,0,0.1l0,0
		h0.1h0.1c0.3,0,0.6,0,1.1,0l0,0c0.4,0,0.8,0,1.1,0h0h0.1l0,0c0,0,0-0.1,0-0.1s0-0.2,0-0.3c0-0.2,0-0.5,0-0.8
		C163.9,162.7,163.9,162.4,163.9,162.1z"/>
	<path class="st0" d="M104.7,162.1C104.7,162.1,104.7,162.1,104.7,162.1c0-0.1,0-0.2,0-0.2l0,0h-0.1h0c-0.3,0-0.7,0-1.1,0l0,0
		c-0.4,0-0.7,0-1,0h-0.2h-0.1l0,0c0,0,0,0.1,0,0.1s0,0.1,0,0.2c0,0.3,0,0.6,0,1s0,0.8,0,1c0,0,0,0.1,0,0.1s0,0.1,0,0.1l0,0h0.1h0.1
		c0.3,0,0.6,0,1.1,0l0,0c0.4,0,0.8,0,1.1,0h0h0.1l0,0c0,0,0-0.1,0-0.1s0-0.2,0-0.3c0-0.2,0-0.5,0-0.8
		C104.7,162.7,104.7,162.4,104.7,162.1z"/>
	<path class="st0" d="M167.6,154.7C167.6,154.7,167.6,154.7,167.6,154.7c0-0.1,0-0.2,0-0.2l0,0h-0.1h0c-0.3,0-0.7,0-1.1,0l0,0
		c-0.4,0-0.7,0-1,0h-0.2h-0.1l0,0c0,0,0,0.1,0,0.1c0,0,0,0.1,0,0.2c0,0.3,0,0.6,0,1s0,0.8,0,1c0,0,0,0.1,0,0.1s0,0.1,0,0.1l0,0h0.1
		h0c0.3,0,0.6,0,1.1,0l0,0c0.4,0,0.8,0,1.1,0h0h0.1l0,0c0,0,0-0.1,0-0.1c0-0.1,0-0.2,0-0.3c0-0.2,0-0.5,0-0.8
		C167.6,155.3,167.6,155,167.6,154.7z"/>
	<path class="st0" d="M182.4,154.7C182.4,154.7,182.4,154.6,182.4,154.7c0-0.1,0-0.2,0-0.2l0,0h-0.1h0c-0.3,0-0.7,0-1.1,0l0,0
		c-0.4,0-0.7,0-1,0h-0.2h-0.1l0,0c0,0,0,0.1,0,0.1c0,0,0,0.1,0,0.2c0,0.3,0,0.6,0,1s0,0.8,0,1c0,0,0,0.1,0,0.1s0,0.1,0,0.1l0,0h0.1
		h0.1c0.3,0,0.6,0,1.1,0l0,0c0.4,0,0.8,0,1.1,0h0h0.1l0,0c0,0,0-0.1,0-0.1s0-0.2,0-0.3c0-0.2,0-0.5,0-0.8
		C182.4,155.3,182.4,155,182.4,154.7z"/>
	<path class="st0" d="M186.1,154.7C186.1,154.7,186.1,154.6,186.1,154.7c0-0.1,0-0.2,0-0.2l0,0H186h0c-0.3,0-0.7,0-1.1,0l0,0
		c-0.4,0-0.7,0-1,0h-0.2h-0.1l0,0c0,0,0,0.1,0,0.1c0,0.1,0,0.1,0,0.2c0,0.3,0,0.6,0,1s0,0.8,0,1c0,0,0,0.1,0,0.1c0,0,0,0.1,0,0.1
		l0,0h0.1h0.1c0.3,0,0.6,0,1.1,0l0,0c0.4,0,0.8,0,1.1,0h0h0.1l0,0c0,0,0-0.1,0-0.1s0-0.2,0-0.3c0-0.2,0-0.5,0-0.8
		C186.2,155.3,186.1,155,186.1,154.7z"/>
	<path class="st0" d="M171.3,162.1C171.3,162.1,171.3,162.1,171.3,162.1c0-0.1,0-0.2,0-0.2l0,0h-0.1h0c-0.3,0-0.7,0-1.1,0l0,0
		c-0.4,0-0.7,0-1,0h-0.2h-0.1l0,0c0,0,0,0.1,0,0.1s0,0.1,0,0.2c0,0.3,0,0.6,0,1s0,0.8,0,1c0,0,0,0.1,0,0.1s0,0.1,0,0.1l0,0h0.1h0.1
		c0.3,0,0.6,0,1.1,0l0,0c0.4,0,0.8,0,1.1,0h0h0.1l0,0c0,0,0-0.1,0-0.1s0-0.2,0-0.3c0-0.2,0-0.5,0-0.8
		C171.3,162.7,171.3,162.4,171.3,162.1z"/>
	<path class="st0" d="M149.1,158.4C149.1,158.4,149.1,158.4,149.1,158.4c0-0.1,0-0.2,0-0.2l0,0H149h0c-0.3,0-0.7,0-1.1,0l0,0
		c-0.4,0-0.7,0-1,0h-0.2h-0.1l0,0c0,0,0,0.1,0,0.1s0,0.1,0,0.2c0,0.3,0,0.6,0,1s0,0.8,0,1c0,0,0,0.1,0,0.1s0,0.1,0,0.1l0,0h0.1h0.1
		c0.3,0,0.6,0,1.1,0l0,0c0.4,0,0.8,0,1.1,0h0h0.1l0,0c0,0,0-0.1,0-0.1c0-0.1,0-0.2,0-0.3c0-0.2,0-0.5,0-0.8
		C149.1,159,149.1,158.7,149.1,158.4z"/>
	<path class="st0" d="M86.2,162.1C86.2,162.1,86.2,162.1,86.2,162.1c0-0.1,0-0.2,0-0.2l0,0h-0.1h0c-0.3,0-0.7,0-1.1,0l0,0
		c-0.4,0-0.7,0-1,0h-0.2h-0.1l0,0c0,0,0,0.1,0,0.1c0,0.1,0,0.1,0,0.2c0,0.3,0,0.6,0,1s0,0.8,0,1c0,0,0,0.1,0,0.1s0,0.1,0,0.1l0,0
		h0.1h0.1c0.3,0,0.7,0,1.1,0l0,0c0.4,0,0.8,0,1.1,0h0h0.1l0,0c0,0,0-0.1,0-0.1s0-0.2,0-0.3c0-0.2,0-0.5,0-0.8
		C86.2,162.7,86.2,162.4,86.2,162.1z"/>
	<path class="st0" d="M86.2,158.4C86.2,158.4,86.2,158.4,86.2,158.4c0-0.1,0-0.2,0-0.2l0,0h-0.1h0c-0.3,0-0.7,0-1.1,0l0,0
		c-0.4,0-0.7,0-1,0h-0.2h-0.1l0,0c0,0,0,0.1,0,0.1c0,0.1,0,0.1,0,0.2c0,0.3,0,0.6,0,1s0,0.8,0,1c0,0,0,0.1,0,0.1s0,0.1,0,0.1l0,0
		h0.1h0.1c0.3,0,0.7,0,1.1,0l0,0c0.4,0,0.8,0,1.1,0h0h0.1l0,0c0,0,0-0.1,0-0.1s0-0.2,0-0.3c0-0.2,0-0.5,0-0.8
		C86.2,159,86.2,158.7,86.2,158.4z"/>
	<path class="st0" d="M126.9,158.4C126.9,158.4,126.9,158.4,126.9,158.4c0-0.1,0-0.2,0-0.2l0,0h-0.1h0c-0.3,0-0.7,0-1.1,0l0,0
		c-0.4,0-0.7,0-1,0h-0.2h-0.1l0,0c0,0,0,0.1,0,0.1s0,0.1,0,0.2c0,0.3,0,0.6,0,1s0,0.8,0,1c0,0,0,0.1,0,0.1s0,0.1,0,0.1l0,0h0.1h0.1
		c0.3,0,0.6,0,1.1,0l0,0c0.4,0,0.8,0,1.1,0h0h0.1l0,0c0,0,0-0.1,0-0.1s0-0.2,0-0.3c0-0.2,0-0.5,0-0.8
		C126.9,159,126.9,158.7,126.9,158.4z"/>
	<path class="st0" d="M182.4,158.4C182.4,158.4,182.4,158.4,182.4,158.4c0-0.1,0-0.2,0-0.2l0,0h-0.1h0c-0.3,0-0.7,0-1.1,0l0,0
		c-0.4,0-0.7,0-1,0h-0.2h-0.1l0,0c0,0,0,0.1,0,0.1s0,0.1,0,0.2c0,0.3,0,0.6,0,1s0,0.8,0,1c0,0,0,0.1,0,0.1s0,0.1,0,0.1l0,0h0.1h0.1
		c0.3,0,0.6,0,1.1,0l0,0c0.4,0,0.8,0,1.1,0h0h0.1l0,0c0,0,0-0.1,0-0.1s0-0.2,0-0.3c0-0.2,0-0.5,0-0.8
		C182.4,159,182.4,158.7,182.4,158.4z"/>
	<path class="st0" d="M189.8,158.4C189.8,158.4,189.8,158.4,189.8,158.4c0-0.1,0-0.2,0-0.2l0,0h-0.1l0,0c-0.3,0-0.7,0-1.1,0l0,0
		c-0.4,0-0.7,0-1,0h-0.2h-0.1l0,0c0,0,0,0.1,0,0.1c0,0.1,0,0.1,0,0.2c0,0.3,0,0.6,0,1s0,0.8,0,1c0,0,0,0.1,0,0.1c0,0,0,0.1,0,0.1
		l0,0h0.1h0c0.3,0,0.6,0,1.1,0l0,0c0.4,0,0.8,0,1.1,0h0h0.1l0,0c0,0,0-0.1,0-0.1c0-0.1,0-0.2,0-0.3c0-0.2,0-0.5,0-0.8
		C189.9,159,189.8,158.7,189.8,158.4z"/>
</g>
</svg>
