<?xml version="1.0" encoding="utf-8"?>
<!-- Generator: Adobe Illustrator 21.0.2, SVG Export Plug-In . SVG Version: 6.00 Build 0)  -->
<svg version="1.1" xmlns="http://www.w3.org/2000/svg" xmlns:xlink="http://www.w3.org/1999/xlink" x="0px" y="0px"
	 viewBox="0 0 383.9 383.9" style="enable-background:new 0 0 383.9 383.9;" xml:space="preserve">
<style type="text/css">
	.st0{fill:#606060;}
	.st1{filter:url(#Adobe_OpacityMaskFilter);}
	.st2{fill:#FFFFFF;}
	.st3{filter:url(#Adobe_OpacityMaskFilter_1_);}
	.st4{mask:url(#SVGID_2_);}
	.st5{filter:url(#Adobe_OpacityMaskFilter_2_);}
	.st6{mask:url(#SVGID_3_);}
	.st7{fill:#323232;}
	.st8{fill:none;stroke:#FFFFFF;stroke-width:5;stroke-miterlimit:10;}
	.st9{fill:#383A3A;}
	.st10{fill:none;stroke:#15ACAC;stroke-width:11;stroke-miterlimit:10;}
	.st11{fill:none;stroke:#00FFF8;stroke-width:5;stroke-linecap:round;stroke-linejoin:round;stroke-miterlimit:10;}
	.st12{fill:none;stroke:#FFFFFF;stroke-width:5;stroke-linecap:round;stroke-miterlimit:10;}
	.st13{fill:none;stroke:#FFFFFF;stroke-width:2;stroke-linecap:round;stroke-linejoin:round;stroke-miterlimit:10;}
	.st14{filter:url(#Adobe_OpacityMaskFilter_3_);}
	.st15{mask:url(#SVGID_4_);fill:url(#SVGID_5_);}
	.st16{fill:url(#SVGID_6_);}
	.st17{fill:url(#SVGID_7_);}
	.st18{filter:url(#Adobe_OpacityMaskFilter_4_);}
	.st19{mask:url(#SVGID_8_);fill:url(#SVGID_9_);}
</style>
<g id="Layer_2">
	<rect x="-13.5" y="-18.5" class="st0" width="421.6" height="415.5"/>
</g>
<g id="Layer_1">
	<defs>
		<filter id="Adobe_OpacityMaskFilter" filterUnits="userSpaceOnUse" x="0.7" y="0" width="382.5" height="382.5">
			<feColorMatrix  type="matrix" values="1 0 0 0 0  0 1 0 0 0  0 0 1 0 0  0 0 0 1 0"/>
		</filter>
	</defs>
	<mask maskUnits="userSpaceOnUse" x="0.7" y="0" width="382.5" height="382.5" id="SVGID_1_">
		<g class="st1">
			<rect class="st2" width="383.9" height="383.9"/>
			<rect class="st2" width="383.9" height="383.9"/>
			<path d="M323.4,203.1c-3.7-4.7-8.4-8.8-14.2-12c-5.8-3.3-12.9-5.7-21.2-7.3c8.3-5.2,14.5-11.4,18.6-18.9
				c4.1-7.4,6.1-16.8,6.1-28.1c0-18.6-5.3-32.9-16-42.8c-10.7-9.9-26.3-14.8-46.9-14.8H221h-58.1h-28.6c-20.6,0-36.2,4.9-46.9,14.8
				c-10.7,9.9-16,24.1-16,42.8c0,11.3,2,20.6,6.1,28.1c4.1,7.4,10.2,13.7,18.6,18.9c-8.3,1.6-15.4,4-21.2,7.3
				c-5.8,3.3-10.6,7.3-14.2,12c-3.7,4.7-6.3,10.1-7.9,16c-1.6,5.9-2.4,12.3-2.4,19c0,10.5,1.8,19.8,5.5,27.9
				c3.7,8.1,8.8,15,15.4,20.5c6.6,5.5,14.7,9.7,24.2,12.5c9.5,2.8,20.2,4.2,32.1,4.2h35.4H221h35.4c11.9,0,22.6-1.4,32.1-4.2
				c9.5-2.8,17.6-6.9,24.2-12.5c6.6-5.5,11.8-12.4,15.4-20.5c3.7-8.1,5.5-17.4,5.5-27.9c0-6.7-0.8-13.1-2.4-19
				C329.7,213.2,327.1,207.9,323.4,203.1z"/>
			<path class="st2" d="M162.8,258.1h-12.8c-14.7,0-25.1-1.9-31.5-5.6c-6.3-3.8-9.5-9.8-9.5-18.1c0-8.3,3.2-14.3,9.5-18.1
				c6.3-3.8,16.8-5.6,31.5-5.6h12.8V258.1z"/>
			<path class="st2" d="M162.8,167.2h-10.7c-18.2,0-27.3-7.2-27.3-21.7c0-14.4,9.1-21.7,27.3-21.7h10.7V167.2z"/>
			<path class="st2" d="M221.1,123.9h10.7c18.2,0,27.3,7.2,27.3,21.7c0,14.5-9.1,21.7-27.3,21.7h-10.7V123.9z"/>
			<path class="st2" d="M265.3,252.4c-6.3,3.8-16.8,5.6-31.5,5.6h-12.8v-47.5h12.8c14.7,0,25.1,1.9,31.5,5.6
				c6.3,3.8,9.5,9.8,9.5,18.1C274.8,242.6,271.7,248.7,265.3,252.4z"/>
		</g>
	</mask>
	<linearGradient id="SVGID_2_" gradientUnits="userSpaceOnUse" x1="0.7006" y1="191.2714" x2="383.2435" y2="191.2714">
		<stop  offset="0" style="stop-color:#FFFFFF;stop-opacity:0"/>
		<stop  offset="0.5141" style="stop-color:#00FFC6"/>
		<stop  offset="1" style="stop-color:#FFFFFF;stop-opacity:0"/>
	</linearGradient>
	<circle style="mask:url(#SVGID_1_);fill:url(#SVGID_2_);" cx="192" cy="191.3" r="191.3"/>
	<path class="st2" d="M323.4,203.1c-3.7-4.7-8.4-8.8-14.2-12c-5.8-3.3-12.9-5.7-21.2-7.3c8.3-5.2,14.5-11.4,18.6-18.9
		c4.1-7.4,6.1-16.8,6.1-28.1c0-18.6-5.3-32.9-16-42.8c-10.7-9.9-26.3-14.8-46.9-14.8H221h-58.1h-28.6c-20.6,0-36.2,4.9-46.9,14.8
		c-10.7,9.9-16,24.1-16,42.8c0,11.3,2,20.6,6.1,28.1c4.1,7.4,10.2,13.7,18.6,18.9c-8.3,1.6-15.4,4-21.2,7.3
		c-5.8,3.3-10.6,7.3-14.2,12c-3.7,4.7-6.3,10.1-7.9,16c-1.6,5.9-2.4,12.3-2.4,19c0,10.5,1.8,19.8,5.5,27.9c3.7,8.1,8.8,15,15.4,20.5
		c6.6,5.5,14.7,9.7,24.2,12.5c9.5,2.8,20.2,4.2,32.1,4.2h35.4H221h35.4c11.9,0,22.6-1.4,32.1-4.2c9.5-2.8,17.6-6.9,24.2-12.5
		c6.6-5.5,11.8-12.4,15.4-20.5c3.7-8.1,5.5-17.4,5.5-27.9c0-6.7-0.8-13.1-2.4-19C329.7,213.2,327.1,207.9,323.4,203.1z M162.8,258.1
		h-12.8c-14.7,0-25.1-1.9-31.5-5.6c-6.3-3.8-9.5-9.8-9.5-18.1c0-8.3,3.2-14.3,9.5-18.1c6.3-3.8,16.8-5.6,31.5-5.6h12.8V258.1z
		 M162.8,167.2h-10.7c-18.2,0-27.3-7.2-27.3-21.7c0-14.4,9.1-21.7,27.3-21.7h10.7V167.2z M221.1,123.9h10.7
		c18.2,0,27.3,7.2,27.3,21.7c0,14.5-9.1,21.7-27.3,21.7h-10.7V123.9z M265.3,252.4c-6.3,3.8-16.8,5.6-31.5,5.6h-12.8v-47.5h12.8
		c14.7,0,25.1,1.9,31.5,5.6c6.3,3.8,9.5,9.8,9.5,18.1C274.8,242.6,271.7,248.7,265.3,252.4z"/>
	<defs>
		<filter id="Adobe_OpacityMaskFilter_1_" filterUnits="userSpaceOnUse" x="132.2" y="167.2" width="119.5" height="43.4">
			<feColorMatrix  type="matrix" values="1 0 0 0 0  0 1 0 0 0  0 0 1 0 0  0 0 0 1 0"/>
		</filter>
	</defs>
	<mask maskUnits="userSpaceOnUse" x="132.2" y="167.2" width="119.5" height="43.4" id="SVGID_3_">
		<g class="st3">
			<rect x="98.2" y="97.9" class="st2" width="192.2" height="175.9"/>
			<rect x="162.9" y="141.1" width="58" height="112.3"/>
		</g>
	</mask>
	<linearGradient id="SVGID_4_" gradientUnits="userSpaceOnUse" x1="132.217" y1="188.8919" x2="251.7271" y2="188.8919">
		<stop  offset="0" style="stop-color:#FFFFFF;stop-opacity:0"/>
		<stop  offset="0.5141" style="stop-color:#00FFC6"/>
		<stop  offset="1" style="stop-color:#FFFFFF;stop-opacity:0"/>
	</linearGradient>
	<rect x="132.2" y="167.2" style="mask:url(#SVGID_3_);fill:url(#SVGID_4_);" width="119.5" height="43.4"/>
</g>
</svg>
