<?xml version="1.0" encoding="utf-8"?>
<!-- Generator: Adobe Illustrator 21.0.2, SVG Export Plug-In . SVG Version: 6.00 Build 0)  -->
<svg version="1.1" xmlns="http://www.w3.org/2000/svg" xmlns:xlink="http://www.w3.org/1999/xlink" x="0px" y="0px"
	 viewBox="0 0 185.2 38.7" style="enable-background:new 0 0 185.2 38.7;" xml:space="preserve">
<style type="text/css">
	.st0{filter:url(#Adobe_OpacityMaskFilter);}
	.st1{fill:#FFFFFF;}
	.st2{filter:url(#Adobe_OpacityMaskFilter_1_);}
	.st3{mask:url(#SVGID_2_);}
	.st4{filter:url(#Adobe_OpacityMaskFilter_2_);}
	.st5{mask:url(#SVGID_3_);}
	.st6{fill:#323232;}
	.st7{fill:none;stroke:#FFFFFF;stroke-width:5;stroke-miterlimit:10;}
	.st8{fill:#383A3A;}
	.st9{fill:none;stroke:#15ACAC;stroke-width:11;stroke-miterlimit:10;}
	.st10{fill:none;stroke:#00FFF8;stroke-width:5;stroke-linecap:round;stroke-linejoin:round;stroke-miterlimit:10;}
	.st11{fill:none;stroke:#FFFFFF;stroke-width:5;stroke-linecap:round;stroke-miterlimit:10;}
	.st12{fill:none;stroke:#FFFFFF;stroke-width:2;stroke-linecap:round;stroke-linejoin:round;stroke-miterlimit:10;}
	.st13{fill:url(#SVGID_4_);}
	.st14{fill:url(#SVGID_5_);}
	.st15{filter:url(#Adobe_OpacityMaskFilter_3_);}
	.st16{mask:url(#SVGID_6_);fill:url(#SVGID_7_);}
</style>
<g id="Layer_2">
</g>
<g id="Layer_1">
	<g>
		<path class="st1" d="M67.6,21.3c-0.4-0.5-0.8-0.9-1.4-1.2c-0.6-0.3-1.3-0.6-2.1-0.7c0.8-0.5,1.4-1.1,1.8-1.9
			c0.4-0.7,0.6-1.7,0.6-2.8c0-1.9-0.5-3.3-1.6-4.3c-1.1-1-2.6-1.5-4.7-1.5h-2.8h-5.8h-2.8c-2,0-3.6,0.5-4.7,1.5
			c-1.1,1-1.6,2.4-1.6,4.3c0,1.1,0.2,2.1,0.6,2.8c0.4,0.7,1,1.4,1.8,1.9c-0.8,0.2-1.5,0.4-2.1,0.7c-0.6,0.3-1.1,0.7-1.4,1.2
			s-0.6,1-0.8,1.6c-0.2,0.6-0.2,1.2-0.2,1.9c0,1,0.2,2,0.5,2.8c0.4,0.8,0.9,1.5,1.5,2c0.7,0.6,1.5,1,2.4,1.2c0.9,0.3,2,0.4,3.2,0.4
			h3.5h5.8h3.5c1.2,0,2.2-0.1,3.2-0.4c0.9-0.3,1.7-0.7,2.4-1.2c0.7-0.6,1.2-1.2,1.5-2c0.4-0.8,0.5-1.7,0.5-2.8
			c0-0.7-0.1-1.3-0.2-1.9C68.2,22.3,68,21.8,67.6,21.3z M51.6,26.8h-1.3c-1.5,0-2.5-0.2-3.1-0.6c-0.6-0.4-0.9-1-0.9-1.8
			c0-0.8,0.3-1.4,0.9-1.8c0.6-0.4,1.7-0.6,3.1-0.6h1.3V26.8z M51.6,17.7h-1.1c-1.8,0-2.7-0.7-2.7-2.2c0-1.4,0.9-2.2,2.7-2.2h1.1
			V17.7z M57.4,13.4h1.1c1.8,0,2.7,0.7,2.7,2.2c0,1.4-0.9,2.2-2.7,2.2h-1.1V13.4z M61.8,26.2c-0.6,0.4-1.7,0.6-3.1,0.6h-1.3v-4.7
			h1.3c1.5,0,2.5,0.2,3.1,0.6c0.6,0.4,0.9,1,0.9,1.8C62.8,25.3,62.4,25.9,61.8,26.2z"/>
		<polygon class="st1" points="83.9,31.3 96.6,31.3 96.6,26.4 89.7,26.4 89.7,22.5 96.2,22.5 96.2,17.6 89.7,17.6 89.7,13.9 
			96.6,13.9 96.6,9 83.9,9 		"/>
		<path class="st1" d="M118.9,9l-8.5,22.3h6.2l1.3-3.9h8.3l1.3,3.9h6.2L125.2,9H118.9z M119.5,23l2.6-7.4l2.6,7.4H119.5z"/>
		<polygon class="st1" points="171.2,9 165.5,9 161.1,20.9 156.6,9 150.9,9 147.1,31.3 152.8,31.3 154.8,18.5 159.8,31.3 
			162.1,31.3 167.3,18.5 169.2,31.3 175,31.3 		"/>
		<polygon class="st1" points="12.5,13.9 19.3,13.9 19.3,17.6 12.8,17.6 12.8,22.5 19.3,22.5 19.3,26.4 12.5,26.4 12.5,31.3 
			25.1,31.3 25.1,9 12.5,9 		"/>
		<linearGradient id="SVGID_1_" gradientUnits="userSpaceOnUse" x1="48.5789" y1="19.9063" x2="60.4727" y2="19.9063">
			<stop  offset="0" style="stop-color:#FFFFFF"/>
			<stop  offset="1.318403e-02" style="stop-color:#F1FFFC"/>
			<stop  offset="7.122563e-02" style="stop-color:#B9FFEF"/>
			<stop  offset="0.1312" style="stop-color:#88FFE4"/>
			<stop  offset="0.1916" style="stop-color:#5EFFDB"/>
			<stop  offset="0.2528" style="stop-color:#3CFFD3"/>
			<stop  offset="0.3148" style="stop-color:#22FFCE"/>
			<stop  offset="0.3781" style="stop-color:#0FFFC9"/>
			<stop  offset="0.4435" style="stop-color:#04FFC7"/>
			<stop  offset="0.5141" style="stop-color:#00FFC6"/>
			<stop  offset="0.592" style="stop-color:#03FFC7"/>
			<stop  offset="0.6552" style="stop-color:#0DFFC9"/>
			<stop  offset="0.7134" style="stop-color:#1EFFCD"/>
			<stop  offset="0.7685" style="stop-color:#36FFD2"/>
			<stop  offset="0.8214" style="stop-color:#55FFD9"/>
			<stop  offset="0.8728" style="stop-color:#7CFFE2"/>
			<stop  offset="0.9228" style="stop-color:#A9FFEC"/>
			<stop  offset="0.9706" style="stop-color:#DCFFF7"/>
			<stop  offset="1" style="stop-color:#FFFFFF"/>
		</linearGradient>
		<rect x="48.6" y="17.7" style="fill:url(#SVGID_1_);" width="11.9" height="4.3"/>
		<rect x="51.6" y="15.2" class="st1" width="5.8" height="11.2"/>
	</g>
</g>
</svg>
