<?xml version="1.0" encoding="utf-8"?>
<!-- Generator: Adobe Illustrator 21.0.2, SVG Export Plug-In . SVG Version: 6.00 Build 0)  -->
<svg version="1.1" xmlns="http://www.w3.org/2000/svg" xmlns:xlink="http://www.w3.org/1999/xlink" x="0px" y="0px"
	 viewBox="0 0 88.9 89.3" style="enable-background:new 0 0 88.9 89.3;" xml:space="preserve">
<style type="text/css">
	.st0{display:none;}
	.st1{display:inline;filter:url(#Adobe_OpacityMaskFilter);}
	.st2{fill:#FFFFFF;}
	.st3{display:inline;fill:#FFFFFF;}
	.st4{display:inline;}
	.st5{fill:#A8A7A7;}
	.st6{fill:#EA6E75;}
	.st7{fill:#BA4D4D;}
	.st8{fill:#3D3536;}
	.st9{fill:#D1E2FA;}
</style>
<g id="Layer_2" class="st0">
	<defs>
		<filter id="Adobe_OpacityMaskFilter" filterUnits="userSpaceOnUse" x="-144.3" y="-66.1" width="0" height="0">
			<feColorMatrix  type="matrix" values="1 0 0 0 0  0 1 0 0 0  0 0 1 0 0  0 0 0 1 0"/>
		</filter>
	</defs>
	<mask maskUnits="objectBoundingBox" x="0" y="0" width="100" height="100" id="dL4FRK_7_" class="st4">
		<g style="filter:url(#Adobe_OpacityMaskFilter);">
			<rect x="144.6" y="134.9" class="st2" width="31.3" height="21.6"/>
		</g>
	</mask>
	<polyline class="st3" points="-566.3,523.9 -348.4,523.9 6.2,235 1.8,221.5 	"/>
	<polyline class="st3" points="357.1,291 383.5,246.2 745.5,446.6 820.7,523.9 	"/>
</g>
<g id="Layer_1" class="st0">
	<g class="st4">
		<polygon class="st5" points="157.1,80.3 163.6,103.3 156.1,80.6 		"/>
	</g>
	<g class="st4">
		<polygon class="st5" points="143.8,49.6 150.3,72.6 142.8,49.9 		"/>
	</g>
	<g class="st4">
		<polygon class="st5" points="179.6,84.9 180.2,105.8 178.6,84.9 		"/>
	</g>
	<g class="st4">
		<polygon class="st5" points="181.1,84.9 181.8,105.8 180.1,84.9 		"/>
	</g>
	<g class="st4">
		<polygon class="st5" points="204,86.4 198.8,111.6 203,86.2 		"/>
	</g>
	<g class="st4">
		<polygon class="st5" points="211.8,78.1 206.5,103.3 210.8,77.9 		"/>
	</g>
	<g class="st4">
		<polygon class="st5" points="228.9,40.4 223.7,65.6 227.9,40.2 		"/>
	</g>
</g>
<g id="Layer_3">
	<rect x="12.4" class="st6" width="64" height="37.4"/>
	<rect x="12.4" y="37.4" class="st7" width="64" height="51.9"/>
	<rect x="76.5" y="43.1" class="st7" width="12.4" height="10.7"/>
	<rect y="43.1" class="st7" width="12.4" height="10.7"/>
	<rect x="76.5" y="37.4" class="st6" width="12.4" height="5.8"/>
	<rect y="37.4" class="st6" width="12.4" height="5.8"/>
	<ellipse class="st8" cx="28.4" cy="52.4" rx="5.9" ry="5.3"/>
	<ellipse class="st9" cx="28.8" cy="50.8" rx="2.6" ry="2.4"/>
	<ellipse class="st8" cx="60.5" cy="52.4" rx="5.9" ry="5.3"/>
	<ellipse class="st9" cx="62" cy="50.8" rx="2.6" ry="2.4"/>
</g>
</svg>
