<?xml version="1.0" encoding="utf-8"?>
<!-- Generator: Adobe Illustrator 18.0.0, SVG Export Plug-In . SVG Version: 6.00 Build 0)  -->
<!DOCTYPE svg PUBLIC "-//W3C//DTD SVG 1.1//EN" "http://www.w3.org/Graphics/SVG/1.1/DTD/svg11.dtd">
<svg version="1.1" xmlns="http://www.w3.org/2000/svg" xmlns:xlink="http://www.w3.org/1999/xlink" x="0px" y="0px"
	 viewBox="0 0 1000 1000" enable-background="new 0 0 1000 1000" xml:space="preserve">
<g id="Layer_1" display="none">
	<g display="inline">
		<path fill="#323131" d="M118.8,652.5c0-101.7,0-203.3,0-305c1.2-8.7,3-17.4,3.5-26.1c5.8-98.4,68.3-172.8,163.6-193.5
			c20.2-4.4,41-6.2,61.6-9.2c101.7,0,203.3,0,305,0c8.7,1.2,17.3,3,26,3.6c97.1,5.7,169.5,65.4,192.1,160.2
			c5.4,22.5,7.1,45.8,10.6,68.8c0,97.8,0,195.7,0,293.5c-1.3,11.2-3.2,22.4-3.8,33.7c-5.6,96.7-65.4,169.6-159.7,192
			c-23.8,5.7-48.5,7.3-72.9,10.7c-97.8,0-195.7,0-293.5,0c-10-1.3-19.9-3.2-29.9-3.8c-98.8-5.7-174.1-69.4-193.9-165.2
			C123.5,692.6,121.6,672.4,118.8,652.5z M497.8,809.1c0-0.1,0-0.1,0-0.2c56.5,0,113.1,1.3,169.5-0.4c41.8-1.2,79.8-14.5,108.1-48
			c23.3-27.5,33-60.4,33.3-95.2c1-109.2,2.1-218.5,0-327.7C807,246.3,754.4,193.9,663,191.1c-93.3-2.8-186.7-3-280.1-2.8
			c-28.4,0-57.4,2.2-85.2,8c-64.3,13.4-104.9,63.4-106.2,135.3c-2.1,111.1-2.5,222.3-0.1,333.3c1.9,88.8,55.5,140.8,144.5,143.9
			C389.8,810.6,443.8,809.1,497.8,809.1z"/>
		<path fill="#323131" d="M304.4,499c0.7-109.3,87.8-195.4,196.9-194.6c109.2,0.8,195.2,88.3,194.1,197.4
			c-1.1,108.5-87.6,194-195.9,193.6C390.2,695.1,303.7,608,304.4,499z M499.3,626.3c71,0.2,127-55.4,127-126.2
			c0-70.1-55.1-126.1-124.8-126.5c-71.3-0.5-127.6,54.6-127.9,125.2C373.2,569.9,428.6,626.1,499.3,626.3z"/>
		<path fill="#323131" d="M748.8,295.8c0.3,25.5-19.7,46.4-44.8,46.8c-24.6,0.4-46.4-20.6-46.9-45.4c-0.6-24.9,20-45.8,45.5-46.1
			C728.8,250.8,748.5,269.8,748.8,295.8z"/>
	</g>
</g>
<g id="Layer_5">
	<g>
		<path fill="#323131" d="M731,767.9c15.6,10.4,22.1,24.6,22.1,40.2c0,9.1-2.6,19.5-6.5,28.5c-9.1,18.2-24.6,32.4-44.1,32.4
			c-7.8,0-16.9-2.6-24.6-7.8l-476.1-288c-32.4-18.2-48-36.3-48-71.4c0-36.3,15.6-54.5,49.3-75.2l476.1-284.1
			c7.8-5.2,16.9-7.8,23.4-7.8c20.8,0,36.3,15.6,44.1,32.4c5.2,9.1,7.8,19.5,7.8,29.8c0,15.6-6.5,29.8-23.4,38.9L278.3,500.7
			L731,767.9z"/>
	</g>
</g>
<g id="Layer_4" display="none">
	<path display="inline" fill="#323131" d="M130.2,732.8c83.5,7.9,156.9-12.4,223.7-62.4c-69.8-6.1-116-41-141.8-106.2
		c23.3,3.5,44.8,3.6,68.1-2.6c-36.5-8.7-65.4-26.4-87.6-54.3c-22.2-27.8-33.1-59.7-33-94c18,5.2,35.7,10.4,53.4,15.1
		c3.6,1,7.6,0.1,11.6,0.1c-66.3-55.7-80.4-122.7-44.3-202.6c83.2,97.9,186.9,150.9,312.4,159.7c-0.5-15.6-1.9-30.3-1.4-44.8
		c2.3-65.8,54.3-125.9,119.1-138.2c53.3-10.1,100.2,2.4,139.5,40.7c3.9,3.8,7.5,2.9,11.8,1.9c29.5-6.8,57.4-17.7,83.7-32.5
		c0.9-0.5,2-0.9,4.4-1.9c-11.8,34.9-32.6,60.9-61.9,80.6c0.2,0.7,0.3,1.3,0.5,2c8.9-1.7,17.8-3,26.6-5.1c9.1-2.1,18.2-4.6,27.1-7.4
		c8.8-2.8,17.5-6.3,27.7-10c-12.4,19.1-26,35.1-41.3,49.7c-9.4,8.9-19.8,16.8-29.5,25.5c-2.1,1.9-4,5.5-3.9,8.2
		c1.2,43.9-4,87.1-16,129.3c-18.5,65.2-49.5,123.9-94.2,175.1c-37.4,42.9-81.6,76.7-132.9,101.2c-43.1,20.6-88.7,33-136.2,38.1
		c-100.6,10.7-194.5-8.7-280.8-62.1C134,735.3,133,734.7,130.2,732.8z"/>
</g>
<g id="Layer_3" display="none">
	<g display="inline">
		<path fill="#323131" d="M580.6,702.8c21.9-4.8,43.7-8.4,64.8-14.6c72.3-21.3,113.8-70.3,125.9-144.3c5.6-34,7.5-68-1.3-101.9
			c-6.3-24.2-17.7-45.7-33.9-64.5c-3.2-3.7-4.2-6.6-2.7-11.5c11-35.3,7.7-70.2-5-104.4c-0.8-2.2-4.8-4.5-7.5-4.7
			c-20.8-1.2-40,5.1-58.2,14c-17.2,8.4-33.6,18.7-50.5,27.9c-2.4,1.3-5.9,2.1-8.4,1.5c-50.5-12.6-101.6-16.5-153.3-10
			c-17.3,2.2-34.4,6.1-51.5,9.7c-5,1.1-8.8,0.8-13.3-2.1c-25.8-17-52.5-32.1-83.1-38.7c-7.9-1.7-16.2-2.1-24.4-2.2
			c-2.4,0-6.2,2.8-7.1,5.1c-12.8,34.8-16,70-4.4,105.8c0.7,2.1-0.2,5.6-1.6,7.3c-33.2,39.2-44.8,84.6-40.7,135.1
			c2.2,27.2,6.3,53.9,16.6,79.3c21,51.8,60.3,83,112.7,98.5c21.3,6.3,43.3,10.1,65,15c-14.4,14.2-21.6,32.9-25.2,53.4
			c-0.2,1.4-1.6,3.2-2.9,3.7c-29.6,12.6-65.6,16.6-95.3-5.3c-11.9-8.7-20.4-20.2-28.2-32.6c-11.2-17.8-25.7-32.3-45.9-38.9
			c-9.3-3.1-19.7-3.2-29.7-3.6c-3.1-0.1-8.1,2.8-9.1,5.6c-0.9,2.5,1.7,7.1,3.8,9.8c2.6,3.3,6.1,6.3,9.8,8.4
			c24.2,14.4,38.5,36.7,48.8,61.8c14.1,34.1,40.7,51.3,75.6,57.4c23.5,4.1,47,1.9,71.3-3c0,8.7-0.1,16.8,0,25
			c0.2,17.1,0.6,34.3,0.7,51.4c0.1,20-13.1,29.8-32.1,23.3c-71.9-24.7-133.2-65.4-183.7-122.2C125.9,740,92.4,673.8,76.9,598.6
			c-7.6-36.9-10.6-74.2-8.3-112c5-84.9,31.9-162,82.2-230.3C218.3,164.9,308.2,108,419.9,86c34-6.7,68.3-8.9,102.7-6.9
			c91.1,5.3,173.1,35.6,244.8,92.5c75.2,59.7,125.1,136.2,150.2,228.9c12.3,45.3,16.6,91.5,13.3,138.1
			c-6.6,96.1-41.3,181.4-104.3,254.4c-50.6,58.7-112.9,100.6-186.1,126.1c-16,5.6-28.7,0.4-32.3-12.9c-0.8-3-0.8-6.2-0.8-9.3
			c0-40.5,0.4-81.1,0-121.6C607.1,748.2,599.8,723.1,580.6,702.8z"/>
		<path fill="#323131" d="M383.6,773.3c1.5,1.5,3.7,3.7,5.9,6c-3.5,2.4-6.7,5.7-10.5,6.8c-1.9,0.5-6.9-3.1-7-5
			C371.8,775.4,376.9,774.4,383.6,773.3z"/>
		<path fill="#323131" d="M347.2,792.6c-3.7-3.4-8.4-5.9-8.4-8.2c0.1-4.9,4.9-7.2,9.5-6c3.1,0.8,5.6,3.9,8.3,6
			C353.8,786.8,351,789.3,347.2,792.6z"/>
		<path fill="#323131" d="M278,753.7c6.6-0.1,12.4,4.8,11.8,9.4c-0.2,2.1-2.7,5.1-4.7,5.6c-3.9,1-11-5.8-10.4-9.9
			C275,756.6,277.3,754.7,278,753.7z"/>
		<path fill="#323131" d="M313.5,787.8c-4-4.3-6.9-7.5-9.8-10.7c2.4-1.6,4.6-4.2,7.1-4.5c5.2-0.6,9.9,2,10.4,7.5
			C321.3,781.9,317.2,784.2,313.5,787.8z"/>
		<path fill="#323131" d="M270.3,738.1c-3.8,2.9-6.8,5.6-7.2,5.3c-3.2-2.7-6.1-5.9-8.4-9.3c-0.3-0.5,3.9-5,4.3-4.8
			C262.4,731.4,265.5,734.1,270.3,738.1z"/>
		<path fill="#323131" d="M248.1,719.8c-2.9-1.6-6.3-2.7-8.6-4.9c-1.2-1.2-1.2-4.6-0.4-6.5c0.3-0.9,4.7-1.4,5.6-0.5
			c2.5,2.6,4.1,6,6.1,9C249.8,717.9,249,718.9,248.1,719.8z"/>
		<path fill="#323131" d="M227.3,702.7c-3-2.9-5.1-4.9-7.2-6.9c1.4-1.3,3.3-4.1,3.9-3.8c2.5,1.2,4.8,3.1,6.7,5.2
			C231.1,697.5,229,700,227.3,702.7z"/>
	</g>
</g>
<g id="Layer_2" display="none">
	<g display="inline">
		<path fill="#323131" d="M534.5,448.7c24-38.8,57.7-60.9,100.3-66.9c48.2-6.8,95-2.1,135.2,29.5c22.5,17.7,34.6,42.2,42.4,69.1
			c9.3,32.3,11.6,65.4,11.7,98.7c0.1,78.4-0.1,156.8,0.2,235.2c0,7.4-2.2,9.5-9.4,9.5c-39.1-0.3-78.2-0.1-117.3-0.1
			c-10,0-10.2-0.2-10.2-10c0-72.9,0.4-145.7-0.3-218.6c-0.2-16.9-2.3-34.2-6.3-50.7c-5.9-24.2-21.6-39.9-47.4-43.4
			c-22.4-3-43.9-1-62.7,13c-16.7,12.5-23.6,30.8-26.8,50.5c-2.3,14-3.7,28.2-3.7,42.4c-0.4,69.2-0.3,138.5,0,207.7
			c0,7.5-2.3,9.4-9.4,9.3c-38.8-0.3-77.7-0.1-116.5-0.2c-9.9,0-9.9-0.1-9.9-10.2c0-138,0-276,0-414c0-9.8,0-9.8,9.4-9.8
			c37.2,0,74.3,0.2,111.5-0.2c7.2-0.1,9.6,1.9,9.4,9.4C534.1,414.7,534.5,430.6,534.5,448.7z"/>
		<path fill="#323131" d="M186.3,606.7c0-69,0-138,0-207c0-10.1,0-10.1,9.9-10.1c39.1,0,78.2,0.1,117.2-0.1c7,0,9.6,1.8,9.6,9.3
			c-0.2,138.5-0.2,276.9,0,415.4c0,7.3-2.2,9.6-9.4,9.5c-38.6-0.3-77.2-0.1-115.8-0.2c-11.5,0-11.5-0.2-11.5-11.4
			C186.3,743.7,186.3,675.2,186.3,606.7z"/>
		<path fill="#323131" d="M254.4,333.5c-44.1,0-78.7-34.8-78.6-79c0.1-43.8,35.2-78.3,79.5-78.3c43.6,0.1,77.9,35.3,77.8,79.9
			C333.1,299,298,333.5,254.4,333.5z"/>
	</g>
</g>
</svg>
