<?xml version="1.0" encoding="utf-8"?>
<!-- Generator: Adobe Illustrator 21.0.2, SVG Export Plug-In . SVG Version: 6.00 Build 0)  -->
<svg version="1.1" id="Layer_1" xmlns="http://www.w3.org/2000/svg" xmlns:xlink="http://www.w3.org/1999/xlink" x="0px" y="0px"
	 viewBox="0 0 1191 1191" style="enable-background:new 0 0 1191 1191;" xml:space="preserve">
<style type="text/css">
	.st0{display:none;}
	.st1{fill:#CCE6D0;}
	.st2{fill:#2B4E37;}
	.st3{fill:#83FBBA;}
	.st4{fill:#3F866F;}
	.st5{fill:#55A272;}
	.st6{fill:#699277;}
	.st7{fill:#FFFFFF;}
</style>
<g id="Layer_1_1_" class="st0">
</g>
<g id="Layer_3">
	<polygon class="st1" points="111.8,316.2 595.5,36.9 1079.2,316.2 595.5,595.5 	"/>
	<path d="M595.5,1154.1"/>
	<polygon class="st2" points="1079.2,316.2 1079.2,874.8 595.5,1154.1 595.5,595.5 	"/>
	<g>
		<polygon class="st3" points="464.1,519.6 595.5,443.8 726.9,519.6 595.5,595.5 		"/>
		<polygon class="st4" points="595.5,747.2 464.1,671.4 464.1,519.6 595.5,595.5 		"/>
		<polygon class="st5" points="726.9,519.6 726.9,671.4 595.5,747.2 595.5,595.5 		"/>
	</g>
	<g>
		<polygon class="st6" points="595.5,443.8 726.9,519.6 726.9,671.4 595.5,595.5 		"/>
	</g>
	<polyline class="st6" points="304.6,986.1 595.5,1154.1 595.5,595.5 111.8,316.2 111.8,649.6 208.5,706.5 207.3,816.8 305.1,874.1 
			"/>
	<polygon class="st1" points="726.9,671.4 595.5,747.2 464.1,671.4 595.5,595.5 	"/>
	<polygon class="st2" points="464.1,671.4 464.1,519.6 595.5,443.8 595.5,595.5 	"/>
</g>
<g id="Layer_2">
	<g>
		<path class="st7" d="M194,291.8c11.2,0,21.9,3.2,32.1,9.7c0-4.9,3-7.4,9.1-7.4c6.5,0.8,9.7,3,9.7,6.8c-2.1,5.2-3.1,11.9-3.1,20.1
			l0.8,23.2c-1.4,4.1-4.9,6.1-10.5,6.1c-4.8,0-8.1-5-9.7-15c-4.7-14.5-14.2-21.7-28.3-21.7H191c-14.4,1.4-21.6,6.9-21.6,16.5v2.3
			c0,6.8,12,13.8,35.9,20.9c31.9,12.1,47.9,30,47.9,53.8c0,21.3-11.5,35.8-34.4,43.5c-8.7,2.4-17.7,3.6-27,3.6
			c-12.4,0-25.1-2.2-38.2-6.8c-1,4.5-3.5,6.8-7.4,6.8h-2.3c-5.5,0-8.2-2.2-8.2-6.8l1.5-15.6l-3-31.4c1.5-4,4.6-5.9,9.1-5.9h2.1
			c4.8,0,8.1,5.2,9.7,15.6c6,16,18.8,24,38.2,24h0.8c13.9-1.8,20.9-7.7,20.9-17.9v-3.8c0-10.3-16-20.8-47.9-31.4
			c-22-8.2-32.9-22.7-32.9-43.5c0-20.1,11.5-34,34.4-41.8C175.3,293,183.8,291.8,194,291.8z"/>
		<path class="st7" d="M340.6,291.8c37.3,0,62,17.2,74.1,51.7c2,10.4,3,19.2,3,26.2c0,39.3-16.2,65.7-48.7,79.2
			c-10.4,3.5-21.1,5.3-32.1,5.3c-34.5,0-57.7-15.7-69.7-47.1c-4-11.7-5.9-24.2-5.9-37.4c0-35.2,16.7-59.7,50.1-73.4
			C321.1,293.2,330.9,291.8,340.6,291.8z M303.8,373.3c0.7,34.7,10.2,54.4,28.5,59.1l7.4,0.8h0.8c22.9,0,34.4-20.5,34.4-61.4
			c0-39.4-11.3-59.1-33.8-59.1h-0.7C316.1,312.7,303.8,332.9,303.8,373.3z"/>
		<path class="st7" d="M590,278.1c20.9,3.8,31.5,16.5,31.9,37.9c-1.5,6.9-4.8,14-9.9,21.2c-13.6,16.1-32.5,24.2-56.6,24.2
			c-10.3-0.3-20.6-1.5-31-3.6c-11.7-2.1-32.5-7.2-62.4-15.5c-7.5-1.4-15.5-2.3-24.2-2.6c-17.5,0-29.1,6.5-35.1,19.6l-1.2,3.6v6.3
			c0,4.9,4.2,10.3,12.5,16c6.3,2.4,11.7,3.6,16.5,3.6h8.2c16.9-0.7,26.9-5.5,30-14.5l0.5-2.5v-1.6l-0.5-3.6h1.5l0.5,9.4
			c0,9.2-8.1,15.2-24.2,17.9l-9.9,0.5h-2.5c-17.2,0-28.4-7.9-33.6-23.7l-0.5-4.1v-1c0-10.9,6-19.1,18.1-24.7
			c6.8-2.7,13.2-4.1,19.1-4.1h8.7c11.3,0,35,4.6,71.1,13.8c13.7,2.7,26.5,4.1,38.4,4.1c17.3,0,32.8-3.4,46.3-10.2
			c10.4-9.1,16.1-18.4,17-28c-0.1-19.9-10.3-31.2-30.5-33.9c-21.3,0.7-35.2,6.6-41.7,17.9c-1.1,2.3-1.6,4.7-1.6,7.2
			c0,6.7,3.5,11.2,10.4,13.5c3.2,1,6.1,1.5,8.7,1.5c10.8,0,18.5-3.3,23.2-9.9v-0.5h1v1.6c0,5.8-5.3,10.1-16,12.8l-7.2,1
			c-9.4,0-16.5-5.2-21.1-15.5l-0.5-5.1C543.6,288.3,559.1,278.5,590,278.1z M548.9,452.8h-9.2c-9.5,0-18.1-4.9-25.5-14.8
			c-12.5,9.9-27.6,14.8-45.3,14.8h-0.7c-19.3,0-32.4-7.6-39.4-22.9c-2-6.8-3-13-3-18.6c0-28,20-45.1,60.1-51.2l24.4-1.5v-11.9
			c0-23.2-8.4-34.7-25.2-34.7c-12.8,1.1-19.3,4.8-19.3,11v1.5l4.4,13.3c0,8.6-6.1,14.3-18.4,17.1h-2.3c-8.7,0-14.8-4-18.4-11.9
			l-0.8-5.3v-7.4c0-12,9.7-22.8,29-32.6c9.7-4,20.3-5.9,31.8-5.9c26,0,43.6,8.9,52.7,26.7c3.4,7.1,5.1,15,5.1,23.7V452.8z
			 M465.9,407.5c0.9,12.4,5.8,18.6,14.8,18.6c12.7,0,22.6-4,29.6-11.9v-36.4C480.7,381.9,465.9,391.8,465.9,407.5z"/>
		<path class="st7" d="M572.1,489.8c-20.9-3.8-31.5-16.5-31.9-37.9c1.5-6.9,4.8-13.9,9.9-21.1c13.6-16.2,32.5-24.4,56.6-24.4
			c10.3,0.4,20.6,1.6,31,3.6c11.7,2.1,32.5,7.2,62.4,15.5c7.5,1.4,15.5,2.3,24.2,2.6c17.5,0,29.1-6.5,35.1-19.6l1.2-3.6v-6.3
			c0-4.9-4.2-10.3-12.5-16c-6.3-2.4-11.7-3.6-16.5-3.6h-8.2c-16.9,0.8-26.9,5.6-30,14.5l-0.5,2.6v1.5l0.5,3.6h-1.5l-0.5-9.2
			c0-9.3,8.1-15.4,24.2-18.1l9.9-0.5h2.5c17.2,0,28.4,7.9,33.6,23.7l0.5,4.1v1c0,10.9-6,19.2-18.1,24.9c-6.8,2.7-13.2,4.1-19.1,4.1
			H716c-11.3,0-35-4.7-71.1-14c-13.7-2.7-26.5-4.1-38.4-4.1c-17.3,0-32.8,3.5-46.3,10.4c-10.4,9-16.1,18.3-17,27.8
			c0.1,19.9,10.3,31.2,30.5,33.9c21.3-0.7,35.2-6.6,41.7-17.9c1.1-2.2,1.6-4.6,1.6-7.2c0-6.7-3.5-11.1-10.4-13.3
			c-3.2-1.1-6.1-1.6-8.7-1.6c-10.8,0-18.5,3.3-23.2,9.9v0.5h-1v-1.5c0-5.9,5.3-10.3,16-13l7.2-1c9.4,0,16.5,5.2,21.1,15.5l0.5,5.1
			C618.5,479.7,603,489.4,572.1,489.8z M587.1,377.1c0-36.9-2.3-55.3-6.8-55.3l-19.4-4.4l-3-7.6c0-6.9,5.8-10.4,17.3-10.4l38.9-5.3
			c5.9,0,8.9,4.7,8.9,14.2c9.5-11,22.6-16.5,39-16.5c19.4,1.5,29.1,10,29.1,25.5c0,12.3-6.3,19.5-18.8,21.6
			c-12.4,0-18.6-4.7-18.6-14.2l-1.5-5.9l-3.8-0.8c-9.4,0-16.9,9.5-22.4,28.5V410c1.4,27-8.7,41.3-30.5,42.8l-27.2-0.2
			c-4-1.6-5.9-4.9-5.9-9.7c0-6.1,6.2-9.9,18.6-11.2c4.1-2.6,6.1-6.1,6.1-10.5L587.1,377.1z"/>
	</g>
	<g>
		<path class="st7" d="M724.4,653.9c-11.4,17-25.6,30-42.6,38.9s-34.8,13.4-53.1,13.4c-5.1,0-10.8-0.4-17-1.2s-12.5-2.1-18.9-3.9
			c-6.4-1.8-12.5-4.1-18.5-6.9c-6-2.8-11.4-6.1-16.2-9.9c-2.7,2.4-5.8,4.9-9.3,7.5s-7.5,4.9-12,7.1c-4.5,2.2-9.3,3.9-14.6,5.3
			c-5.3,1.3-11.2,2-17.6,2c-8.9,0-17-1.4-24.1-4.3c-7.2-2.8-13.3-6.7-18.3-11.6c-5-4.9-8.9-10.6-11.6-17.2
			c-2.7-6.6-4.1-13.7-4.1-21.3c0-8.9,1.7-17.3,5.1-25.2c3.4-7.8,7.9-15.1,13.6-21.9c5.7-6.8,12.1-12.7,19.3-17.9
			c7.2-5.1,14.5-9.3,22.1-12.6c0-8.7,1.8-18.2,5.5-28.6c3.7-10.4,8.7-20.1,15.2-29.2c6.5-9.1,14.1-16.6,22.7-22.7
			c8.7-6.1,18-9.1,28-9.1c7.3,0,13.4,2.1,18.3,6.3c4.9,4.2,7.3,10.2,7.3,18.1c0,7-2.9,13.6-8.7,19.7c-5.8,6.1-12.8,11.8-20.9,17
			c-8.1,5.3-16.4,9.9-25,14c-8.5,4.1-15.4,7.6-20.5,10.5c0.3,18.4,4.2,36,11.8,52.7c7.6,16.8,17.7,31.6,30.4,44.6
			c10-8.9,19.1-18.5,27.2-28.8c8.1-10.3,15.9-19.8,23.3-28.6c7.4-8.8,14.9-16.1,22.3-21.9c7.4-5.8,15.3-8.7,23.7-8.7
			c7,0,12.9,1.9,17.6,5.7c4.7,3.8,7.1,8.8,7.1,15c0,2.2-0.6,4.6-1.8,7.3s-2.8,5-4.7,6.9c-2.2-4.6-5.7-8.5-10.5-11.6
			c-4.9-3.1-10.8-4.7-17.9-4.7c-5.1,0-9.9,1-14.4,3s-8.7,4.7-12.6,8.1c-3.9,3.4-7.8,7.2-11.6,11.6c-3.8,4.3-7.6,8.9-11.4,13.8
			c-12.2,14.3-23.3,26.2-33.3,35.7c8.1,8.1,17.9,15,29.2,20.7c11.4,5.7,23,8.5,34.9,8.5c8.4,0,16.6-1.2,24.7-3.7
			c8.1-2.4,15.8-5.8,23.1-10.1s14.1-9.3,20.3-15s11.6-11.9,16.2-18.7L724.4,653.9z M468.4,645.4c0,6.5,1,12.8,3,19.1
			c2,6.2,4.9,11.7,8.5,16.4c3.7,4.7,8,8.5,13.2,11.4c5.1,2.8,11,4.3,17.4,4.3c10,0,18.5-1.5,25.6-4.5c7-3,13.1-6.5,18.3-10.5
			c-14.9-12.4-26.6-27.8-35.1-46c-8.5-18.3-12.8-37.1-12.8-56.6c-6.2,2.7-11.7,6.4-16.4,11.2c-4.7,4.7-8.7,10.1-12,16
			c-3.2,6-5.7,12.3-7.3,19.1C469.2,631.9,468.4,638.7,468.4,645.4z M587.3,507.1c0-11.6-4.9-17.4-14.6-17.4c-6,0-12.2,2.8-18.9,8.3
			c-6.6,5.5-12.2,13.6-16.8,24.1c-4.1,9.5-6.5,17.8-7.3,25s-1.2,13.5-1.2,18.9c7.8-3.5,15.3-7.2,22.5-11s13.5-8,18.9-12.6
			s9.7-9.8,12.8-15.6C585.7,520.9,587.3,514.4,587.3,507.1z"/>
	</g>
	<g>
		<path class="st7" d="M698.9,709.6c-0.7-42.9,16.3-68.4,50.9-76.4l17-1.5c26.9,0,43,8.9,48.2,26.7l0.8,8.1v0.8
			c0,10.3-6.7,16.2-20.1,17.8c-10.6,0-16.9-4.9-18.6-14.8v-0.8l3-11v-0.8c-2-4-6.9-5.9-14.8-5.9c-18.8,0-28.2,14.6-28.2,43.8v14.2
			h30.5c5.9,0,8.9,3.2,8.9,9.5v3.8c0,6.4-3,9.6-8.9,9.6h-30.5l0.2,89.9c0.8,27.9-9.3,42.2-30.1,42.8l-26.8-0.2
			c-4-1.6-5.9-4.9-5.9-9.7c0-6.1,6.1-9.9,18.4-11.2c4-2.6,5.9-6.1,5.9-10.5L698.9,709.6z"/>
		<path class="st7" d="M906.2,865.2H897c-9.5,0-18.1-4.9-25.5-14.8c-12.5,9.9-27.6,14.8-45.3,14.8h-0.7c-19.3,0-32.4-7.6-39.4-22.9
			c-2-6.8-3-13-3-18.6c0-28,20-45.1,60.1-51.2l24.4-1.5v-11.9c0-23.2-8.4-34.7-25.2-34.7c-12.8,1.1-19.3,4.8-19.3,11v1.5l4.4,13.3
			c0,8.6-6.1,14.3-18.4,17.1h-2.3c-8.7,0-14.8-4-18.4-11.9l-0.8-5.3v-7.4c0-12,9.7-22.8,29-32.6c9.7-4,20.3-5.9,31.8-5.9
			c26,0,43.6,8.9,52.7,26.7c3.4,7.1,5.1,15,5.1,23.7L906.2,865.2L906.2,865.2z M823.2,819.9c0.9,12.4,5.8,18.6,14.8,18.6
			c12.7,0,22.6-4,29.6-11.9v-36.4C838,794.4,823.2,804.2,823.2,819.9z"/>
		<path class="st7" d="M981.5,823.2c1.4,27-8.7,41.3-30.5,42.8l-27.2-0.2c-4-1.6-5.9-4.9-5.9-9.7c0-6.1,6.2-9.9,18.6-11.2
			c4.1-2.6,6.1-6.1,6.1-10.5V686.9c-0.2-18.5-4-27.8-11.4-27.8c-8.1-0.7-12.2-3.3-12.2-8.1v-5.3c0.3-4.2,4.6-6.9,12.8-8.1l41.5-5.9
			c4.9,1.1,7.6,3.6,7.9,7.4L981.5,823.2z"/>
		<path class="st7" d="M1059.3,823.2c1.4,27-8.7,41.3-30.5,42.8l-27.2-0.2c-4-1.6-5.9-4.9-5.9-9.7c0-6.1,6.2-9.9,18.6-11.2
			c4.1-2.6,6.1-6.1,6.1-10.5V686.9c-0.2-18.5-4-27.8-11.4-27.8c-8.1-0.7-12.2-3.3-12.2-8.1v-5.3c0.3-4.2,4.6-6.9,12.8-8.1l41.5-5.9
			c4.9,1.1,7.6,3.6,7.9,7.4L1059.3,823.2z"/>
	</g>
</g>
</svg>
