<svg id="Logotyp" xmlns="http://www.w3.org/2000/svg" viewBox="0 0 238.71 30.53"><defs><style>.cls-1{fill:#fff;}</style></defs><title>Tmu-neg-RGB</title><path class="cls-1" d="M10.93,19.27a.76.76,0,0,0,0-.15c0-.07,0-.13,0-.18h0l-.18,0h-.05c-.47,0-1.16-.06-1.94-.06h0c-.64,0-1.22,0-1.67,0l-.31,0-.19,0h0s0,.11,0,.18l0,.29c0,.45,0,1,0,1.69s0,1.35,0,1.81c0,.07,0,.12,0,.18s0,.13,0,.18h0l.19,0h.09c.47,0,1.14.06,1.89.06h0c.77,0,1.46,0,1.93-.06h.06l.18,0h0c0-.05,0-.11,0-.18s0-.35,0-.56c0-.41,0-.9,0-1.43C11,20.38,11,19.73,10.93,19.27Z" transform="translate(-6.48 -18.85)"/><path class="cls-1" d="M17.44,19.27c0-.05,0-.1,0-.15s0-.13,0-.18h0l-.18,0h-.06c-.46,0-1.16-.06-1.93-.06h0c-.64,0-1.23,0-1.67,0l-.32,0-.18,0h0a1.41,1.41,0,0,1,0,.18c0,.09,0,.19,0,.29,0,.45,0,1,0,1.69s0,1.35,0,1.81c0,.07,0,.12,0,.18a1.41,1.41,0,0,1,0,.18h0l.18,0h.1c.46,0,1.14.06,1.89.06h0c.77,0,1.46,0,1.92-.06h.07l.18,0h0c0-.05,0-.11,0-.18s0-.35,0-.56c0-.41,0-.9,0-1.43C17.5,20.38,17.48,19.73,17.44,19.27Z" transform="translate(-6.48 -18.85)"/><path class="cls-1" d="M24,19.27c0-.05,0-.1,0-.15s0-.13,0-.18h0l-.19,0h-.05c-.47,0-1.16-.06-1.93-.06h0c-.64,0-1.23,0-1.68,0l-.31,0-.18,0h0s0,.11,0,.18a2.64,2.64,0,0,0,0,.29c0,.45-.05,1-.05,1.69s0,1.35.05,1.81c0,.07,0,.12,0,.18s0,.13,0,.18h0l.18,0h.09c.47,0,1.15.06,1.9.06h0c.77,0,1.46,0,1.92-.06h.06l.19,0h0c0-.05,0-.11,0-.18s0-.35,0-.56c0-.41,0-.9,0-1.43C24,20.38,24,19.73,24,19.27Z" transform="translate(-6.48 -18.85)"/><path class="cls-1" d="M30.45,19.27a.76.76,0,0,0,0-.15c0-.07,0-.13,0-.18h0l-.18,0h0c-.47,0-1.16-.06-1.94-.06h0c-.64,0-1.22,0-1.67,0l-.31,0-.19,0h0s0,.11,0,.18l0,.29c0,.45,0,1,0,1.69s0,1.35.05,1.81c0,.07,0,.12,0,.18s0,.13,0,.18h0l.19,0h.09c.47,0,1.14.06,1.89.06h0c.77,0,1.46,0,1.93-.06h.06l.18,0h0c0-.05,0-.11,0-.18s0-.35,0-.56c0-.41,0-.9,0-1.43C30.51,20.38,30.49,19.73,30.45,19.27Z" transform="translate(-6.48 -18.85)"/><path class="cls-1" d="M37,19.27c0-.05,0-.1,0-.15s0-.13,0-.18h0l-.18,0h-.06c-.46,0-1.16-.06-1.93-.06h0c-.64,0-1.23,0-1.67,0l-.32,0-.18,0h0s0,.11,0,.18,0,.19,0,.29c0,.45,0,1,0,1.69s0,1.35.06,1.81c0,.07,0,.12,0,.18s0,.13,0,.18h0l.18,0h.1c.46,0,1.14.06,1.89.06h0c.77,0,1.46,0,1.92-.06h.07l.18,0h0c0-.05,0-.11,0-.18s0-.35,0-.56c0-.41,0-.9,0-1.43C37,20.38,37,19.73,37,19.27Z" transform="translate(-6.48 -18.85)"/><path class="cls-1" d="M50,19.27a.76.76,0,0,0,0-.15.9.9,0,0,0,0-.18h0l-.18,0h0c-.47,0-1.16-.06-1.94-.06h0c-.64,0-1.22,0-1.67,0l-.31,0-.19,0h0s0,.11,0,.18l0,.29c0,.45,0,1,0,1.69s0,1.35,0,1.81c0,.07,0,.12,0,.18s0,.13,0,.18h0l.19,0h.09c.46,0,1.14.06,1.89.06h0c.77,0,1.46,0,1.93-.06h.06l.18,0h0a.9.9,0,0,0,0-.18c0-.16,0-.35,0-.56,0-.41,0-.9,0-1.43C50,20.38,50,19.73,50,19.27Z" transform="translate(-6.48 -18.85)"/><path class="cls-1" d="M56.48,19.27a.76.76,0,0,1,0-.15c0-.07,0-.13,0-.18h0l-.18,0h-.06c-.46,0-1.15-.06-1.93-.06h0c-.64,0-1.23,0-1.67,0l-.32,0-.18,0h0s0,.11,0,.18,0,.19,0,.29c0,.45,0,1,0,1.69s0,1.35.06,1.81c0,.07,0,.12,0,.18s0,.13,0,.18h0l.18,0h.1c.46,0,1.14.06,1.89.06h0c.77,0,1.46,0,1.92-.06h.07l.18,0h0c0-.05,0-.11,0-.18s0-.35,0-.56c0-.41,0-.9,0-1.43C56.53,20.38,56.51,19.73,56.48,19.27Z" transform="translate(-6.48 -18.85)"/><path class="cls-1" d="M63,19.27c0-.05,0-.1,0-.15s0-.13,0-.18h0l-.19,0h-.05c-.47,0-1.16-.06-1.93-.06h0c-.65,0-1.23,0-1.68,0l-.31,0-.18,0h0a.9.9,0,0,0,0,.18,2.64,2.64,0,0,0,0,.29c0,.45,0,1,0,1.69s0,1.35,0,1.81c0,.07,0,.12,0,.18a.9.9,0,0,0,0,.18h0l.18,0h.09c.47,0,1.14.06,1.9.06h0c.77,0,1.46,0,1.92-.06h.06l.19,0h0c0-.05,0-.11,0-.18s0-.35,0-.56c0-.41,0-.9,0-1.43C63,20.38,63,19.73,63,19.27Z" transform="translate(-6.48 -18.85)"/><path class="cls-1" d="M69.49,19.27a.76.76,0,0,0,0-.15c0-.07,0-.13,0-.18h0l-.18,0h0c-.47,0-1.16-.06-1.94-.06h0c-.64,0-1.22,0-1.67,0l-.31,0-.19,0h0a1.41,1.41,0,0,1,0,.18c0,.09,0,.19,0,.29,0,.45,0,1,0,1.69s0,1.35,0,1.81a1.15,1.15,0,0,1,0,.18,1.41,1.41,0,0,1,0,.18h0l.19,0h.09c.47,0,1.14.06,1.89.06h0c.77,0,1.46,0,1.93-.06h.06l.18,0h0c0-.05,0-.11,0-.18s0-.35,0-.56c0-.41,0-.9,0-1.43C69.55,20.38,69.53,19.73,69.49,19.27Z" transform="translate(-6.48 -18.85)"/><path class="cls-1" d="M82.51,19.27c0-.05,0-.1,0-.15a.9.9,0,0,0,0-.18h0l-.18,0h-.05c-.47,0-1.16-.06-1.93-.06h0c-.65,0-1.23,0-1.68,0l-.31,0-.18,0h0a.9.9,0,0,0,0,.18,2.64,2.64,0,0,0,0,.29c0,.45,0,1,0,1.69s0,1.35,0,1.81c0,.07,0,.12,0,.18a.9.9,0,0,0,0,.18h0l.18,0h.09c.47,0,1.14.06,1.9.06h0c.77,0,1.46,0,1.92-.06h.06l.18,0h0a.9.9,0,0,0,0-.18c0-.16,0-.35,0-.56,0-.41,0-.9,0-1.43C82.56,20.38,82.54,19.73,82.51,19.27Z" transform="translate(-6.48 -18.85)"/><path class="cls-1" d="M102,19.27c0-.05,0-.1,0-.15a.9.9,0,0,0,0-.18h0l-.18,0h0c-.47,0-1.16-.06-1.93-.06h0c-.65,0-1.23,0-1.68,0l-.31,0-.18,0h0a.9.9,0,0,0,0,.18,2.64,2.64,0,0,0,0,.29c0,.45-.05,1-.05,1.69s0,1.35.05,1.81c0,.07,0,.12,0,.18a.9.9,0,0,0,0,.18h0l.18,0h.09c.47,0,1.14.06,1.9.06h0c.76,0,1.45,0,1.92-.06h.06l.18,0h0a.9.9,0,0,0,0-.18c0-.16,0-.35,0-.56,0-.41,0-.9,0-1.43C102.08,20.38,102.06,19.73,102,19.27Z" transform="translate(-6.48 -18.85)"/><path class="cls-1" d="M115,19.27a.76.76,0,0,1,0-.15,1.41,1.41,0,0,1,0-.18h0l-.18,0h-.06c-.46,0-1.16-.06-1.93-.06h0c-.64,0-1.23,0-1.68,0l-.31,0-.18,0h0s0,.11,0,.18,0,.19,0,.29c0,.45,0,1,0,1.69s0,1.35.06,1.81c0,.07,0,.12,0,.18s0,.13,0,.18h0l.18,0h.1c.46,0,1.14.06,1.89.06h0c.77,0,1.46,0,1.92-.06h.07l.18,0h0a1.41,1.41,0,0,1,0-.18c0-.16,0-.35,0-.56,0-.41,0-.9,0-1.43C115.09,20.38,115.07,19.73,115,19.27Z" transform="translate(-6.48 -18.85)"/><path class="cls-1" d="M121.55,19.27c0-.05,0-.1,0-.15a.9.9,0,0,0,0-.18h0l-.18,0h0c-.47,0-1.16-.06-1.94-.06h0c-.64,0-1.22,0-1.67,0l-.31,0-.18,0h0a.9.9,0,0,0,0,.18,2.64,2.64,0,0,0,0,.29c0,.45,0,1,0,1.69s0,1.35,0,1.81c0,.07,0,.12,0,.18a.9.9,0,0,0,0,.18h0l.18,0h.09c.47,0,1.14.06,1.89.06h0c.78,0,1.46,0,1.93-.06h.06l.18,0h0a.9.9,0,0,0,0-.18c0-.16,0-.35,0-.56,0-.41,0-.9,0-1.43C121.6,20.38,121.58,19.73,121.55,19.27Z" transform="translate(-6.48 -18.85)"/><path class="cls-1" d="M128.05,19.27c0-.05,0-.1,0-.15s0-.13,0-.18h0l-.18,0h-.06c-.46,0-1.15-.06-1.93-.06h0c-.64,0-1.23,0-1.67,0l-.31,0-.19,0h0a1.41,1.41,0,0,1,0,.18c0,.09,0,.19,0,.29,0,.45,0,1,0,1.69s0,1.35.05,1.81a1.15,1.15,0,0,1,0,.18,1.41,1.41,0,0,1,0,.18h0l.19,0H124c.47,0,1.14.06,1.89.06h0c.77,0,1.46,0,1.93-.06h.06l.18,0h0c0-.05,0-.11,0-.18s0-.35,0-.56c0-.41,0-.9,0-1.43C128.11,20.38,128.09,19.73,128.05,19.27Z" transform="translate(-6.48 -18.85)"/><path class="cls-1" d="M134.56,19.27c0-.05,0-.1,0-.15a.9.9,0,0,0,0-.18h0l-.18,0h-.05c-.47,0-1.16-.06-1.94-.06h0c-.63,0-1.22,0-1.67,0l-.31,0-.18,0h0s0,.11,0,.18,0,.19,0,.29c0,.45-.05,1-.05,1.69s0,1.35.06,1.81c0,.07,0,.12,0,.18s0,.13,0,.18h0l.18,0h.1c.46,0,1.13.06,1.88.06h0c.76,0,1.45,0,1.92-.06h.06l.18,0h0a.9.9,0,0,0,0-.18c0-.16,0-.35,0-.56,0-.41,0-.9,0-1.43C134.61,20.38,134.59,19.73,134.56,19.27Z" transform="translate(-6.48 -18.85)"/><path class="cls-1" d="M147.56,19.27a.76.76,0,0,0,0-.15c0-.07,0-.13,0-.18h0l-.18,0h0c-.47,0-1.16-.06-1.93-.06h0c-.64,0-1.23,0-1.68,0l-.31,0-.18,0h0s0,.11,0,.18,0,.19,0,.29c0,.45,0,1,0,1.69s0,1.35.06,1.81c0,.07,0,.12,0,.18s0,.13,0,.18h0l.18,0h.1c.46,0,1.14.06,1.89.06h0c.76,0,1.45,0,1.92-.06h.06l.18,0h0c0-.05,0-.11,0-.18s0-.35,0-.56c0-.41,0-.9,0-1.43C147.62,20.38,147.6,19.73,147.56,19.27Z" transform="translate(-6.48 -18.85)"/><path class="cls-1" d="M24,25.78c0-.06,0-.11,0-.16s0-.13,0-.18h0l-.19,0h-.05c-.47,0-1.16-.07-1.93-.07h0c-.64,0-1.23,0-1.68,0l-.31,0-.18,0h0s0,.12,0,.18a2.66,2.66,0,0,0,0,.3c0,.45-.05,1-.05,1.69s0,1.35.05,1.8c0,.07,0,.13,0,.19s0,.12,0,.18h0l.18,0h.09c.47,0,1.15.06,1.9.06h0c.77,0,1.46,0,1.92-.06h.06l.19,0h0c0-.06,0-.12,0-.18s0-.35,0-.57c0-.4,0-.89,0-1.42C24,26.89,24,26.24,24,25.78Z" transform="translate(-6.48 -18.85)"/><path class="cls-1" d="M50,25.78a.81.81,0,0,0,0-.16,1,1,0,0,0,0-.18h0l-.18,0h0c-.47,0-1.16-.07-1.94-.07h0c-.64,0-1.22,0-1.67,0l-.31,0-.19,0h0s0,.12,0,.18,0,.19,0,.3c0,.45,0,1,0,1.69s0,1.35,0,1.8c0,.07,0,.13,0,.19s0,.12,0,.18h0l.19,0h.09c.46,0,1.14.06,1.89.06h0c.77,0,1.46,0,1.93-.06h.06l.18,0h0a1.1,1.1,0,0,0,0-.18c0-.17,0-.35,0-.57,0-.4,0-.89,0-1.42C50,26.89,50,26.24,50,25.78Z" transform="translate(-6.48 -18.85)"/><path class="cls-1" d="M82.51,25.78c0-.06,0-.11,0-.16a1,1,0,0,0,0-.18h0l-.18,0h-.05c-.47,0-1.16-.07-1.93-.07h0c-.65,0-1.23,0-1.68,0l-.31,0-.18,0h0a1,1,0,0,0,0,.18,2.66,2.66,0,0,0,0,.3c0,.45,0,1,0,1.69s0,1.35,0,1.8c0,.07,0,.13,0,.19a1.1,1.1,0,0,0,0,.18h0l.18,0h.09c.47,0,1.14.06,1.9.06h0c.77,0,1.46,0,1.92-.06h.06l.18,0h0a1.1,1.1,0,0,0,0-.18c0-.17,0-.35,0-.57,0-.4,0-.89,0-1.42C82.56,26.89,82.54,26.24,82.51,25.78Z" transform="translate(-6.48 -18.85)"/><path class="cls-1" d="M95.52,25.78a.92.92,0,0,1,0-.16c0-.06,0-.13,0-.18h0l-.18,0h-.06c-.46,0-1.16-.07-1.93-.07h0c-.64,0-1.23,0-1.67,0l-.32,0-.18,0h0s0,.12,0,.18,0,.19,0,.3c0,.45,0,1,0,1.69s0,1.35.06,1.8c0,.07,0,.13,0,.19s0,.12,0,.18h0l.18,0h.1c.46,0,1.14.06,1.89.06h0c.77,0,1.46,0,1.92-.06h.07l.18,0h0c0-.06,0-.12,0-.18s0-.35,0-.57c0-.4,0-.89,0-1.42C95.57,26.89,95.55,26.24,95.52,25.78Z" transform="translate(-6.48 -18.85)"/><path class="cls-1" d="M115,25.78a.92.92,0,0,1,0-.16,1.24,1.24,0,0,1,0-.18h0l-.18,0h-.06c-.46,0-1.16-.07-1.93-.07h0c-.64,0-1.23,0-1.68,0l-.31,0-.18,0h0s0,.12,0,.18,0,.19,0,.3c0,.45,0,1,0,1.69s0,1.35.06,1.8c0,.07,0,.13,0,.19s0,.12,0,.18h0l.18,0h.1c.46,0,1.14.06,1.89.06h0c.77,0,1.46,0,1.92-.06h.07l.18,0h0a1.1,1.1,0,0,1,0-.18c0-.17,0-.35,0-.57,0-.4,0-.89,0-1.42C115.09,26.89,115.07,26.24,115,25.78Z" transform="translate(-6.48 -18.85)"/><path class="cls-1" d="M134.56,25.78c0-.06,0-.11,0-.16a1,1,0,0,0,0-.18h0l-.18,0h-.05c-.47,0-1.16-.07-1.94-.07h0c-.63,0-1.22,0-1.67,0l-.31,0-.18,0h0s0,.12,0,.18,0,.19,0,.3c0,.45-.05,1-.05,1.69s0,1.35.06,1.8c0,.07,0,.13,0,.19s0,.12,0,.18h0l.18,0h.1c.46,0,1.13.06,1.88.06h0c.76,0,1.45,0,1.92-.06h.06l.18,0h0a1.1,1.1,0,0,0,0-.18c0-.17,0-.35,0-.57,0-.4,0-.89,0-1.42C134.61,26.89,134.59,26.24,134.56,25.78Z" transform="translate(-6.48 -18.85)"/><path class="cls-1" d="M147.56,25.78a.81.81,0,0,0,0-.16c0-.06,0-.13,0-.18h0l-.18,0h0c-.47,0-1.16-.07-1.93-.07h0c-.64,0-1.23,0-1.68,0l-.31,0-.18,0h0s0,.12,0,.18,0,.19,0,.3c0,.45,0,1,0,1.69s0,1.35.06,1.8c0,.07,0,.13,0,.19s0,.12,0,.18h0l.18,0h.1c.46,0,1.14.06,1.89.06h0c.76,0,1.45,0,1.92-.06h.06l.18,0h0c0-.06,0-.12,0-.18s0-.35,0-.57c0-.4,0-.89,0-1.42C147.62,26.89,147.6,26.24,147.56,25.78Z" transform="translate(-6.48 -18.85)"/><path class="cls-1" d="M24,32.28c0-.05,0-.11,0-.15s0-.13,0-.19h0l-.19,0h-.05c-.47,0-1.16-.06-1.93-.06h0c-.64,0-1.23,0-1.68,0l-.31,0-.18,0h0c0,.06,0,.12,0,.19a2.33,2.33,0,0,0,0,.29c0,.45-.05,1-.05,1.69s0,1.35.05,1.81c0,.06,0,.12,0,.18s0,.13,0,.18h0l.18,0h.09c.47,0,1.15.06,1.9.06h0c.77,0,1.46,0,1.92-.06h.06l.19,0h0c0-.05,0-.12,0-.18s0-.35,0-.56c0-.41,0-.9,0-1.43C24,33.39,24,32.74,24,32.28Z" transform="translate(-6.48 -18.85)"/><path class="cls-1" d="M50,32.28a.71.71,0,0,0,0-.15,1.11,1.11,0,0,0,0-.19h0l-.18,0h0c-.47,0-1.16-.06-1.94-.06h0c-.64,0-1.22,0-1.67,0l-.31,0-.19,0h0c0,.06,0,.12,0,.19s0,.18,0,.29c0,.45,0,1,0,1.69s0,1.35,0,1.81c0,.06,0,.12,0,.18s0,.13,0,.18h0l.19,0h.09c.46,0,1.14.06,1.89.06h0c.77,0,1.46,0,1.93-.06h.06l.18,0h0a1,1,0,0,0,0-.18c0-.16,0-.35,0-.56,0-.41,0-.9,0-1.43C50,33.39,50,32.74,50,32.28Z" transform="translate(-6.48 -18.85)"/><path class="cls-1" d="M56.48,32.28a.81.81,0,0,1,0-.15c0-.07,0-.13,0-.19h0l-.18,0h-.06c-.46,0-1.15-.06-1.93-.06h0c-.64,0-1.23,0-1.67,0l-.32,0-.18,0h0c0,.06,0,.12,0,.19s0,.18,0,.29c0,.45,0,1,0,1.69s0,1.35.06,1.81c0,.06,0,.12,0,.18s0,.13,0,.18h0l.18,0h.1c.46,0,1.14.06,1.89.06h0c.77,0,1.46,0,1.92-.06h.07l.18,0h0c0-.05,0-.12,0-.18s0-.35,0-.56c0-.41,0-.9,0-1.43C56.53,33.39,56.51,32.74,56.48,32.28Z" transform="translate(-6.48 -18.85)"/><path class="cls-1" d="M63,32.28c0-.05,0-.11,0-.15s0-.13,0-.19h0l-.19,0h-.05c-.47,0-1.16-.06-1.93-.06h0c-.65,0-1.23,0-1.68,0l-.31,0-.18,0h0a1.11,1.11,0,0,0,0,.19,2.33,2.33,0,0,0,0,.29c0,.45,0,1,0,1.69s0,1.35,0,1.81c0,.06,0,.12,0,.18a1,1,0,0,0,0,.18h0l.18,0h.09c.47,0,1.14.06,1.9.06h0c.77,0,1.46,0,1.92-.06h.06l.19,0h0c0-.05,0-.12,0-.18s0-.35,0-.56c0-.41,0-.9,0-1.43C63,33.39,63,32.74,63,32.28Z" transform="translate(-6.48 -18.85)"/><path class="cls-1" d="M69.49,32.28a.71.71,0,0,0,0-.15c0-.07,0-.13,0-.19h0l-.18,0h0c-.47,0-1.16-.06-1.94-.06h0c-.64,0-1.22,0-1.67,0l-.31,0-.19,0h0a1.37,1.37,0,0,1,0,.19c0,.08,0,.18,0,.29,0,.45,0,1,0,1.69s0,1.35,0,1.81a1.09,1.09,0,0,1,0,.18,1.24,1.24,0,0,1,0,.18h0l.19,0h.09c.47,0,1.14.06,1.89.06h0c.77,0,1.46,0,1.93-.06h.06l.18,0h0c0-.05,0-.12,0-.18s0-.35,0-.56c0-.41,0-.9,0-1.43C69.55,33.39,69.53,32.74,69.49,32.28Z" transform="translate(-6.48 -18.85)"/><path class="cls-1" d="M82.51,32.28c0-.05,0-.11,0-.15a1.11,1.11,0,0,0,0-.19h0l-.18,0h-.05c-.47,0-1.16-.06-1.93-.06h0c-.65,0-1.23,0-1.68,0l-.31,0-.18,0h0a1.11,1.11,0,0,0,0,.19,2.33,2.33,0,0,0,0,.29c0,.45,0,1,0,1.69s0,1.35,0,1.81c0,.06,0,.12,0,.18a1,1,0,0,0,0,.18h0l.18,0h.09c.47,0,1.14.06,1.9.06h0c.77,0,1.46,0,1.92-.06h.06l.18,0h0a1,1,0,0,0,0-.18c0-.16,0-.35,0-.56,0-.41,0-.9,0-1.43C82.56,33.39,82.54,32.74,82.51,32.28Z" transform="translate(-6.48 -18.85)"/><path class="cls-1" d="M89,32.28c0-.05,0-.11,0-.15s0-.13,0-.19h0l-.18,0h0c-.47,0-1.16-.06-1.94-.06h0c-.64,0-1.23,0-1.67,0l-.31,0-.19,0h0c0,.06,0,.12,0,.19s0,.18,0,.29c0,.45,0,1,0,1.69s0,1.35,0,1.81c0,.06,0,.12,0,.18s0,.13,0,.18h0l.19,0h.09c.46,0,1.14.06,1.89.06h0c.77,0,1.46,0,1.93-.06h.06l.18,0h0c0-.05,0-.12,0-.18s0-.35,0-.56c0-.41,0-.9,0-1.43C89.07,33.39,89.05,32.74,89,32.28Z" transform="translate(-6.48 -18.85)"/><path class="cls-1" d="M115,32.28a.81.81,0,0,1,0-.15,1.37,1.37,0,0,1,0-.19h0l-.18,0h-.06c-.46,0-1.16-.06-1.93-.06h0c-.64,0-1.23,0-1.68,0l-.31,0-.18,0h0c0,.06,0,.12,0,.19s0,.18,0,.29c0,.45,0,1,0,1.69s0,1.35.06,1.81c0,.06,0,.12,0,.18s0,.13,0,.18h0l.18,0h.1c.46,0,1.14.06,1.89.06h0c.77,0,1.46,0,1.92-.06h.07l.18,0h0a1.24,1.24,0,0,1,0-.18c0-.16,0-.35,0-.56,0-.41,0-.9,0-1.43C115.09,33.39,115.07,32.74,115,32.28Z" transform="translate(-6.48 -18.85)"/><path class="cls-1" d="M134.56,32.28c0-.05,0-.11,0-.15a1.11,1.11,0,0,0,0-.19h0l-.18,0h-.05c-.47,0-1.16-.06-1.94-.06h0c-.63,0-1.22,0-1.67,0l-.31,0-.18,0h0c0,.06,0,.12,0,.19s0,.18,0,.29c0,.45-.05,1-.05,1.69s0,1.35.06,1.81c0,.06,0,.12,0,.18s0,.13,0,.18h0l.18,0h.1c.46,0,1.13.06,1.88.06h0c.76,0,1.45,0,1.92-.06h.06l.18,0h0a1,1,0,0,0,0-.18c0-.16,0-.35,0-.56,0-.41,0-.9,0-1.43C134.61,33.39,134.59,32.74,134.56,32.28Z" transform="translate(-6.48 -18.85)"/><path class="cls-1" d="M147.56,32.28a.71.71,0,0,0,0-.15c0-.07,0-.13,0-.19h0l-.18,0h0c-.47,0-1.16-.06-1.93-.06h0c-.64,0-1.23,0-1.68,0l-.31,0-.18,0h0c0,.06,0,.12,0,.19s0,.18,0,.29c0,.45,0,1,0,1.69s0,1.35.06,1.81c0,.06,0,.12,0,.18s0,.13,0,.18h0l.18,0h.1c.46,0,1.14.06,1.89.06h0c.76,0,1.45,0,1.92-.06h.06l.18,0h0c0-.05,0-.12,0-.18s0-.35,0-.56c0-.41,0-.9,0-1.43C147.62,33.39,147.6,32.74,147.56,32.28Z" transform="translate(-6.48 -18.85)"/><path class="cls-1" d="M102,45.29c0-.06,0-.11,0-.16a1.1,1.1,0,0,0,0-.18h0l-.18,0h0c-.47,0-1.16-.07-1.93-.07h0c-.65,0-1.23,0-1.68,0l-.31,0-.18,0h0a1.1,1.1,0,0,0,0,.18,2.66,2.66,0,0,0,0,.3c0,.45-.05,1-.05,1.69s0,1.35.05,1.81c0,.06,0,.12,0,.18a1.1,1.1,0,0,0,0,.18h0l.18,0h.09c.47,0,1.14.06,1.9.06h0c.76,0,1.45,0,1.92-.07h.06l.18,0h0a1.1,1.1,0,0,0,0-.18c0-.16,0-.35,0-.57,0-.4,0-.89,0-1.42C102.08,46.4,102.06,45.75,102,45.29Z" transform="translate(-6.48 -18.85)"/><path class="cls-1" d="M160.55,19.27a.76.76,0,0,1,0-.15,1.41,1.41,0,0,1,0-.18h0l-.19,0h-.05c-.47,0-1.16-.06-1.93-.06h0c-.65,0-1.23,0-1.68,0l-.31,0-.18,0h0s0,.11,0,.18a2.64,2.64,0,0,0,0,.29c0,.45,0,1,0,1.69s0,1.35.06,1.81c0,.07,0,.12,0,.18s0,.13,0,.18h0l.18,0h.1c.46,0,1.14.06,1.89.06h0c.76,0,1.46,0,1.92-.06h.06l.19,0h0c0-.05,0-.11,0-.18s0-.35,0-.56c0-.41,0-.9,0-1.43C160.6,20.38,160.58,19.73,160.55,19.27Z" transform="translate(-6.48 -18.85)"/><path class="cls-1" d="M167.05,19.27a.76.76,0,0,0,0-.15.9.9,0,0,0,0-.18h0l-.18,0h-.05c-.47,0-1.16-.06-1.94-.06h0c-.64,0-1.22,0-1.67,0l-.31,0-.19,0h0s0,.11,0,.18l0,.29c0,.45,0,1,0,1.69s0,1.35.05,1.81c0,.07,0,.12,0,.18s0,.13,0,.18h0l.19,0H163c.47,0,1.14.06,1.89.06h0c.77,0,1.46,0,1.93-.06h.06l.18,0h0a.9.9,0,0,0,0-.18c0-.16,0-.35,0-.56,0-.41,0-.9,0-1.43C167.11,20.38,167.09,19.73,167.05,19.27Z" transform="translate(-6.48 -18.85)"/><path class="cls-1" d="M173.56,19.27c0-.05,0-.1,0-.15s0-.13,0-.18h0l-.18,0h-.06c-.46,0-1.15-.06-1.93-.06h0c-.64,0-1.23,0-1.68,0l-.31,0-.18,0h0s0,.11,0,.18,0,.19,0,.29c0,.45-.05,1-.05,1.69s0,1.35.06,1.81c0,.07,0,.12,0,.18s0,.13,0,.18h0l.18,0h.1c.46,0,1.14.06,1.89.06h0c.77,0,1.46,0,1.92-.06h.07l.18,0h0c0-.05,0-.11,0-.18s0-.35,0-.56c0-.41,0-.9,0-1.43C173.62,20.38,173.59,19.73,173.56,19.27Z" transform="translate(-6.48 -18.85)"/><path class="cls-1" d="M180.07,19.27c0-.05,0-.1,0-.15s0-.13,0-.18h0l-.19,0h0c-.47,0-1.16-.06-1.93-.06h0c-.64,0-1.23,0-1.68,0l-.31,0-.18,0h0a.9.9,0,0,0,0,.18c0,.09,0,.19,0,.29,0,.45,0,1,0,1.69s0,1.35.06,1.81c0,.07,0,.12,0,.18a.9.9,0,0,0,0,.18h0l.18,0h.1c.46,0,1.13.06,1.89.06h0c.77,0,1.46,0,1.92-.06h.06l.19,0h0c0-.05,0-.11,0-.18s0-.35,0-.56c0-.41,0-.9,0-1.43C180.12,20.38,180.1,19.73,180.07,19.27Z" transform="translate(-6.48 -18.85)"/><path class="cls-1" d="M193.08,19.27c0-.05,0-.1,0-.15s0-.13,0-.18h0l-.19,0h-.05c-.46,0-1.15-.06-1.93-.06h0c-.64,0-1.23,0-1.67,0l-.32,0-.18,0h0s0,.11,0,.18,0,.19,0,.29c0,.45,0,1,0,1.69s0,1.35.06,1.81c0,.07,0,.12,0,.18s0,.13,0,.18h0l.18,0h.1c.46,0,1.14.06,1.89.06h0c.77,0,1.46,0,1.92-.06h.06l.19,0h0c0-.05,0-.11,0-.18s0-.35,0-.56c0-.41,0-.9,0-1.43C193.13,20.38,193.11,19.73,193.08,19.27Z" transform="translate(-6.48 -18.85)"/><path class="cls-1" d="M212.6,19.27c0-.05,0-.1,0-.15s0-.13,0-.18h0l-.18,0h-.06c-.46,0-1.16-.06-1.93-.06h0c-.64,0-1.23,0-1.67,0l-.32,0-.18,0h0s0,.11,0,.18,0,.19,0,.29c0,.45-.05,1-.05,1.69s0,1.35.06,1.81c0,.07,0,.12,0,.18s0,.13,0,.18h0l.18,0h.1c.46,0,1.14.06,1.89.06h0c.77,0,1.46,0,1.92-.06h.07l.18,0h0c0-.05,0-.11,0-.18s0-.35,0-.56c0-.41,0-.9,0-1.43C212.65,20.38,212.63,19.73,212.6,19.27Z" transform="translate(-6.48 -18.85)"/><path class="cls-1" d="M225.61,19.27c0-.05,0-.1,0-.15s0-.13,0-.18h0l-.18,0h-.05c-.47,0-1.16-.06-1.94-.06h0c-.64,0-1.23,0-1.67,0l-.31,0-.19,0h0s0,.11,0,.18l0,.29c0,.45,0,1,0,1.69s0,1.35.05,1.81a1,1,0,0,0,0,.18c0,.07,0,.13,0,.18h0l.19,0h.09c.47,0,1.14.06,1.89.06h0c.77,0,1.46,0,1.93-.06h.06l.18,0h0c0-.05,0-.11,0-.18s0-.35,0-.56c0-.41,0-.9,0-1.43C225.67,20.38,225.65,19.73,225.61,19.27Z" transform="translate(-6.48 -18.85)"/><path class="cls-1" d="M232.12,19.27a.76.76,0,0,1,0-.15,1.41,1.41,0,0,1,0-.18h0l-.18,0h-.06c-.46,0-1.16-.06-1.93-.06h0c-.64,0-1.23,0-1.67,0l-.32,0-.18,0h0a1.41,1.41,0,0,1,0,.18c0,.09,0,.19,0,.29,0,.45,0,1,0,1.69s0,1.35.05,1.81c0,.07,0,.12,0,.18a1.41,1.41,0,0,1,0,.18h0l.18,0h.1c.46,0,1.14.06,1.89.06h0c.77,0,1.46,0,1.92-.06h.07l.18,0h0a1.41,1.41,0,0,1,0-.18c0-.16,0-.35,0-.56,0-.41,0-.9,0-1.43C232.17,20.38,232.15,19.73,232.12,19.27Z" transform="translate(-6.48 -18.85)"/><path class="cls-1" d="M238.62,19.27a.76.76,0,0,0,0-.15c0-.07,0-.13,0-.18h0l-.19,0h0c-.47,0-1.16-.06-1.93-.06h0c-.65,0-1.23,0-1.68,0l-.31,0-.18,0h0s0,.11,0,.18a2.64,2.64,0,0,0,0,.29c0,.45-.05,1-.05,1.69s0,1.35.06,1.81a1,1,0,0,0,0,.18c0,.07,0,.13,0,.18h0l.18,0h.09c.47,0,1.14.06,1.9.06h0c.76,0,1.46,0,1.92-.06h.06l.19,0h0c0-.05,0-.11,0-.18s0-.35,0-.56c0-.41,0-.9,0-1.43C238.68,20.38,238.66,19.73,238.62,19.27Z" transform="translate(-6.48 -18.85)"/><path class="cls-1" d="M245.13,19.27c0-.05,0-.1,0-.15s0-.13,0-.18h0l-.18,0h-.06c-.46,0-1.15-.06-1.93-.06h0c-.64,0-1.22,0-1.67,0l-.32,0-.18,0h0a1.41,1.41,0,0,1,0,.18c0,.09,0,.19,0,.29,0,.45,0,1,0,1.69s0,1.35,0,1.81a1.15,1.15,0,0,1,0,.18,1.41,1.41,0,0,1,0,.18h0l.18,0h.1c.47,0,1.14.06,1.89.06h0c.77,0,1.46,0,1.92-.06h.07l.18,0h0c0-.05,0-.11,0-.18s0-.35,0-.56c0-.41,0-.9,0-1.43C245.19,20.38,245.17,19.73,245.13,19.27Z" transform="translate(-6.48 -18.85)"/><path class="cls-1" d="M160.55,25.78a.92.92,0,0,1,0-.16,1.24,1.24,0,0,1,0-.18h0l-.19,0h-.05c-.47,0-1.16-.07-1.93-.07h0c-.65,0-1.23,0-1.68,0l-.31,0-.18,0h0s0,.12,0,.18a2.66,2.66,0,0,0,0,.3c0,.45,0,1,0,1.69s0,1.35.06,1.8c0,.07,0,.13,0,.19s0,.12,0,.18h0l.18,0h.1c.46,0,1.14.06,1.89.06h0c.76,0,1.46,0,1.92-.06h.06l.19,0h0c0-.06,0-.12,0-.18s0-.35,0-.57c0-.4,0-.89,0-1.42C160.6,26.89,160.58,26.24,160.55,25.78Z" transform="translate(-6.48 -18.85)"/><path class="cls-1" d="M193.08,25.78c0-.06,0-.11,0-.16s0-.13,0-.18h0l-.19,0h-.05c-.46,0-1.15-.07-1.93-.07h0c-.64,0-1.23,0-1.67,0l-.32,0-.18,0h0s0,.12,0,.18,0,.19,0,.3c0,.45,0,1,0,1.69s0,1.35.06,1.8c0,.07,0,.13,0,.19s0,.12,0,.18h0l.18,0h.1c.46,0,1.14.06,1.89.06h0c.77,0,1.46,0,1.92-.06h.06l.19,0h0c0-.06,0-.12,0-.18s0-.35,0-.57c0-.4,0-.89,0-1.42C193.13,26.89,193.11,26.24,193.08,25.78Z" transform="translate(-6.48 -18.85)"/><path class="cls-1" d="M225.61,25.78c0-.06,0-.11,0-.16s0-.13,0-.18h0l-.18,0h-.05c-.47,0-1.16-.07-1.94-.07h0c-.64,0-1.23,0-1.67,0l-.31,0-.19,0h0s0,.12,0,.18l0,.3c0,.45,0,1,0,1.69s0,1.35.05,1.8a1.11,1.11,0,0,0,0,.19c0,.06,0,.12,0,.18h0l.19,0h.09c.47,0,1.14.06,1.89.06h0c.77,0,1.46,0,1.93-.06h.06l.18,0h0c0-.06,0-.12,0-.18s0-.35,0-.57c0-.4,0-.89,0-1.42C225.67,26.89,225.65,26.24,225.61,25.78Z" transform="translate(-6.48 -18.85)"/><path class="cls-1" d="M245.13,25.78c0-.06,0-.11,0-.16s0-.13,0-.18h0l-.18,0h-.06c-.46,0-1.15-.07-1.93-.07h0c-.64,0-1.22,0-1.67,0l-.32,0-.18,0h0a1.24,1.24,0,0,1,0,.18c0,.09,0,.19,0,.3,0,.45,0,1,0,1.69s0,1.35,0,1.8a1.28,1.28,0,0,1,0,.19,1.1,1.1,0,0,1,0,.18h0l.18,0h.1c.47,0,1.14.06,1.89.06h0c.77,0,1.46,0,1.92-.06h.07l.18,0h0c0-.06,0-.12,0-.18s0-.35,0-.57c0-.4,0-.89,0-1.42C245.19,26.89,245.17,26.24,245.13,25.78Z" transform="translate(-6.48 -18.85)"/><path class="cls-1" d="M173.56,32.28c0-.05,0-.11,0-.15s0-.13,0-.19h0l-.18,0h-.06c-.46,0-1.15-.06-1.93-.06h0c-.64,0-1.23,0-1.68,0l-.31,0-.18,0h0c0,.06,0,.12,0,.19s0,.18,0,.29c0,.45-.05,1-.05,1.69s0,1.35.06,1.81c0,.06,0,.12,0,.18s0,.13,0,.18h0l.18,0h.1c.46,0,1.14.06,1.89.06h0c.77,0,1.46,0,1.92-.06h.07l.18,0h0c0-.05,0-.12,0-.18s0-.35,0-.56c0-.41,0-.9,0-1.43C173.62,33.39,173.59,32.74,173.56,32.28Z" transform="translate(-6.48 -18.85)"/><path class="cls-1" d="M225.61,32.28c0-.05,0-.11,0-.15s0-.13,0-.19h0l-.18,0h-.05c-.47,0-1.16-.06-1.94-.06h0c-.64,0-1.23,0-1.67,0l-.31,0-.19,0h0c0,.06,0,.12,0,.19s0,.18,0,.29c0,.45,0,1,0,1.69s0,1.35.05,1.81a1.1,1.1,0,0,0,0,.18c0,.06,0,.13,0,.18h0l.19,0h.09c.47,0,1.14.06,1.89.06h0c.77,0,1.46,0,1.93-.06h.06l.18,0h0c0-.05,0-.12,0-.18s0-.35,0-.56c0-.41,0-.9,0-1.43C225.67,33.39,225.65,32.74,225.61,32.28Z" transform="translate(-6.48 -18.85)"/><path class="cls-1" d="M232.12,32.28a.81.81,0,0,1,0-.15,1.37,1.37,0,0,1,0-.19h0l-.18,0h-.06c-.46,0-1.16-.06-1.93-.06h0c-.64,0-1.23,0-1.67,0l-.32,0-.18,0h0a1.37,1.37,0,0,1,0,.19c0,.08,0,.18,0,.29,0,.45,0,1,0,1.69s0,1.35.05,1.81c0,.06,0,.12,0,.18a1.24,1.24,0,0,1,0,.18h0l.18,0h.1c.46,0,1.14.06,1.89.06h0c.77,0,1.46,0,1.92-.06h.07l.18,0h0a1.24,1.24,0,0,1,0-.18c0-.16,0-.35,0-.56,0-.41,0-.9,0-1.43C232.17,33.39,232.15,32.74,232.12,32.28Z" transform="translate(-6.48 -18.85)"/><path class="cls-1" d="M238.62,32.28a.71.71,0,0,0,0-.15c0-.07,0-.13,0-.19h0l-.19,0h0c-.47,0-1.16-.06-1.93-.06h0c-.65,0-1.23,0-1.68,0l-.31,0-.18,0h0c0,.06,0,.12,0,.19a2.33,2.33,0,0,0,0,.29c0,.45-.05,1-.05,1.69s0,1.35.06,1.81a1.09,1.09,0,0,0,0,.18c0,.06,0,.13,0,.18h0l.18,0h.09c.47,0,1.14.06,1.9.06h0c.76,0,1.46,0,1.92-.06h.06l.19,0h0c0-.05,0-.12,0-.18s0-.35,0-.56c0-.41,0-.9,0-1.43C238.68,33.39,238.66,32.74,238.62,32.28Z" transform="translate(-6.48 -18.85)"/><path class="cls-1" d="M245.13,32.28c0-.05,0-.11,0-.15s0-.13,0-.19h0l-.18,0h-.06c-.46,0-1.15-.06-1.93-.06h0c-.64,0-1.22,0-1.67,0l-.32,0-.18,0h0a1.37,1.37,0,0,1,0,.19c0,.08,0,.18,0,.29,0,.45,0,1,0,1.69s0,1.35,0,1.81a1.09,1.09,0,0,1,0,.18,1.24,1.24,0,0,1,0,.18h0l.18,0h.1c.47,0,1.14.06,1.89.06h0c.77,0,1.46,0,1.92-.06h.07l.18,0h0c0-.05,0-.12,0-.18s0-.35,0-.56c0-.41,0-.9,0-1.43C245.19,33.39,245.17,32.74,245.13,32.28Z" transform="translate(-6.48 -18.85)"/><path class="cls-1" d="M167.05,45.29a.81.81,0,0,0,0-.16,1.1,1.1,0,0,0,0-.18h0l-.18,0h-.05c-.47,0-1.16-.07-1.94-.07h0c-.64,0-1.22,0-1.67,0l-.31,0-.19,0h0c0,.06,0,.12,0,.18l0,.3c0,.45,0,1,0,1.69s0,1.35.05,1.81c0,.06,0,.12,0,.18s0,.12,0,.18h0l.19,0H163c.47,0,1.14.06,1.89.06h0c.77,0,1.46,0,1.93-.07h.06l.18,0h0a1.1,1.1,0,0,0,0-.18c0-.16,0-.35,0-.57,0-.4,0-.89,0-1.42C167.11,46.4,167.09,45.75,167.05,45.29Z" transform="translate(-6.48 -18.85)"/><path class="cls-1" d="M193.08,45.29c0-.06,0-.11,0-.16s0-.12,0-.18h0l-.19,0h-.05c-.46,0-1.15-.07-1.93-.07h0c-.64,0-1.23,0-1.67,0l-.32,0-.18,0h0c0,.06,0,.12,0,.18s0,.19,0,.3c0,.45,0,1,0,1.69s0,1.35.06,1.81c0,.06,0,.12,0,.18s0,.12,0,.18h0l.18,0h.1c.46,0,1.14.06,1.89.06h0c.77,0,1.46,0,1.92-.07h.06l.19,0h0c0-.06,0-.12,0-.18s0-.35,0-.57c0-.4,0-.89,0-1.42C193.13,46.4,193.11,45.75,193.08,45.29Z" transform="translate(-6.48 -18.85)"/><path class="cls-1" d="M63,45.29c0-.06,0-.11,0-.16S63,45,63,45h0l-.19,0h-.05c-.47,0-1.16-.07-1.93-.07h0c-.65,0-1.23,0-1.68,0l-.31,0-.18,0h0a1.1,1.1,0,0,0,0,.18,2.66,2.66,0,0,0,0,.3c0,.45,0,1,0,1.69s0,1.35,0,1.81c0,.06,0,.12,0,.18a1.1,1.1,0,0,0,0,.18h0l.18,0h.09c.47,0,1.14.06,1.9.06h0c.77,0,1.46,0,1.92-.07h.06l.19,0h0c0-.06,0-.12,0-.18s0-.35,0-.57c0-.4,0-.89,0-1.42C63,46.4,63,45.75,63,45.29Z" transform="translate(-6.48 -18.85)"/><path class="cls-1" d="M206.09,25.78a.81.81,0,0,0,0-.16,1,1,0,0,0,0-.18h0l-.18,0h0c-.47,0-1.16-.07-1.94-.07h0c-.64,0-1.22,0-1.67,0l-.31,0-.19,0h0a1.24,1.24,0,0,1,0,.18c0,.09,0,.19,0,.3,0,.45,0,1,0,1.69s0,1.35.05,1.8a1.28,1.28,0,0,1,0,.19,1.1,1.1,0,0,1,0,.18h0l.19,0H202c.47,0,1.14.06,1.89.06h0c.77,0,1.46,0,1.93-.06h.06l.18,0h0a1.1,1.1,0,0,0,0-.18c0-.17,0-.35,0-.57,0-.4,0-.89,0-1.42C206.15,26.89,206.13,26.24,206.09,25.78Z" transform="translate(-6.48 -18.85)"/><path class="cls-1" d="M50,45.29a.81.81,0,0,0,0-.16,1.1,1.1,0,0,0,0-.18h0l-.18,0h0c-.47,0-1.16-.07-1.94-.07h0c-.64,0-1.22,0-1.67,0l-.31,0-.19,0h0c0,.06,0,.12,0,.18s0,.19,0,.3c0,.45,0,1,0,1.69s0,1.35,0,1.81c0,.06,0,.12,0,.18s0,.12,0,.18h0l.19,0h.09c.46,0,1.14.06,1.89.06h0c.77,0,1.46,0,1.93-.07h.06l.18,0h0a1.1,1.1,0,0,0,0-.18c0-.16,0-.35,0-.57,0-.4,0-.89,0-1.42C50,46.4,50,45.75,50,45.29Z" transform="translate(-6.48 -18.85)"/><path class="cls-1" d="M69.49,45.29a.81.81,0,0,0,0-.16c0-.06,0-.12,0-.18h0l-.18,0h0c-.47,0-1.16-.07-1.94-.07h0c-.64,0-1.22,0-1.67,0l-.31,0-.19,0h0a1.1,1.1,0,0,1,0,.18c0,.09,0,.19,0,.3,0,.45,0,1,0,1.69s0,1.35,0,1.81a1.09,1.09,0,0,1,0,.18,1.1,1.1,0,0,1,0,.18h0l.19,0h.09c.47,0,1.14.06,1.89.06h0c.77,0,1.46,0,1.93-.07h.06l.18,0h0c0-.06,0-.12,0-.18s0-.35,0-.57c0-.4,0-.89,0-1.42C69.55,46.4,69.53,45.75,69.49,45.29Z" transform="translate(-6.48 -18.85)"/><path class="cls-1" d="M82.51,45.29c0-.06,0-.11,0-.16a1.1,1.1,0,0,0,0-.18h0l-.18,0h-.05c-.47,0-1.16-.07-1.93-.07h0c-.65,0-1.23,0-1.68,0l-.31,0-.18,0h0a1.1,1.1,0,0,0,0,.18,2.66,2.66,0,0,0,0,.3c0,.45,0,1,0,1.69s0,1.35,0,1.81c0,.06,0,.12,0,.18a1.1,1.1,0,0,0,0,.18h0l.18,0h.09c.47,0,1.14.06,1.9.06h0c.77,0,1.46,0,1.92-.07h.06l.18,0h0a1.1,1.1,0,0,0,0-.18c0-.16,0-.35,0-.57,0-.4,0-.89,0-1.42C82.56,46.4,82.54,45.75,82.51,45.29Z" transform="translate(-6.48 -18.85)"/><path class="cls-1" d="M115,45.29a.92.92,0,0,1,0-.16,1.1,1.1,0,0,1,0-.18h0l-.18,0h-.06c-.46,0-1.16-.07-1.93-.07h0c-.64,0-1.23,0-1.68,0l-.31,0-.18,0h0c0,.06,0,.12,0,.18s0,.19,0,.3c0,.45,0,1,0,1.69s0,1.35.06,1.81c0,.06,0,.12,0,.18s0,.12,0,.18h0l.18,0h.1c.46,0,1.14.06,1.89.06h0c.77,0,1.46,0,1.92-.07h.07l.18,0h0a1.1,1.1,0,0,1,0-.18q0-.24,0-.57c0-.4,0-.89,0-1.42C115.09,46.4,115.07,45.75,115,45.29Z" transform="translate(-6.48 -18.85)"/><path class="cls-1" d="M134.56,45.29c0-.06,0-.11,0-.16a1.1,1.1,0,0,0,0-.18h0l-.18,0h-.05c-.47,0-1.16-.07-1.94-.07h0c-.63,0-1.22,0-1.67,0l-.31,0-.18,0h0c0,.06,0,.12,0,.18s0,.19,0,.3c0,.45-.05,1-.05,1.69s0,1.35.06,1.81c0,.06,0,.12,0,.18s0,.12,0,.18h0l.18,0h.1c.46,0,1.13.06,1.88.06h0c.76,0,1.45,0,1.92-.07h.06l.18,0h0a1.1,1.1,0,0,0,0-.18c0-.16,0-.35,0-.57,0-.4,0-.89,0-1.42C134.61,46.4,134.59,45.75,134.56,45.29Z" transform="translate(-6.48 -18.85)"/><path class="cls-1" d="M147.56,45.29a.81.81,0,0,0,0-.16c0-.06,0-.12,0-.18h0l-.18,0h0c-.47,0-1.16-.07-1.93-.07h0c-.64,0-1.23,0-1.68,0l-.31,0-.18,0h0c0,.06,0,.12,0,.18s0,.19,0,.3c0,.45,0,1,0,1.69s0,1.35.06,1.81c0,.06,0,.12,0,.18s0,.12,0,.18h0l.18,0h.1c.46,0,1.14.06,1.89.06h0c.76,0,1.45,0,1.92-.07h.06l.18,0h0c0-.06,0-.12,0-.18s0-.35,0-.57c0-.4,0-.89,0-1.42C147.62,46.4,147.6,45.75,147.56,45.29Z" transform="translate(-6.48 -18.85)"/><path class="cls-1" d="M180.07,38.78c0-.05,0-.1,0-.15s0-.13,0-.18h0l-.19,0h0c-.47,0-1.16-.06-1.93-.06h0c-.64,0-1.23,0-1.68,0l-.31,0-.18,0h0a.9.9,0,0,0,0,.18c0,.09,0,.19,0,.29,0,.45,0,1,0,1.7s0,1.34.06,1.8c0,.07,0,.13,0,.18a.9.9,0,0,0,0,.18h0l.18,0h.1c.46,0,1.13.06,1.89.06h0c.77,0,1.46,0,1.92-.06h.06l.19,0h0c0-.05,0-.11,0-.18s0-.35,0-.56c0-.4,0-.89,0-1.42C180.12,39.9,180.1,39.25,180.07,38.78Z" transform="translate(-6.48 -18.85)"/><path class="cls-1" d="M225.61,38.78c0-.05,0-.1,0-.15s0-.13,0-.18h0l-.18,0h-.05c-.47,0-1.16-.06-1.94-.06h0c-.64,0-1.23,0-1.67,0l-.31,0-.19,0h0s0,.11,0,.18l0,.29c0,.45,0,1,0,1.7s0,1.34.05,1.8a.9.9,0,0,0,0,.18c0,.07,0,.13,0,.18h0l.19,0h.09c.47,0,1.14.06,1.89.06h0c.77,0,1.46,0,1.93-.06h.06l.18,0h0c0-.05,0-.11,0-.18s0-.35,0-.56c0-.4,0-.89,0-1.42C225.67,39.9,225.65,39.25,225.61,38.78Z" transform="translate(-6.48 -18.85)"/><path class="cls-1" d="M245.13,38.78c0-.05,0-.1,0-.15s0-.13,0-.18h0l-.18,0h-.06c-.46,0-1.15-.06-1.93-.06h0c-.64,0-1.22,0-1.67,0l-.32,0-.18,0h0a1.41,1.41,0,0,1,0,.18c0,.09,0,.19,0,.29,0,.45,0,1,0,1.7s0,1.34,0,1.8a1.21,1.21,0,0,1,0,.18,1.41,1.41,0,0,1,0,.18h0l.18,0h.1c.47,0,1.14.06,1.89.06h0c.77,0,1.46,0,1.92-.06h.07l.18,0h0c0-.05,0-.11,0-.18s0-.35,0-.56c0-.4,0-.89,0-1.42C245.19,39.9,245.17,39.25,245.13,38.78Z" transform="translate(-6.48 -18.85)"/><path class="cls-1" d="M180.07,45.29c0-.06,0-.11,0-.16s0-.12,0-.18h0l-.19,0h0c-.47,0-1.16-.07-1.93-.07h0c-.64,0-1.23,0-1.68,0l-.31,0-.18,0h0a1.1,1.1,0,0,0,0,.18c0,.09,0,.19,0,.3,0,.45,0,1,0,1.69s0,1.35.06,1.81c0,.06,0,.12,0,.18a1.1,1.1,0,0,0,0,.18h0l.18,0h.1c.46,0,1.13.06,1.89.06h0c.77,0,1.46,0,1.92-.07h.06l.19,0h0c0-.06,0-.12,0-.18s0-.35,0-.57c0-.4,0-.89,0-1.42C180.12,46.4,180.1,45.75,180.07,45.29Z" transform="translate(-6.48 -18.85)"/><path class="cls-1" d="M212.6,45.29c0-.06,0-.11,0-.16s0-.12,0-.18h0l-.18,0h-.06c-.46,0-1.16-.07-1.93-.07h0c-.64,0-1.23,0-1.67,0l-.32,0-.18,0h0c0,.06,0,.12,0,.18s0,.19,0,.3c0,.45-.05,1-.05,1.69s0,1.35.06,1.81c0,.06,0,.12,0,.18s0,.12,0,.18h0l.18,0h.1c.46,0,1.14.06,1.89.06h0c.77,0,1.46,0,1.92-.07h.07l.18,0h0c0-.06,0-.12,0-.18s0-.35,0-.57c0-.4,0-.89,0-1.42C212.65,46.4,212.63,45.75,212.6,45.29Z" transform="translate(-6.48 -18.85)"/><path class="cls-1" d="M225.61,45.29c0-.06,0-.11,0-.16s0-.12,0-.18h0l-.18,0h-.05c-.47,0-1.16-.07-1.94-.07h0c-.64,0-1.23,0-1.67,0l-.31,0-.19,0h0c0,.06,0,.12,0,.18l0,.3c0,.45,0,1,0,1.69s0,1.35.05,1.81a1.1,1.1,0,0,0,0,.18c0,.06,0,.12,0,.18h0l.19,0h.09c.47,0,1.14.06,1.89.06h0c.77,0,1.46,0,1.93-.07h.06l.18,0h0c0-.06,0-.12,0-.18s0-.35,0-.57c0-.4,0-.89,0-1.42C225.67,46.4,225.65,45.75,225.61,45.29Z" transform="translate(-6.48 -18.85)"/><path class="cls-1" d="M245.13,45.29c0-.06,0-.11,0-.16s0-.12,0-.18h0l-.18,0h-.06c-.46,0-1.15-.07-1.93-.07h0c-.64,0-1.22,0-1.67,0l-.32,0-.18,0h0a1.1,1.1,0,0,1,0,.18c0,.09,0,.19,0,.3,0,.45,0,1,0,1.69s0,1.35,0,1.81a1.09,1.09,0,0,1,0,.18,1.1,1.1,0,0,1,0,.18h0l.18,0h.1c.47,0,1.14.06,1.89.06h0c.77,0,1.46,0,1.92-.07h.07l.18,0h0c0-.06,0-.12,0-.18s0-.35,0-.57c0-.4,0-.89,0-1.42C245.19,46.4,245.17,45.75,245.13,45.29Z" transform="translate(-6.48 -18.85)"/><path class="cls-1" d="M50,38.78a.76.76,0,0,0,0-.15.9.9,0,0,0,0-.18h0l-.18,0h0c-.47,0-1.16-.06-1.94-.06h0c-.64,0-1.22,0-1.67,0l-.31,0-.19,0h0s0,.11,0,.18l0,.29c0,.45,0,1,0,1.7s0,1.34,0,1.8c0,.07,0,.13,0,.18s0,.13,0,.18h0l.19,0h.09c.46,0,1.14.06,1.89.06h0c.77,0,1.46,0,1.93-.06h.06l.18,0h0a.9.9,0,0,0,0-.18c0-.16,0-.35,0-.56,0-.4,0-.89,0-1.42C50,39.9,50,39.25,50,38.78Z" transform="translate(-6.48 -18.85)"/><path class="cls-1" d="M82.51,38.78c0-.05,0-.1,0-.15a.9.9,0,0,0,0-.18h0l-.18,0h-.05c-.47,0-1.16-.06-1.93-.06h0c-.65,0-1.23,0-1.68,0l-.31,0-.18,0h0a.9.9,0,0,0,0,.18,2.64,2.64,0,0,0,0,.29c0,.45,0,1,0,1.7s0,1.34,0,1.8c0,.07,0,.13,0,.18a.9.9,0,0,0,0,.18h0l.18,0h.09c.47,0,1.14.06,1.9.06h0c.77,0,1.46,0,1.92-.06h.06l.18,0h0a.9.9,0,0,0,0-.18c0-.16,0-.35,0-.56,0-.4,0-.89,0-1.42C82.56,39.9,82.54,39.25,82.51,38.78Z" transform="translate(-6.48 -18.85)"/><path class="cls-1" d="M115,38.78a.76.76,0,0,1,0-.15,1.41,1.41,0,0,1,0-.18h0l-.18,0h-.06c-.46,0-1.16-.06-1.93-.06h0c-.64,0-1.23,0-1.68,0l-.31,0-.18,0h0s0,.11,0,.18,0,.19,0,.29c0,.45,0,1,0,1.7s0,1.34.06,1.8c0,.07,0,.13,0,.18s0,.13,0,.18h0l.18,0h.1c.46,0,1.14.06,1.89.06h0c.77,0,1.46,0,1.92-.06h.07l.18,0h0a1.41,1.41,0,0,1,0-.18c0-.16,0-.35,0-.56,0-.4,0-.89,0-1.42C115.09,39.9,115.07,39.25,115,38.78Z" transform="translate(-6.48 -18.85)"/><path class="cls-1" d="M147.56,38.78a.76.76,0,0,0,0-.15c0-.07,0-.13,0-.18h0l-.18,0h0c-.47,0-1.16-.06-1.93-.06h0c-.64,0-1.23,0-1.68,0l-.31,0-.18,0h0s0,.11,0,.18,0,.19,0,.29c0,.45,0,1,0,1.7s0,1.34.06,1.8c0,.07,0,.13,0,.18s0,.13,0,.18h0l.18,0h.1c.46,0,1.14.06,1.89.06h0c.76,0,1.45,0,1.92-.06h.06l.18,0h0c0-.05,0-.11,0-.18s0-.35,0-.56c0-.4,0-.89,0-1.42C147.62,39.9,147.6,39.25,147.56,38.78Z" transform="translate(-6.48 -18.85)"/><path class="cls-1" d="M160.55,45.29a.92.92,0,0,1,0-.16,1.1,1.1,0,0,1,0-.18h0l-.19,0h-.05c-.47,0-1.16-.07-1.93-.07h0c-.65,0-1.23,0-1.68,0l-.31,0-.18,0h0c0,.06,0,.12,0,.18a2.66,2.66,0,0,0,0,.3c0,.45,0,1,0,1.69s0,1.35.06,1.81c0,.06,0,.12,0,.18s0,.12,0,.18h0l.18,0h.1c.46,0,1.14.06,1.89.06h0c.76,0,1.46,0,1.92-.07h.06l.19,0h0c0-.06,0-.12,0-.18s0-.35,0-.57c0-.4,0-.89,0-1.42C160.6,46.4,160.58,45.75,160.55,45.29Z" transform="translate(-6.48 -18.85)"/><path class="cls-1" d="M56.48,45.29a.92.92,0,0,1,0-.16c0-.06,0-.12,0-.18h0l-.18,0h-.06c-.46,0-1.15-.07-1.93-.07h0c-.64,0-1.23,0-1.67,0l-.32,0-.18,0h0c0,.06,0,.12,0,.18s0,.19,0,.3c0,.45,0,1,0,1.69s0,1.35.06,1.81c0,.06,0,.12,0,.18s0,.12,0,.18h0l.18,0h.1c.46,0,1.14.06,1.89.06h0c.77,0,1.46,0,1.92-.07h.07l.18,0h0c0-.06,0-.12,0-.18s0-.35,0-.57c0-.4,0-.89,0-1.42C56.53,46.4,56.51,45.75,56.48,45.29Z" transform="translate(-6.48 -18.85)"/><path class="cls-1" d="M167.05,32.28a.71.71,0,0,0,0-.15,1.11,1.11,0,0,0,0-.19h0l-.18,0h-.05c-.47,0-1.16-.06-1.94-.06h0c-.64,0-1.22,0-1.67,0l-.31,0-.19,0h0c0,.06,0,.12,0,.19s0,.18,0,.29c0,.45,0,1,0,1.69s0,1.35.05,1.81c0,.06,0,.12,0,.18s0,.13,0,.18h0l.19,0H163c.47,0,1.14.06,1.89.06h0c.77,0,1.46,0,1.93-.06h.06l.18,0h0a1,1,0,0,0,0-.18c0-.16,0-.35,0-.56,0-.41,0-.9,0-1.43C167.11,33.39,167.09,32.74,167.05,32.28Z" transform="translate(-6.48 -18.85)"/><path class="cls-1" d="M193.08,32.28c0-.05,0-.11,0-.15s0-.13,0-.19h0l-.19,0h-.05c-.46,0-1.15-.06-1.93-.06h0c-.64,0-1.23,0-1.67,0l-.32,0-.18,0h0c0,.06,0,.12,0,.19s0,.18,0,.29c0,.45,0,1,0,1.69s0,1.35.06,1.81c0,.06,0,.12,0,.18s0,.13,0,.18h0l.18,0h.1c.46,0,1.14.06,1.89.06h0c.77,0,1.46,0,1.92-.06h.06l.19,0h0c0-.05,0-.12,0-.18s0-.35,0-.56c0-.41,0-.9,0-1.43C193.13,33.39,193.11,32.74,193.08,32.28Z" transform="translate(-6.48 -18.85)"/><path class="cls-1" d="M199.59,32.28c0-.05,0-.11,0-.15s0-.13,0-.19h0l-.19,0h-.05c-.47,0-1.16-.06-1.93-.06h0c-.64,0-1.23,0-1.68,0l-.31,0-.18,0h0a1.11,1.11,0,0,0,0,.19,2.33,2.33,0,0,0,0,.29c0,.45-.05,1-.05,1.69s0,1.35.05,1.81c0,.06,0,.12,0,.18a1,1,0,0,0,0,.18h0l.18,0h.1c.46,0,1.14.06,1.89.06h0c.77,0,1.46,0,1.92-.06h.06l.19,0h0c0-.05,0-.12,0-.18s0-.35,0-.56c0-.41,0-.9,0-1.43C199.64,33.39,199.62,32.74,199.59,32.28Z" transform="translate(-6.48 -18.85)"/><path class="cls-1" d="M173.56,45.29c0-.06,0-.11,0-.16s0-.12,0-.18h0l-.18,0h-.06c-.46,0-1.15-.07-1.93-.07h0c-.64,0-1.23,0-1.68,0l-.31,0-.18,0h0c0,.06,0,.12,0,.18s0,.19,0,.3c0,.45-.05,1-.05,1.69s0,1.35.06,1.81c0,.06,0,.12,0,.18s0,.12,0,.18h0l.18,0h.1c.46,0,1.14.06,1.89.06h0c.77,0,1.46,0,1.92-.07h.07l.18,0h0c0-.06,0-.12,0-.18s0-.35,0-.57c0-.4,0-.89,0-1.42C173.62,46.4,173.59,45.75,173.56,45.29Z" transform="translate(-6.48 -18.85)"/><path class="cls-1" d="M134.56,38.78c0-.05,0-.1,0-.15a.9.9,0,0,0,0-.18h0l-.18,0h-.05c-.47,0-1.16-.06-1.94-.06h0c-.63,0-1.22,0-1.67,0l-.31,0-.18,0h0s0,.11,0,.18,0,.19,0,.29c0,.45-.05,1-.05,1.7s0,1.34.06,1.8c0,.07,0,.13,0,.18s0,.13,0,.18h0l.18,0h.1c.46,0,1.13.06,1.88.06h0c.76,0,1.45,0,1.92-.06h.06l.18,0h0a.9.9,0,0,0,0-.18c0-.16,0-.35,0-.56,0-.4,0-.89,0-1.42C134.61,39.9,134.59,39.25,134.56,38.78Z" transform="translate(-6.48 -18.85)"/><path class="cls-1" d="M24,45.29c0-.06,0-.11,0-.16s0-.12,0-.18h0l-.19,0h-.05c-.47,0-1.16-.07-1.93-.07h0c-.64,0-1.23,0-1.68,0l-.31,0-.18,0h0c0,.06,0,.12,0,.18a2.66,2.66,0,0,0,0,.3c0,.45-.05,1-.05,1.69s0,1.35.05,1.81c0,.06,0,.12,0,.18s0,.12,0,.18h0l.18,0h.09c.47,0,1.15.06,1.9.06h0c.77,0,1.46,0,1.92-.07h.06l.19,0h0c0-.06,0-.12,0-.18s0-.35,0-.57c0-.4,0-.89,0-1.42C24,46.4,24,45.75,24,45.29Z" transform="translate(-6.48 -18.85)"/><path class="cls-1" d="M24,38.78c0-.05,0-.1,0-.15s0-.13,0-.18h0l-.19,0h-.05c-.47,0-1.16-.06-1.93-.06h0c-.64,0-1.23,0-1.68,0l-.31,0-.18,0h0s0,.11,0,.18a2.64,2.64,0,0,0,0,.29c0,.45-.05,1-.05,1.7s0,1.34.05,1.8c0,.07,0,.13,0,.18s0,.13,0,.18h0l.18,0h.09c.47,0,1.15.06,1.9.06h0c.77,0,1.46,0,1.92-.06h.06l.19,0h0c0-.05,0-.11,0-.18s0-.35,0-.56c0-.4,0-.89,0-1.42C24,39.9,24,39.25,24,38.78Z" transform="translate(-6.48 -18.85)"/><path class="cls-1" d="M95.52,38.78a.76.76,0,0,1,0-.15c0-.07,0-.13,0-.18h0l-.18,0h-.06c-.46,0-1.16-.06-1.93-.06h0c-.64,0-1.23,0-1.67,0l-.32,0-.18,0h0s0,.11,0,.18,0,.19,0,.29c0,.45,0,1,0,1.7s0,1.34.06,1.8c0,.07,0,.13,0,.18s0,.13,0,.18h0l.18,0h.1c.46,0,1.14.06,1.89.06h0c.77,0,1.46,0,1.92-.06h.07l.18,0h0c0-.05,0-.11,0-.18s0-.35,0-.56c0-.4,0-.89,0-1.42C95.57,39.9,95.55,39.25,95.52,38.78Z" transform="translate(-6.48 -18.85)"/><path class="cls-1" d="M193.08,38.78c0-.05,0-.1,0-.15s0-.13,0-.18h0l-.19,0h-.05c-.46,0-1.15-.06-1.93-.06h0c-.64,0-1.23,0-1.67,0l-.32,0-.18,0h0s0,.11,0,.18,0,.19,0,.29c0,.45,0,1,0,1.7s0,1.34.06,1.8c0,.07,0,.13,0,.18s0,.13,0,.18h0l.18,0h.1c.46,0,1.14.06,1.89.06h0c.77,0,1.46,0,1.92-.06h.06l.19,0h0c0-.05,0-.11,0-.18s0-.35,0-.56c0-.4,0-.89,0-1.42C193.13,39.9,193.11,39.25,193.08,38.78Z" transform="translate(-6.48 -18.85)"/><path class="cls-1" d="M206.09,38.78a.76.76,0,0,0,0-.15.9.9,0,0,0,0-.18h0l-.18,0h0c-.47,0-1.16-.06-1.94-.06h0c-.64,0-1.22,0-1.67,0l-.31,0-.19,0h0a1.41,1.41,0,0,1,0,.18c0,.09,0,.19,0,.29,0,.45,0,1,0,1.7s0,1.34.05,1.8a1.21,1.21,0,0,1,0,.18,1.41,1.41,0,0,1,0,.18h0l.19,0H202c.47,0,1.14.06,1.89.06h0c.77,0,1.46,0,1.93-.06h.06l.18,0h0a.9.9,0,0,0,0-.18c0-.16,0-.35,0-.56,0-.4,0-.89,0-1.42C206.15,39.9,206.13,39.25,206.09,38.78Z" transform="translate(-6.48 -18.85)"/></svg>